<svg width="1096" height="549" viewBox="0 0 1096 549" fill="none" xmlns="http://www.w3.org/2000/svg">
<path d="M48.9988 0L40.7219 8.05152L51.8332 11.1937L48.9988 0ZM1090.5 548.5L1095.51 538.095L1083.99 538.961L1090.5 548.5ZM457.5 448L457.779 448.96L457.5 448ZM43.9385 14.358C43.0482 17.5831 42.1717 20.7906 41.3089 23.9807L43.2395 24.5029C44.1014 21.3162 44.9771 18.1119 45.8664 14.8901L43.9385 14.358ZM38.7616 33.4986C37.9153 36.6948 37.0831 39.8732 36.265 43.0337L38.2012 43.5349C39.0184 40.378 39.8496 37.2032 40.695 34.0105L38.7616 33.4986ZM33.7545 52.8513C32.9329 56.1045 32.1266 59.3383 31.3357 62.5529L33.2778 63.0308C34.0677 59.8202 34.873 56.5903 35.6936 53.341L33.7545 52.8513ZM29.0087 72.1387C28.2399 75.3502 27.4867 78.542 26.7492 81.7142L28.6973 82.1671C29.4338 78.9993 30.1859 75.8117 30.9538 72.6043L29.0087 72.1387ZM24.4873 91.6001C23.7505 94.8739 23.0309 98.1263 22.3283 101.357L24.2827 101.782C24.9841 98.5561 25.7028 95.3084 26.4385 92.0392L24.4873 91.6001ZM20.2723 110.986C19.5894 114.245 18.9243 117.482 18.2773 120.697L20.238 121.091C20.884 117.882 21.5479 114.651 22.2298 111.397L20.2723 110.986ZM16.3233 130.62C15.6913 133.904 15.0786 137.164 14.4852 140.401L16.4524 140.761C17.0447 137.531 17.6563 134.276 18.2873 130.998L16.3233 130.62ZM12.7631 150.038C12.1823 153.378 11.6227 156.691 11.0843 159.978L13.058 160.301C13.5953 157.021 14.1538 153.714 14.7335 150.381L12.7631 150.038ZM9.51244 169.896C9.01033 173.176 8.53006 176.428 8.07166 179.655L10.0518 179.936C10.5091 176.717 10.9884 173.471 11.4894 170.199L9.51244 169.896ZM6.7331 189.477C6.29318 192.851 5.87802 196.195 5.48765 199.509L7.47392 199.743C7.8633 196.437 8.27744 193.101 8.71631 189.735L6.7331 189.477ZM4.39094 209.363C4.04636 212.654 3.72714 215.916 3.43334 219.146L5.42512 219.327C5.71809 216.106 6.03641 212.854 6.38007 209.571L4.39094 209.363ZM2.58932 229.258C2.3362 232.594 2.11132 235.898 1.91471 239.168L3.9111 239.288C4.10707 236.028 4.33124 232.735 4.58359 229.409L2.58932 229.258ZM1.40488 248.989C1.25617 252.405 1.13968 255.784 1.05545 259.125L3.05482 259.176C3.13873 255.847 3.2548 252.48 3.40299 249.075L1.40488 248.989ZM0.899598 269.036C0.879456 272.382 0.893225 275.688 0.940952 278.955L2.94074 278.926C2.89322 275.673 2.8795 272.38 2.89956 269.048L0.899598 269.036ZM1.2009 289.042C1.32448 292.362 1.48499 295.639 1.68251 298.873L3.6788 298.752C3.48227 295.533 3.32252 292.272 3.19952 288.968L1.2009 289.042ZM2.42666 308.917C2.72055 312.276 3.0567 315.586 3.43517 318.849L5.42185 318.618C5.0456 315.375 4.71134 312.083 4.41905 308.742L2.42666 308.917ZM4.72203 328.659C5.21755 332.034 5.7613 335.355 6.35335 338.621L8.32129 338.265C7.73333 335.021 7.19318 331.722 6.70081 328.369L4.72203 328.659ZM8.27456 348.259C9.00469 351.607 9.78922 354.894 10.6283 358.121L12.5639 357.618C11.7317 354.417 10.9533 351.155 10.2286 347.833L8.27456 348.259ZM13.3172 367.648C14.3108 370.902 15.3643 374.09 16.478 377.212L18.3617 376.54C17.2587 373.448 16.2148 370.289 15.23 367.064L13.3172 367.648ZM20.0446 386.491C21.3391 389.624 22.6997 392.684 24.1265 395.673L25.9314 394.811C24.5203 391.855 23.1742 388.828 21.893 385.727L20.0446 386.491ZM28.6676 404.537C30.294 407.5 31.9924 410.385 33.763 413.194L35.4548 412.127C33.7061 409.353 32.0281 406.503 30.4208 403.575L28.6676 404.537ZM39.3415 421.456C41.3129 424.186 43.3608 426.833 45.4852 429.4L47.026 428.125C44.9298 425.592 42.9087 422.979 40.9627 420.285L39.3415 421.456ZM52.1093 436.88C54.4101 439.308 56.7889 441.654 59.2459 443.918L60.6011 442.447C58.1774 440.214 55.8308 437.9 53.5612 435.504L52.1093 436.88ZM66.8378 450.453C69.4268 452.534 72.0925 454.534 74.8348 456.455L75.9822 454.817C73.2756 452.921 70.6452 450.947 68.0909 448.894L66.8378 450.453ZM83.2224 461.937C86.0471 463.657 88.9448 465.302 91.9156 466.871L92.8498 465.103C89.9144 463.552 87.0521 461.927 84.2627 460.229L83.2224 461.937ZM100.899 471.287C103.899 472.656 106.967 473.956 110.103 475.188L110.834 473.326C107.731 472.108 104.696 470.822 101.729 469.467L100.899 471.287ZM119.504 478.604C122.622 479.649 125.801 480.633 129.042 481.553L129.589 479.63C126.377 478.717 123.228 477.743 120.14 476.708L119.504 478.604ZM138.739 484.08C141.923 484.837 145.162 485.539 148.457 486.186L148.842 484.224C145.572 483.582 142.359 482.885 139.201 482.134L138.739 484.08ZM158.382 487.942C161.592 488.449 164.851 488.908 168.159 489.319L168.406 487.334C165.118 486.926 161.881 486.47 158.694 485.966L158.382 487.942ZM178.234 490.405C181.459 490.701 184.728 490.955 188.042 491.166L188.169 489.17C184.873 488.96 181.623 488.708 178.417 488.413L178.234 490.405ZM198.053 491.667C201.344 491.788 204.677 491.87 208.051 491.911L208.076 489.911C204.718 489.87 201.401 489.789 198.127 489.668L198.053 491.667ZM217.942 491.92C221.278 491.887 224.652 491.816 228.066 491.708L228.003 489.709C224.603 489.816 221.243 489.887 217.921 489.921L217.942 491.92ZM237.906 491.301C241.185 491.134 244.498 490.935 247.846 490.703L247.708 488.708C244.372 488.939 241.071 489.137 237.804 489.303L237.906 491.301ZM257.968 489.914C261.183 489.635 264.429 489.329 267.706 488.993L267.503 487.004C264.236 487.338 261 487.644 257.796 487.921L257.968 489.914ZM277.628 487.903C280.95 487.513 284.303 487.095 287.685 486.65L287.424 484.667C284.05 485.111 280.707 485.528 277.395 485.917L277.628 487.903ZM297.379 485.308C300.637 484.836 303.923 484.34 307.236 483.818L306.924 481.842C303.619 482.363 300.342 482.858 297.092 483.329L297.379 485.308ZM317.257 482.179C320.447 481.637 323.662 481.074 326.902 480.489L326.546 478.521C323.313 479.105 320.105 479.667 316.922 480.207L317.257 482.179ZM336.662 478.672C339.94 478.045 343.242 477.396 346.569 476.725L346.174 474.764C342.853 475.434 339.557 476.082 336.286 476.708L336.662 478.672ZM356.285 474.718C359.477 474.043 362.691 473.349 365.927 472.636L365.497 470.683C362.266 471.395 359.058 472.088 355.871 472.761L356.285 474.718ZM375.702 470.437C378.964 469.689 382.248 468.922 385.553 468.136L385.09 466.19C381.79 466.975 378.512 467.741 375.255 468.488L375.702 470.437ZM395.066 465.835C398.256 465.051 401.467 464.25 404.697 463.431L404.206 461.493C400.98 462.31 397.774 463.11 394.588 463.893L395.066 465.835ZM414.447 460.924C417.652 460.088 420.875 459.236 424.117 458.367L423.6 456.436C420.362 457.303 417.142 458.154 413.943 458.989L414.447 460.924ZM433.6 455.795C436.779 454.922 439.976 454.034 443.191 453.13L442.65 451.205C439.439 452.107 436.246 452.994 433.071 453.866L433.6 455.795ZM452.889 450.373C454.515 449.906 456.145 449.435 457.779 448.96L457.221 447.04C455.589 447.514 453.96 447.984 452.337 448.451L452.889 450.373ZM457.779 448.96C459.437 448.479 461.091 448.001 462.74 447.526L462.187 445.604C460.536 446.079 458.881 446.558 457.221 447.04L457.779 448.96ZM472.587 444.721C475.853 443.8 479.101 442.893 482.334 442L481.801 440.072C478.565 440.966 475.313 441.874 472.044 442.796L472.587 444.721ZM491.98 439.362C495.179 438.496 498.362 437.644 501.528 436.806L501.016 434.872C497.846 435.712 494.66 436.564 491.458 437.431L491.98 439.362ZM511.233 434.265C514.559 433.405 517.866 432.559 521.155 431.729L520.665 429.79C517.372 430.621 514.061 431.467 510.732 432.329L511.233 434.265ZM530.967 429.283C534.219 428.482 537.453 427.696 540.669 426.926L540.203 424.981C536.983 425.753 533.745 426.539 530.489 427.341L530.967 429.283ZM550.262 424.657C553.577 423.884 556.873 423.126 560.149 422.384L559.707 420.434C556.427 421.177 553.127 421.935 549.808 422.709L550.262 424.657ZM570.107 420.164C573.406 419.441 576.685 418.733 579.944 418.041L579.529 416.085C576.266 416.777 572.982 417.486 569.679 418.211L570.107 420.164ZM589.661 416.013C592.92 415.344 596.159 414.692 599.378 414.056L598.99 412.094C595.766 412.731 592.523 413.384 589.259 414.054L589.661 416.013ZM609.457 412.102C612.794 411.468 616.109 410.851 619.401 410.252L619.043 408.284C615.745 408.884 612.426 409.502 609.083 410.137L609.457 412.102ZM629.213 408.505C632.462 407.939 635.688 407.391 638.892 406.859L638.565 404.886C635.355 405.419 632.124 405.968 628.87 406.534L629.213 408.505ZM649.048 405.218C652.411 404.689 655.75 404.179 659.064 403.687L658.771 401.709C655.451 402.201 652.106 402.712 648.737 403.242L649.048 405.218ZM668.934 402.267C672.206 401.811 675.453 401.373 678.677 400.953L678.418 398.97C675.189 399.39 671.936 399.829 668.658 400.286L668.934 402.267ZM688.882 399.673C692.257 399.266 695.604 398.879 698.924 398.512L698.704 396.524C695.378 396.892 692.024 397.28 688.643 397.687L688.882 399.673ZM708.804 397.47C712.14 397.135 715.448 396.82 718.729 396.525L718.55 394.533C715.262 394.828 711.947 395.144 708.604 395.48L708.804 397.47ZM728.918 395.664C732.284 395.399 735.62 395.154 738.926 394.931L738.791 392.935C735.477 393.159 732.134 393.404 728.76 393.67L728.918 395.664ZM748.755 394.322C752.187 394.13 755.586 393.96 758.953 393.812L758.865 391.814C755.49 391.962 752.083 392.132 748.642 392.326L748.755 394.322ZM769.052 393.433C772.386 393.329 775.686 393.247 778.953 393.188L778.917 391.188C775.641 391.248 772.332 391.33 768.99 391.434L769.052 393.433ZM789.043 393.071C792.462 393.055 795.842 393.064 799.187 393.096L799.206 391.096C795.852 391.064 792.462 391.055 789.034 391.071L789.043 393.071ZM809.109 393.263C812.502 393.345 815.856 393.452 819.171 393.583L819.25 391.584C815.925 391.453 812.561 391.346 809.158 391.263L809.109 393.263ZM829.296 394.065C832.63 394.25 835.924 394.461 839.177 394.697L839.321 392.702C836.057 392.466 832.753 392.254 829.407 392.068L829.296 394.065ZM849.271 395.515C852.66 395.82 856.003 396.152 859.301 396.51L859.517 394.522C856.207 394.162 852.851 393.829 849.45 393.523L849.271 395.515ZM869.078 397.663C872.51 398.101 875.89 398.567 879.221 399.061L879.515 397.083C876.17 396.587 872.776 396.119 869.331 395.679L869.078 397.663ZM889.064 400.626C892.414 401.194 895.711 401.791 898.956 402.415L899.334 400.451C896.075 399.824 892.763 399.225 889.399 398.654L889.064 400.626ZM908.83 404.434C912.11 405.144 915.334 405.883 918.503 406.649L918.973 404.705C915.789 403.935 912.549 403.193 909.253 402.479L908.83 404.434ZM928.345 409.163C931.568 410.031 934.73 410.928 937.833 411.851L938.404 409.934C935.284 409.006 932.105 408.104 928.865 407.232L928.345 409.163ZM947.567 414.9C950.744 415.946 953.855 417.021 956.9 418.122L957.58 416.242C954.517 415.133 951.388 414.052 948.192 413L947.567 414.9ZM966.418 421.735C969.535 422.976 972.578 424.245 975.55 425.54L976.349 423.707C973.358 422.403 970.294 421.126 967.157 419.877L966.418 421.735ZM984.783 429.757C987.834 431.216 990.802 432.703 993.69 434.214L994.618 432.442C991.708 430.92 988.718 429.422 985.646 427.953L984.783 429.757ZM1002.51 439.043C1005.47 440.741 1008.34 442.465 1011.12 444.21L1012.18 442.516C1009.38 440.757 1006.49 439.019 1003.5 437.308L1002.51 439.043ZM1019.4 449.651C1022.24 451.603 1024.97 453.577 1027.6 455.567L1028.81 453.971C1026.15 451.964 1023.39 449.972 1020.53 448.003L1019.4 449.651ZM1035.46 461.793C1038.07 463.966 1040.57 466.15 1042.95 468.341L1044.3 466.867C1041.89 464.655 1039.37 462.449 1036.74 460.256L1035.46 461.793ZM1050.15 475.294C1052.57 477.751 1054.85 480.207 1057 482.651L1058.5 481.329C1056.32 478.857 1054.02 476.375 1051.58 473.893L1050.15 475.294ZM1063.41 490.353C1065.54 493.068 1067.51 495.757 1069.34 498.407L1070.99 497.271C1069.14 494.587 1067.14 491.866 1064.98 489.119L1063.41 490.353ZM1074.75 506.814C1076.55 509.81 1078.15 512.734 1079.58 515.565L1081.36 514.665C1079.91 511.791 1078.29 508.825 1076.47 505.788L1074.75 506.814ZM1083.7 524.626C1085.06 527.959 1086.14 531.099 1087 534.002L1088.91 533.438C1088.04 530.469 1086.93 527.266 1085.56 523.874L1083.7 524.626Z" fill="url(#paint0_linear_1194_9704)"/>
<defs>
<linearGradient id="paint0_linear_1194_9704" x1="582" y1="177.5" x2="552.996" y2="465" gradientUnits="userSpaceOnUse">
<stop stop-color="#783D96" stop-opacity="0.05"/>
<stop offset="1" stop-color="#CA67FC"/>
</linearGradient>
</defs>
</svg>
