<svg width="1075" height="539" viewBox="0 0 1075 539" fill="none" xmlns="http://www.w3.org/2000/svg">
<path d="M1050.96 0.712097C1050.8 0.183196 1050.24 -0.116664 1049.71 0.0423405C1049.18 0.201345 1048.88 0.759002 1049.04 1.2879L1050.96 0.712097ZM3 538.5L11.7652 530.983L0.87267 527.151L3 538.5ZM5.5543 534.252C5.75228 533.736 5.49482 533.158 4.97924 532.96C4.46367 532.762 3.88521 533.019 3.68722 533.535L5.5543 534.252ZM7.59145 524.431C7.35655 524.931 7.57132 525.526 8.07116 525.761C8.571 525.996 9.16663 525.781 9.40153 525.282L7.59145 524.431ZM13.8478 516.512C14.1116 516.027 13.9321 515.42 13.4468 515.156C12.9616 514.892 12.3544 515.072 12.0907 515.557L13.8478 516.512ZM17.078 506.946C16.7887 507.416 16.9355 508.032 17.4059 508.322C17.8763 508.611 18.4922 508.464 18.7816 507.994L17.078 506.946ZM24.1549 499.738C24.4677 499.283 24.3524 498.661 23.8973 498.348C23.4422 498.035 22.8196 498.15 22.5068 498.605L24.1549 499.738ZM28.3102 490.594C27.9753 491.033 28.06 491.66 28.4992 491.995C28.9384 492.33 29.5659 492.245 29.9007 491.806L28.3102 490.594ZM36.0398 484.144C36.3954 483.721 36.341 483.09 35.9184 482.735C35.4958 482.379 34.865 482.434 34.5094 482.856L36.0398 484.144ZM41.0754 475.418C40.7002 475.824 40.7246 476.456 41.1299 476.832C41.5352 477.207 42.1678 477.182 42.543 476.777L41.0754 475.418ZM49.3884 469.722C49.7821 469.335 49.7873 468.702 49.4001 468.308C49.0128 467.914 48.3796 467.909 47.9859 468.297L49.3884 469.722ZM55.2224 461.501C54.8112 461.87 54.7767 462.502 55.1454 462.913C55.5141 463.324 56.1464 463.359 56.5575 462.99L55.2224 461.501ZM64.0349 456.587C64.4625 456.237 64.5256 455.607 64.176 455.18C63.8264 454.752 63.1964 454.689 62.7689 455.039L64.0349 456.587ZM70.6117 448.915C70.1689 449.245 70.0775 449.871 70.4076 450.314C70.7377 450.757 71.3642 450.848 71.807 450.518L70.6117 448.915ZM79.795 444.832C80.2518 444.521 80.3705 443.9 80.0601 443.443C79.7497 442.986 79.1278 442.867 78.671 443.178L79.795 444.832ZM86.9652 437.799C86.4955 438.089 86.3503 438.705 86.6409 439.175C86.9314 439.645 87.5477 439.79 88.0174 439.499L86.9652 437.799ZM96.4815 434.506C96.963 434.236 97.1339 433.626 96.8633 433.145C96.5926 432.663 95.983 432.492 95.5015 432.763L96.4815 434.506ZM104.275 428.066C103.783 428.317 103.587 428.919 103.838 429.411C104.088 429.903 104.691 430.099 105.183 429.848L104.275 428.066ZM114.03 425.562C114.532 425.331 114.751 424.737 114.52 424.235C114.289 423.733 113.695 423.514 113.194 423.745L114.03 425.562ZM122.236 419.79C121.726 420.002 121.484 420.587 121.696 421.097C121.907 421.607 122.492 421.849 123.002 421.638L122.236 419.79ZM132.184 418.029C132.702 417.836 132.965 417.261 132.773 416.743C132.58 416.225 132.005 415.962 131.487 416.154L132.184 418.029ZM140.847 412.864C140.322 413.038 140.038 413.604 140.212 414.128C140.386 414.653 140.952 414.937 141.476 414.763L140.847 412.864ZM150.821 411.842C151.351 411.686 151.654 411.131 151.498 410.601C151.343 410.071 150.787 409.768 150.257 409.923L150.821 411.842ZM159.876 407.271C159.341 407.409 159.019 407.954 159.157 408.489C159.295 409.024 159.84 409.345 160.375 409.207L159.876 407.271ZM169.88 406.915C170.419 406.794 170.758 406.259 170.637 405.721C170.516 405.182 169.981 404.843 169.442 404.964L169.88 406.915ZM179.153 402.939C178.611 403.044 178.256 403.568 178.361 404.11C178.465 404.653 178.989 405.008 179.532 404.903L179.153 402.939ZM189.231 403.181C189.776 403.093 190.146 402.579 190.058 402.034C189.969 401.489 189.455 401.119 188.91 401.207L189.231 403.181ZM198.675 399.76C198.128 399.833 197.744 400.337 197.817 400.884C197.89 401.431 198.394 401.816 198.941 401.742L198.675 399.76ZM208.765 400.56C209.314 400.502 209.711 400.009 209.653 399.46C209.594 398.91 209.101 398.513 208.552 398.572L208.765 400.56ZM218.35 397.652C217.8 397.696 217.39 398.179 217.434 398.729C217.479 399.28 217.961 399.69 218.512 399.645L218.35 397.652ZM228.397 398.966C228.948 398.935 229.37 398.463 229.339 397.912C229.307 397.36 228.835 396.939 228.284 396.97L228.397 398.966ZM238.11 396.531C237.558 396.549 237.126 397.011 237.144 397.563C237.162 398.115 237.625 398.548 238.177 398.53L238.11 396.531ZM248.066 398.314C248.619 398.309 249.062 397.856 249.056 397.304C249.05 396.752 248.597 396.309 248.045 396.315L248.066 398.314ZM257.911 396.316C257.358 396.31 256.906 396.753 256.9 397.305C256.894 397.857 257.337 398.31 257.889 398.316L257.911 396.316ZM267.736 398.523C268.288 398.541 268.75 398.107 268.767 397.555C268.784 397.003 268.351 396.542 267.799 396.524L267.736 398.523ZM277.726 396.933C277.174 396.905 276.704 397.329 276.676 397.881C276.648 398.432 277.073 398.902 277.624 398.93L277.726 396.933ZM287.388 399.52C287.939 399.558 288.417 399.143 288.455 398.592C288.493 398.041 288.078 397.563 287.527 397.525L287.388 399.52ZM297.548 398.316C296.998 398.267 296.513 398.674 296.464 399.224C296.416 399.775 296.823 400.26 297.373 400.308L297.548 398.316ZM307.02 401.241C307.57 401.299 308.062 400.9 308.12 400.351C308.177 399.802 307.779 399.31 307.23 399.252L307.02 401.241ZM317.112 400.375C316.564 400.308 316.065 400.698 315.998 401.247C315.931 401.795 316.322 402.294 316.87 402.36L317.112 400.375ZM326.793 403.647C327.34 403.721 327.844 403.338 327.918 402.79C327.993 402.243 327.609 401.739 327.062 401.665L326.793 403.647ZM336.858 403.048C336.311 402.968 335.803 403.346 335.723 403.893C335.643 404.439 336.021 404.947 336.567 405.027L336.858 403.048ZM346.25 406.498C346.795 406.584 347.307 406.211 347.393 405.665C347.478 405.12 347.106 404.608 346.56 404.522L346.25 406.498ZM356.355 406.113C355.81 406.022 355.295 406.389 355.203 406.934C355.112 407.479 355.48 407.994 356.024 408.085L356.355 406.113ZM365.716 409.759C366.259 409.856 366.779 409.494 366.875 408.95C366.972 408.406 366.61 407.887 366.066 407.79L365.716 409.759ZM375.769 409.564C375.226 409.462 374.704 409.82 374.602 410.362C374.5 410.905 374.857 411.428 375.4 411.53L375.769 409.564ZM385.093 413.397C385.635 413.504 386.161 413.152 386.268 412.61C386.375 412.068 386.023 411.542 385.481 411.435L385.093 413.397ZM395.101 413.381C394.56 413.269 394.031 413.616 393.919 414.157C393.807 414.698 394.155 415.227 394.696 415.339L395.101 413.381ZM404.386 417.389C404.926 417.506 405.458 417.163 405.575 416.623C405.691 416.083 405.348 415.551 404.808 415.434L404.386 417.389ZM414.424 417.555C413.885 417.434 413.35 417.772 413.228 418.311C413.107 418.85 413.446 419.385 413.985 419.506L414.424 417.555ZM423.597 421.71C424.135 421.835 424.673 421.501 424.798 420.963C424.924 420.425 424.59 419.888 424.052 419.762L423.597 421.71ZM433.659 422.044C433.122 421.914 432.582 422.245 432.452 422.781C432.322 423.318 432.652 423.859 433.189 423.988L433.659 422.044ZM442.732 426.331C443.268 426.465 443.811 426.138 443.945 425.603C444.078 425.067 443.752 424.524 443.216 424.39L442.732 426.331ZM452.813 426.818C452.278 426.681 451.733 427.003 451.596 427.538C451.458 428.073 451.781 428.618 452.316 428.756L452.813 426.818ZM461.811 431.225C462.345 431.366 462.892 431.047 463.033 430.513C463.173 429.979 462.854 429.432 462.32 429.291L461.811 431.225ZM471.892 431.844C471.359 431.7 470.81 432.016 470.666 432.549C470.522 433.082 470.838 433.631 471.371 433.775L471.892 431.844ZM480.859 436.364C481.391 436.511 481.942 436.198 482.089 435.665C482.235 435.133 481.923 434.582 481.39 434.436L480.859 436.364ZM490.907 437.085C490.375 436.936 489.823 437.246 489.673 437.777C489.524 438.309 489.834 438.861 490.365 439.011L490.907 437.085ZM499.847 441.698C500.378 441.85 500.931 441.543 501.083 441.012C501.235 440.481 500.927 439.927 500.396 439.775L499.847 441.698ZM509.866 442.502C509.336 442.348 508.781 442.653 508.627 443.184C508.473 443.714 508.779 444.269 509.309 444.422L509.866 442.502ZM518.788 447.187C519.318 447.343 519.873 447.039 520.029 446.509C520.184 445.979 519.881 445.424 519.351 445.268L518.788 447.187ZM528.784 448.049C528.254 447.892 527.698 448.194 527.541 448.724C527.384 449.254 527.686 449.81 528.216 449.967L528.784 448.049ZM537.695 452.785C538.225 452.942 538.782 452.641 538.939 452.112C539.097 451.583 538.796 451.026 538.267 450.868L537.695 452.785ZM547.674 453.68C547.145 453.522 546.587 453.822 546.429 454.351C546.27 454.88 546.571 455.437 547.1 455.596L547.674 453.68ZM556.586 458.44C557.115 458.599 557.673 458.299 557.831 457.77C557.99 457.241 557.69 456.683 557.161 456.525L556.586 458.44ZM566.57 459.346C566.041 459.188 565.483 459.488 565.325 460.017C565.166 460.546 565.466 461.104 565.995 461.262L566.57 459.346ZM575.478 464.099C576.007 464.257 576.564 463.956 576.722 463.426C576.88 462.897 576.579 462.34 576.05 462.182L575.478 464.099ZM585.471 464.984C584.942 464.827 584.385 465.129 584.229 465.659C584.072 466.188 584.374 466.745 584.903 466.902L585.471 464.984ZM594.391 469.698C594.921 469.854 595.476 469.55 595.632 469.02C595.787 468.49 595.483 467.934 594.953 467.779L594.391 469.698ZM604.394 470.527C603.864 470.374 603.309 470.68 603.156 471.21C603.003 471.741 603.309 472.295 603.839 472.449L604.394 470.527ZM613.345 475.171C613.876 475.322 614.429 475.014 614.58 474.482C614.73 473.951 614.422 473.398 613.89 473.247L613.345 475.171ZM623.358 475.904C622.826 475.757 622.275 476.068 622.127 476.601C621.98 477.133 622.291 477.684 622.824 477.832L623.358 475.904ZM632.36 480.442C632.894 480.586 633.443 480.27 633.586 479.737C633.73 479.204 633.415 478.655 632.881 478.511L632.36 480.442ZM642.383 481.035C641.849 480.895 641.302 481.215 641.163 481.75C641.023 482.284 641.343 482.831 641.878 482.97L642.383 481.035ZM651.458 485.426C651.994 485.56 652.537 485.235 652.672 484.7C652.807 484.164 652.481 483.621 651.946 483.486L651.458 485.426ZM661.488 485.831C660.951 485.702 660.411 486.033 660.282 486.57C660.153 487.107 660.484 487.647 661.021 487.776L661.488 485.831ZM670.657 490.029C671.195 490.151 671.731 489.814 671.854 489.275C671.976 488.737 671.639 488.201 671.1 488.079L670.657 490.029ZM680.688 490.193C680.148 490.078 679.617 490.422 679.501 490.962C679.386 491.503 679.73 492.034 680.27 492.149L680.688 490.193ZM689.97 494.147C690.511 494.254 691.038 493.902 691.145 493.36C691.252 492.818 690.9 492.292 690.358 492.185L689.97 494.147ZM699.995 494.015C699.452 493.916 698.931 494.277 698.833 494.82C698.734 495.363 699.095 495.884 699.638 495.982L699.995 494.015ZM709.405 497.666C709.95 497.754 710.464 497.385 710.552 496.84C710.641 496.294 710.271 495.78 709.726 495.692L709.405 497.666ZM719.431 497.179C718.884 497.101 718.377 497.481 718.299 498.027C718.221 498.574 718.6 499.081 719.147 499.159L719.431 497.179ZM728.96 500.462C729.508 500.529 730.007 500.139 730.074 499.591C730.141 499.043 729.751 498.544 729.202 498.477L728.96 500.462ZM738.968 499.559C738.419 499.504 737.929 499.906 737.874 500.455C737.82 501.005 738.221 501.495 738.771 501.549L738.968 499.559ZM748.623 502.409C749.173 502.45 749.653 502.037 749.695 501.486C749.736 500.936 749.323 500.456 748.772 500.414L748.623 502.409ZM758.583 501.025C758.032 500.998 757.563 501.423 757.535 501.974C757.508 502.526 757.934 502.995 758.485 503.022L758.583 501.025ZM768.363 503.375C768.915 503.387 769.373 502.949 769.385 502.397C769.397 501.845 768.959 501.388 768.407 501.375L768.363 503.375ZM778.237 501.452C777.685 501.455 777.24 501.906 777.244 502.458C777.248 503.011 777.698 503.455 778.25 503.452L778.237 501.452ZM788.135 503.238C788.687 503.218 789.118 502.754 789.098 502.202C789.078 501.65 788.614 501.219 788.062 501.24L788.135 503.238ZM797.873 500.727C797.322 500.765 796.905 501.242 796.943 501.793C796.98 502.344 797.457 502.76 798.008 502.723L797.873 500.727ZM807.869 501.893C808.419 501.838 808.82 501.347 808.764 500.798C808.709 500.248 808.219 499.848 807.669 499.903L807.869 501.893ZM817.418 498.76C816.87 498.833 816.486 499.337 816.56 499.884C816.633 500.432 817.136 500.816 817.684 500.742L817.418 498.76ZM827.468 499.262C828.013 499.17 828.38 498.654 828.288 498.109C828.196 497.565 827.68 497.198 827.136 497.29L827.468 499.262ZM836.788 495.491C836.247 495.601 835.897 496.129 836.008 496.671C836.118 497.212 836.647 497.561 837.188 497.45L836.788 495.491ZM846.841 495.305C847.378 495.176 847.708 494.636 847.579 494.099C847.45 493.562 846.91 493.232 846.373 493.361L846.841 495.305ZM855.891 490.898C855.359 491.046 855.047 491.597 855.194 492.129C855.342 492.661 855.893 492.973 856.425 492.825L855.891 490.898ZM865.893 490.025C866.42 489.859 866.713 489.298 866.547 488.771C866.381 488.244 865.82 487.951 865.293 488.117L865.893 490.025ZM874.638 485.002C874.117 485.186 873.844 485.757 874.027 486.278C874.211 486.798 874.782 487.072 875.303 486.888L874.638 485.002ZM884.541 483.461C885.056 483.26 885.31 482.68 885.11 482.166C884.909 481.651 884.329 481.397 883.815 481.597L884.541 483.461ZM892.95 477.861C892.442 478.079 892.207 478.667 892.424 479.174C892.642 479.682 893.229 479.917 893.737 479.7L892.95 477.861ZM902.718 475.687C903.218 475.454 903.435 474.859 903.202 474.358C902.969 473.858 902.374 473.641 901.873 473.874L902.718 475.687ZM910.764 469.564C910.271 469.813 910.073 470.414 910.321 470.907C910.57 471.4 911.171 471.599 911.664 471.35L910.764 469.564ZM920.375 466.8C920.861 466.537 921.042 465.93 920.779 465.444C920.516 464.959 919.909 464.778 919.424 465.041L920.375 466.8ZM928.042 460.216C927.564 460.493 927.401 461.105 927.677 461.583C927.954 462.061 928.565 462.224 929.044 461.947L928.042 460.216ZM937.492 456.905C937.963 456.616 938.109 456 937.82 455.529C937.531 455.059 936.915 454.912 936.444 455.201L937.492 456.905ZM944.768 449.929C944.305 450.231 944.174 450.85 944.476 451.313C944.777 451.775 945.397 451.906 945.86 451.605L944.768 449.929ZM954.328 445.907C954.781 445.591 954.892 444.967 954.575 444.515C954.259 444.062 953.635 443.951 953.183 444.268L954.328 445.907ZM961.384 438.292C960.944 438.626 960.858 439.253 961.193 439.693C961.526 440.133 962.154 440.218 962.594 439.884L961.384 438.292ZM970.583 433.562C971.009 433.211 971.07 432.581 970.718 432.155C970.367 431.728 969.737 431.668 969.311 432.019L970.583 433.562ZM977.017 425.4C976.605 425.768 976.57 426.4 976.938 426.812C977.307 427.223 977.939 427.258 978.35 426.89L977.017 425.4ZM985.8 419.944C986.197 419.56 986.206 418.926 985.821 418.53C985.436 418.134 984.803 418.125 984.407 418.509L985.8 419.944ZM991.549 411.284C991.169 411.685 991.185 412.318 991.586 412.698C991.987 413.078 992.62 413.062 993 412.661L991.549 411.284ZM999.862 405.127C1000.23 404.711 1000.18 404.079 999.767 403.716C999.351 403.352 998.72 403.395 998.356 403.81L999.862 405.127ZM1004.88 396.032C1004.54 396.462 1004.6 397.091 1005.03 397.438C1005.46 397.784 1006.09 397.716 1006.44 397.286L1004.88 396.032ZM1012.68 389.215C1013 388.772 1012.91 388.145 1012.47 387.817C1012.02 387.488 1011.4 387.581 1011.07 388.024L1012.68 389.215ZM1016.95 379.753C1016.64 380.21 1016.76 380.832 1017.21 381.143C1017.67 381.454 1018.29 381.336 1018.6 380.88L1016.95 379.753ZM1024.18 372.338C1024.48 371.87 1024.34 371.253 1023.87 370.96C1023.4 370.667 1022.78 370.808 1022.49 371.276L1024.18 372.338ZM1027.71 362.579C1027.44 363.058 1027.6 363.669 1028.08 363.945C1028.56 364.22 1029.17 364.055 1029.45 363.576L1027.71 362.579ZM1034.37 354.634C1034.63 354.145 1034.44 353.541 1033.95 353.283C1033.46 353.025 1032.86 353.213 1032.6 353.701L1034.37 354.634ZM1037.17 344.646C1036.93 345.143 1037.14 345.741 1037.64 345.981C1038.13 346.221 1038.73 346.012 1038.97 345.514L1037.17 344.646ZM1043.25 336.241C1043.47 335.736 1043.24 335.146 1042.73 334.923C1042.23 334.701 1041.64 334.93 1041.42 335.435L1043.25 336.241ZM1045.35 326.086C1045.14 326.598 1045.39 327.181 1045.9 327.386C1046.42 327.592 1047 327.343 1047.2 326.83L1045.35 326.086ZM1050.85 317.292C1051.04 316.773 1050.77 316.199 1050.25 316.01C1049.73 315.821 1049.16 316.088 1048.97 316.607L1050.85 317.292ZM1052.29 307.023C1052.12 307.548 1052.4 308.113 1052.93 308.286C1053.45 308.459 1054.02 308.174 1054.19 307.649L1052.29 307.023ZM1057.24 297.902C1057.4 297.373 1057.09 296.816 1056.56 296.659C1056.03 296.502 1055.48 296.804 1055.32 297.333L1057.24 297.902ZM1058.06 287.569C1057.92 288.103 1058.24 288.65 1058.77 288.792C1059.31 288.934 1059.86 288.616 1060 288.082L1058.06 287.569ZM1062.48 278.175C1062.61 277.637 1062.28 277.099 1061.74 276.972C1061.2 276.845 1060.66 277.177 1060.54 277.715L1062.48 278.175ZM1062.74 267.817C1062.62 268.357 1062.97 268.887 1063.51 269C1064.05 269.113 1064.58 268.766 1064.69 268.225L1062.74 267.817ZM1066.65 258.196C1066.75 257.653 1066.39 257.132 1065.85 257.033C1065.31 256.934 1064.79 257.294 1064.69 257.838L1066.65 258.196ZM1066.38 247.84C1066.3 248.385 1066.67 248.897 1067.22 248.983C1067.76 249.069 1068.27 248.696 1068.36 248.151L1066.38 247.84ZM1069.83 238.039C1069.9 237.492 1069.52 236.989 1068.97 236.916C1068.42 236.842 1067.92 237.227 1067.85 237.774L1069.83 238.039ZM1069.07 227.702C1069.01 228.251 1069.41 228.746 1069.96 228.806C1070.51 228.867 1071 228.471 1071.06 227.922L1069.07 227.702ZM1072.07 217.762C1072.12 217.212 1071.72 216.726 1071.17 216.677C1070.62 216.628 1070.13 217.035 1070.08 217.585L1072.07 217.762ZM1070.88 207.459C1070.84 208.01 1071.25 208.487 1071.81 208.525C1072.36 208.562 1072.83 208.146 1072.87 207.595L1070.88 207.459ZM1073.46 197.415C1073.49 196.863 1073.06 196.395 1072.51 196.368C1071.96 196.342 1071.49 196.768 1071.46 197.319L1073.46 197.415ZM1071.85 187.154C1071.84 187.706 1072.27 188.167 1072.82 188.182C1073.37 188.198 1073.84 187.764 1073.85 187.211L1071.85 187.154ZM1074.05 177.042C1074.05 176.49 1073.61 176.037 1073.06 176.032C1072.51 176.026 1072.05 176.469 1072.05 177.021L1074.05 177.042ZM1072.06 166.825C1072.06 167.377 1072.52 167.821 1073.07 167.817C1073.62 167.812 1074.06 167.361 1074.06 166.809L1072.06 166.825ZM1073.89 156.655C1073.88 156.103 1073.42 155.667 1072.87 155.681C1072.31 155.695 1071.88 156.153 1071.89 156.706L1073.89 156.655ZM1071.55 146.507C1071.57 147.059 1072.04 147.487 1072.59 147.464C1073.14 147.441 1073.57 146.975 1073.55 146.423L1071.55 146.507ZM1073.04 136.246C1073 135.695 1072.53 135.274 1071.98 135.306C1071.43 135.338 1071.01 135.811 1071.04 136.363L1073.04 136.246ZM1070.37 126.242C1070.41 126.793 1070.89 127.206 1071.44 127.165C1071.99 127.124 1072.4 126.644 1072.36 126.094L1070.37 126.242ZM1071.52 115.887C1071.47 115.337 1070.99 114.932 1070.44 114.981C1069.89 115.031 1069.48 115.517 1069.53 116.067L1071.52 115.887ZM1068.55 105.995C1068.6 106.544 1069.1 106.942 1069.65 106.885C1070.2 106.827 1070.59 106.335 1070.54 105.785L1068.55 105.995ZM1069.39 95.6367C1069.32 95.0884 1068.83 94.6974 1068.28 94.7635C1067.73 94.8295 1067.34 95.3275 1067.4 95.8759L1069.39 95.6367ZM1066.11 85.7528C1066.18 86.3001 1066.69 86.6837 1067.23 86.6095C1067.78 86.5354 1068.17 86.0317 1068.09 85.4844L1066.11 85.7528ZM1066.65 75.4276C1066.57 74.8815 1066.06 74.5052 1065.52 74.5873C1064.97 74.6693 1064.59 75.1786 1064.68 75.7248L1066.65 75.4276ZM1063.1 65.7342C1063.19 66.2791 1063.71 66.6479 1064.25 66.558C1064.8 66.4681 1065.17 65.9534 1065.08 65.4085L1063.1 65.7342ZM1063.33 55.2921C1063.23 54.7485 1062.71 54.3873 1062.17 54.4852C1061.62 54.5831 1061.26 55.1031 1061.36 55.6467L1063.33 55.2921ZM1059.48 45.6224C1059.58 46.1644 1060.11 46.5179 1060.65 46.4119C1061.19 46.306 1061.55 45.7807 1061.44 45.2386L1059.48 45.6224ZM1059.41 35.2339C1059.29 34.6935 1058.76 34.3481 1058.22 34.4624C1057.68 34.5766 1057.34 35.1072 1057.45 35.6476L1059.41 35.2339ZM1055.27 25.7178C1055.39 26.2562 1055.93 26.593 1056.46 26.47C1057 26.347 1057.34 25.8109 1057.22 25.2725L1055.27 25.7178ZM1054.88 15.433C1054.75 14.8969 1054.2 14.5697 1053.67 14.7023C1053.13 14.8349 1052.81 15.377 1052.94 15.9131L1054.88 15.433ZM1050.37 5.98981C1050.51 6.5227 1051.06 6.83708 1051.6 6.692C1052.13 6.54691 1052.44 5.99731 1052.3 5.46442L1050.37 5.98981ZM9.40153 525.282C10.6366 522.654 12.1095 519.71 13.8478 516.512L12.0907 515.557C10.3329 518.791 8.84231 521.769 7.59145 524.431L9.40153 525.282ZM18.7816 507.994C20.4111 505.344 22.1985 502.584 24.1549 499.738L22.5068 498.605C20.5305 501.48 18.7247 504.269 17.078 506.946L18.7816 507.994ZM29.9007 491.806C31.8174 489.292 33.8616 486.733 36.0398 484.144L34.5094 482.856C32.31 485.47 30.2458 488.054 28.3102 490.594L29.9007 491.806ZM42.543 476.777C44.712 474.434 46.9922 472.079 49.3884 469.722L47.9859 468.297C45.5671 470.676 43.2652 473.053 41.0754 475.418L42.543 476.777ZM56.5575 462.99C58.9486 460.846 61.4398 458.709 64.0349 456.587L62.7689 455.039C60.15 457.18 57.6357 459.337 55.2224 461.501L56.5575 462.99ZM71.807 450.518C74.3781 448.601 77.0399 446.704 79.795 444.832L78.671 443.178C75.8915 445.066 73.206 446.981 70.6117 448.915L71.807 450.518ZM88.0174 439.499C90.7546 437.806 93.5752 436.14 96.4815 434.506L95.5015 432.763C92.5707 434.41 89.726 436.091 86.9652 437.799L88.0174 439.499ZM105.183 429.848C108.054 428.386 111.003 426.955 114.03 425.562L113.194 423.745C110.143 425.15 107.17 426.592 104.275 428.066L105.183 429.848ZM123.002 421.638C125.991 420.398 129.051 419.194 132.184 418.029L131.487 416.154C128.331 417.328 125.248 418.541 122.236 419.79L123.002 421.638ZM141.476 414.763C144.526 413.751 147.641 412.777 150.821 411.842L150.257 409.923C147.055 410.865 143.919 411.846 140.847 412.864L141.476 414.763ZM160.375 409.207C163.484 408.405 166.652 407.64 169.88 406.915L169.442 404.964C166.194 405.694 163.005 406.463 159.876 407.271L160.375 409.207ZM179.532 404.903C182.71 404.291 185.942 403.716 189.231 403.181L188.91 401.207C185.602 401.745 182.35 402.323 179.153 402.939L179.532 404.903ZM198.941 401.742C202.164 401.31 205.439 400.915 208.765 400.56L208.552 398.572C205.208 398.929 201.916 399.325 198.675 399.76L198.941 401.742ZM218.512 399.645C221.759 399.382 225.054 399.155 228.397 398.966L228.284 396.97C224.925 397.159 221.614 397.387 218.35 397.652L218.512 399.645ZM238.177 398.53C241.43 398.422 244.726 398.35 248.066 398.314L248.045 396.315C244.69 396.35 241.379 396.423 238.11 396.531L238.177 398.53ZM257.889 398.316C261.132 398.351 264.414 398.42 267.736 398.523L267.799 396.524C264.463 396.42 261.167 396.351 257.911 396.316L257.889 398.316ZM277.624 398.93C280.842 399.094 284.097 399.291 287.388 399.52L287.527 397.525C284.223 397.295 280.956 397.098 277.726 396.933L277.624 398.93ZM297.373 400.308C300.555 400.589 303.771 400.899 307.02 401.241L307.23 399.252C303.969 398.909 300.742 398.597 297.548 398.316L297.373 400.308ZM316.87 402.36C318.528 402.563 320.195 402.773 321.871 402.992L322.129 401.008C320.448 400.789 318.776 400.578 317.112 400.375L316.87 402.36ZM321.871 402.992C323.515 403.206 325.156 403.424 326.793 403.647L327.062 401.665C325.422 401.442 323.778 401.223 322.129 401.008L321.871 402.992ZM336.567 405.027C339.81 405.503 343.037 405.993 346.25 406.498L346.56 404.522C343.341 404.016 340.107 403.525 336.858 403.048L336.567 405.027ZM356.024 408.085C359.27 408.629 362.5 409.188 365.716 409.759L366.066 407.79C362.844 407.217 359.607 406.658 356.355 406.113L356.024 408.085ZM375.4 411.53C378.646 412.139 381.877 412.762 385.093 413.397L385.481 411.435C382.259 410.799 379.022 410.175 375.769 409.564L375.4 411.53ZM394.696 415.339C397.941 416.011 401.171 416.694 404.386 417.389L404.808 415.434C401.588 414.738 398.353 414.053 395.101 413.381L394.696 415.339ZM413.985 419.506C417.204 420.23 420.408 420.965 423.597 421.71L424.052 419.762C420.858 419.016 417.648 418.28 414.424 417.555L413.985 419.506ZM433.189 423.988C436.385 424.76 439.566 425.542 442.732 426.331L443.216 424.39C440.045 423.6 436.86 422.817 433.659 422.044L433.189 423.988ZM452.316 428.756C455.495 429.572 458.66 430.395 461.811 431.225L462.32 429.291C459.166 428.46 455.997 427.635 452.813 426.818L452.316 428.756ZM471.371 433.775C474.548 434.632 477.711 435.496 480.859 436.364L481.39 434.436C478.239 433.567 475.073 432.703 471.892 431.844L471.371 433.775ZM490.365 439.011C493.54 439.903 496.7 440.799 499.847 441.698L500.396 439.775C497.247 438.875 494.084 437.978 490.907 437.085L490.365 439.011ZM509.309 444.422C512.483 445.342 515.642 446.264 518.788 447.187L519.351 445.268C516.203 444.345 513.042 443.422 509.866 442.502L509.309 444.422ZM528.216 449.967C531.389 450.907 534.549 451.846 537.695 452.785L538.267 450.868C535.119 449.929 531.958 448.989 528.784 448.049L528.216 449.967ZM547.1 455.596C550.275 456.547 553.437 457.495 556.586 458.44L557.161 456.525C554.012 455.58 550.849 454.631 547.674 453.68L547.1 455.596ZM565.995 461.262C569.169 462.213 572.33 463.159 575.478 464.099L576.05 462.182C572.903 461.243 569.743 460.297 566.57 459.346L565.995 461.262ZM584.903 466.902C588.078 467.842 591.24 468.775 594.391 469.698L594.953 467.779C591.805 466.856 588.644 465.924 585.471 464.984L584.903 466.902ZM603.839 472.449C607.019 473.368 610.187 474.276 613.345 475.171L613.89 473.247C610.737 472.353 607.572 471.445 604.394 470.527L603.839 472.449ZM622.824 477.832C626.013 478.716 629.192 479.587 632.36 480.442L632.881 478.511C629.718 477.657 626.544 476.788 623.358 475.904L622.824 477.832ZM641.878 482.97C645.081 483.807 648.275 484.626 651.458 485.426L651.946 483.486C648.769 482.688 645.581 481.87 642.383 481.035L641.878 482.97ZM661.021 487.776C664.242 488.549 667.454 489.3 670.657 490.029L671.1 488.079C667.906 487.352 664.702 486.602 661.488 485.831L661.021 487.776ZM680.27 492.149C683.512 492.841 686.745 493.508 689.97 494.147L690.358 492.185C687.143 491.548 683.92 490.884 680.688 490.193L680.27 492.149ZM699.638 495.982C702.901 496.574 706.156 497.136 709.405 497.666L709.726 495.692C706.49 495.164 703.247 494.604 699.995 494.015L699.638 495.982ZM719.147 499.159C722.424 499.629 725.695 500.064 728.96 500.462L729.202 498.477C725.952 498.081 722.695 497.647 719.431 497.179L719.147 499.159ZM738.771 501.549C742.06 501.876 745.343 502.163 748.623 502.409L748.772 500.414C745.509 500.17 742.242 499.884 738.968 499.559L738.771 501.549ZM758.485 503.022C761.781 503.185 765.074 503.303 768.363 503.375L768.407 501.375C765.136 501.304 761.862 501.186 758.583 501.025L758.485 503.022ZM778.25 503.452C781.548 503.43 784.842 503.359 788.135 503.238L788.062 501.24C784.79 501.36 781.515 501.43 778.237 501.452L778.25 503.452ZM798.008 502.723C801.296 502.499 804.583 502.223 807.869 501.893L807.669 499.903C804.405 500.231 801.14 500.505 797.873 500.727L798.008 502.723ZM817.684 500.742C820.945 500.305 824.206 499.812 827.468 499.262L827.136 497.29C823.896 497.836 820.657 498.326 817.418 498.76L817.684 500.742ZM837.188 497.45C840.404 496.794 843.621 496.079 846.841 495.305L846.373 493.361C843.176 494.129 839.981 494.839 836.788 495.491L837.188 497.45ZM856.425 492.825C859.578 491.951 862.734 491.018 865.893 490.025L865.293 488.117C862.156 489.103 859.022 490.03 855.891 490.898L856.425 492.825ZM875.303 486.888C878.378 485.805 881.458 484.663 884.541 483.461L883.815 481.597C880.752 482.792 877.693 483.926 874.638 485.002L875.303 486.888ZM893.737 479.7C896.726 478.421 899.719 477.083 902.718 475.687L901.873 473.874C898.894 475.262 895.92 476.59 892.95 477.861L893.737 479.7ZM911.664 471.35C914.563 469.89 917.466 468.374 920.375 466.8L919.424 465.041C916.531 466.606 913.645 468.113 910.764 469.564L911.664 471.35ZM929.044 461.947C931.854 460.322 934.67 458.641 937.492 456.905L936.444 455.201C933.637 456.928 930.837 458.599 928.042 460.216L929.044 461.947ZM945.86 451.605C947.257 450.694 948.656 449.769 950.057 448.831L948.943 447.169C947.55 448.103 946.158 449.023 944.768 449.929L945.86 451.605ZM950.057 448.831C951.496 447.866 952.92 446.892 954.328 445.907L953.183 444.268C951.785 445.245 950.372 446.212 948.943 447.169L950.057 448.831ZM962.594 439.884C965.319 437.815 967.981 435.707 970.583 433.562L969.311 432.019C966.73 434.147 964.088 436.238 961.384 438.292L962.594 439.884ZM978.35 426.89C980.896 424.611 983.379 422.295 985.8 419.944L984.407 418.509C982.005 420.842 979.542 423.139 977.017 425.4L978.35 426.89ZM993 412.661C995.35 410.184 997.637 407.672 999.862 405.127L998.356 403.81C996.149 406.335 993.88 408.827 991.549 411.284L993 412.661ZM1006.44 397.286C1008.58 394.627 1010.66 391.936 1012.68 389.215L1011.07 388.024C1009.07 390.724 1007.01 393.394 1004.88 396.032L1006.44 397.286ZM1018.6 380.88C1020.52 378.061 1022.38 375.213 1024.18 372.338L1022.49 371.276C1020.7 374.13 1018.86 376.956 1016.95 379.753L1018.6 380.88ZM1029.45 363.576C1031.15 360.62 1032.79 357.639 1034.37 354.634L1032.6 353.701C1031.03 356.685 1029.4 359.645 1027.71 362.579L1029.45 363.576ZM1038.97 345.514C1040.45 342.444 1041.88 339.352 1043.25 336.241L1041.42 335.435C1040.05 338.525 1038.64 341.596 1037.17 344.646L1038.97 345.514ZM1047.2 326.83C1048.47 323.667 1049.69 320.487 1050.85 317.292L1048.97 316.607C1047.81 319.783 1046.61 322.943 1045.35 326.086L1047.2 326.83ZM1054.19 307.649C1055.26 304.412 1056.27 301.162 1057.24 297.902L1055.32 297.333C1054.36 300.575 1053.35 303.806 1052.29 307.023L1054.19 307.649ZM1060 288.082C1060.87 284.787 1061.7 281.484 1062.48 278.175L1060.54 277.715C1059.76 281.006 1058.93 284.292 1058.06 287.569L1060 288.082ZM1064.69 268.225C1065.39 264.885 1066.04 261.541 1066.65 258.196L1064.69 257.838C1064.08 261.166 1063.43 264.494 1062.74 267.817L1064.69 268.225ZM1068.36 248.151C1068.89 244.778 1069.38 241.407 1069.83 238.039L1067.85 237.774C1067.4 241.127 1066.91 244.483 1066.38 247.84L1068.36 248.151ZM1071.06 227.922C1071.44 224.529 1071.77 221.141 1072.07 217.762L1070.08 217.585C1069.78 220.95 1069.45 224.323 1069.07 227.702L1071.06 227.922ZM1072.87 207.595C1073.1 204.189 1073.3 200.795 1073.46 197.415L1071.46 197.319C1071.3 200.686 1071.11 204.067 1070.88 207.459L1072.87 207.595ZM1073.85 187.211C1073.95 183.803 1074.01 180.413 1074.05 177.042L1072.05 177.021C1072.01 180.38 1071.95 183.759 1071.85 187.154L1073.85 187.211ZM1074.06 166.809C1074.03 163.399 1073.98 160.014 1073.89 156.655L1071.89 156.706C1071.98 160.053 1072.03 163.427 1072.06 166.825L1074.06 166.809ZM1073.55 146.423C1073.4 142.997 1073.23 139.604 1073.04 136.246L1071.04 136.363C1071.24 139.71 1071.41 143.093 1071.55 146.507L1073.55 146.423ZM1072.36 126.094C1072.11 122.648 1071.83 119.244 1071.52 115.887L1069.53 116.067C1069.83 119.414 1070.11 122.806 1070.37 126.242L1072.36 126.094ZM1070.54 105.785C1070.17 102.345 1069.79 98.9604 1069.39 95.6367L1067.4 95.8759C1067.8 99.1899 1068.19 102.564 1068.55 105.995L1070.54 105.785ZM1068.09 85.4844C1067.63 82.0549 1067.15 78.7008 1066.65 75.4276L1064.68 75.7248C1065.17 78.9886 1065.65 82.3332 1066.11 85.7528L1068.09 85.4844ZM1065.08 65.4085C1064.5 61.924 1063.92 58.5492 1063.33 55.2921L1061.36 55.6467C1061.95 58.8944 1062.53 62.2596 1063.1 65.7342L1065.08 65.4085ZM1061.44 45.2386C1060.75 41.7262 1060.07 38.387 1059.41 35.2339L1057.45 35.6476C1058.11 38.7911 1058.79 42.1202 1059.48 45.6224L1061.44 45.2386ZM1057.22 25.2725C1056.38 21.62 1055.6 18.3299 1054.88 15.433L1052.94 15.9131C1053.65 18.7989 1054.44 22.0774 1055.27 25.7178L1057.22 25.2725ZM1052.3 5.46442C1051.88 3.91538 1051.54 2.72925 1051.31 1.92941C1051.2 1.52949 1051.11 1.22614 1051.05 1.02228C1051.02 0.920354 1051 0.843296 1050.98 0.791477C1050.97 0.765567 1050.97 0.745967 1050.96 0.732722C1050.96 0.726099 1050.96 0.721065 1050.96 0.717626C1050.96 0.715906 1050.96 0.714585 1050.96 0.713663C1050.96 0.713203 1050.96 0.712841 1050.96 0.71258C1050.96 0.71245 1050.96 0.712344 1050.96 0.712264C1050.96 0.712223 1050.96 0.712182 1050.96 0.712161C1050.96 0.712126 1050.96 0.712097 1050 1C1049.04 1.2879 1049.04 1.28789 1049.04 1.28788C1049.04 1.28788 1049.04 1.28788 1049.04 1.28789C1049.04 1.28791 1049.04 1.28795 1049.04 1.28802C1049.04 1.28816 1049.04 1.2884 1049.04 1.28873C1049.04 1.28941 1049.04 1.29049 1049.04 1.29196C1049.04 1.29491 1049.05 1.29945 1049.05 1.30558C1049.05 1.31784 1049.06 1.33644 1049.06 1.36136C1049.08 1.41119 1049.1 1.48623 1049.13 1.58614C1049.19 1.78594 1049.28 2.08517 1049.39 2.48089C1049.62 3.27234 1049.95 4.44977 1050.37 5.98981L1052.3 5.46442Z" fill="url(#paint0_linear_1194_9705)"/>
<defs>
<linearGradient id="paint0_linear_1194_9705" x1="532.198" y1="1" x2="532.198" y2="498.119" gradientUnits="userSpaceOnUse">
<stop offset="0.404263" stop-color="#CA67FC" stop-opacity="0"/>
<stop offset="1" stop-color="#783D96"/>
</linearGradient>
</defs>
</svg>
