<svg id="Layer_1" data-name="Layer 1" xmlns="http://www.w3.org/2000/svg" viewBox="0 0 200 81"><defs><style>.cls-1{fill:#6d6d6d;}</style></defs><path class="cls-1" d="M64.61,39.34a3.86,3.86,0,0,0-3.91-3.86,4,4,0,0,0-4.09,3.86ZM60.78,46.1A3.78,3.78,0,0,0,64.55,44h3.34a6.94,6.94,0,0,1-7,5c-5,0-7.77-3.78-7.77-8.18,0-4.64,3.17-7.93,7.54-7.93,4.72,0,7.66,3.83,7.38,9H56.61a4.25,4.25,0,0,0,4.17,4.27"/><path class="cls-1" d="M78.26,32.81c3.71,0,5.23,2.41,5.23,6.07v9.68h-3.4V39.71c0-2.09-.32-4.12-2.92-4.12s-3.57,2-3.57,4.78v8.19H70.2V33.16h3.4V35.3a5,5,0,0,1,4.66-2.49"/><path class="cls-1" d="M90.25,29.09v4.07h3.09v2.46H90.25V44c0,1.57.38,1.94,1.83,1.94h1.23v2.61H90.8c-3.29,0-4-.89-4-4V35.61H84.57V33.16h2.28V29.09Z"/><path class="cls-1" d="M105.37,39.34a3.86,3.86,0,0,0-3.91-3.86,4,4,0,0,0-4.09,3.86Zm-3.83,6.76A3.78,3.78,0,0,0,105.31,44h3.34a6.94,6.94,0,0,1-7,5c-5,0-7.77-3.78-7.77-8.18,0-4.64,3.17-7.93,7.54-7.93,4.71,0,7.66,3.83,7.37,9H97.36a4.26,4.26,0,0,0,4.18,4.27"/><path class="cls-1" d="M117.73,36.54c-2.14,0-3.37.86-3.37,4v8.07H111V33.16h3.34v2.75a4.6,4.6,0,0,1,4.17-2.78,8.87,8.87,0,0,1,.89.06v3.43c-.57,0-1.12-.08-1.63-.08"/><path class="cls-1" d="M131.85,40.86c0-3.24-1.43-5.27-3.79-5.27s-4,1.72-4,5.27,1.74,5.3,4,5.3S131.85,44.12,131.85,40.86Zm-7.63-5.64a5.1,5.1,0,0,1,4.57-2.41c3.75,0,6.6,3.13,6.6,8s-2.85,8.07-6.6,8.07a5.09,5.09,0,0,1-4.57-2.4v7h-3.4V33.16h3.4Z"/><path class="cls-1" d="M144.37,36.54c-2.14,0-3.37.86-3.37,4v8.07h-3.4V33.16h3.34v2.75a4.61,4.61,0,0,1,4.18-2.78,8.67,8.67,0,0,1,.88.06v3.43c-.57,0-1.11-.08-1.63-.08"/><path class="cls-1" d="M150.87,48.57h-3.4V33.16h3.4Zm0-17.33h-3.4V27.81h3.4Z"/><path class="cls-1" d="M159.39,35.42c-1.48,0-2.86.66-2.86,1.69s.75,1.57,2.06,1.83l2.17.43c3.12.6,5.49,1.57,5.49,4.58,0,3.21-3,5-6.52,5-3.77,0-6.28-2.14-6.65-5.06h3.31c.31,1.57,1.46,2.49,3.46,2.49,1.78,0,3.09-.75,3.09-2s-1.14-1.83-2.66-2.12L158,41.77c-2.6-.51-4.63-1.68-4.63-4.49s2.92-4.47,6.26-4.47c3,0,5.74,1.47,6.37,4.56h-3.2c-.38-1.41-1.66-1.95-3.38-1.95"/><path class="cls-1" d="M178.88,39.34A3.86,3.86,0,0,0,175,35.48a4,4,0,0,0-4.09,3.86Zm-3.83,6.76A3.78,3.78,0,0,0,178.82,44h3.35a7,7,0,0,1-7,5c-4.95,0-7.78-3.78-7.78-8.18,0-4.64,3.18-7.93,7.55-7.93,4.71,0,7.65,3.83,7.37,9H170.88a4.25,4.25,0,0,0,4.17,4.27"/><path class="cls-1" d="M44.65,43.36a16.23,16.23,0,0,0,2-6.29H43.23a13.75,13.75,0,0,1-.8,3.86A10.42,10.42,0,0,1,40.65,44a5.58,5.58,0,0,1-4.17,2.11c-1.93,0-3.26-.83-3.76-2.2H29.06a3.79,3.79,0,0,1-3.78,2.14,4.25,4.25,0,0,1-4.17-4.26H32.58c.29-1.41,1.41-2.46,3.21-3.15,0,0,1.66-.61,3.32-1.31,2.29-1.06,4-3,4-5.35,0-3.41-2.91-4.58-5.55-4.58-3.31,0-5.77,1.75-5.77,4.52A7.52,7.52,0,0,0,34,36.67a9.5,9.5,0,0,0-2,.95,7,7,0,0,0-6.82-4.82c-4.37,0-7.55,3.3-7.55,7.92,0,4.41,2.84,8.19,7.78,8.19a7.19,7.19,0,0,0,5.19-2,7.19,7.19,0,0,0,5.26,2,9.33,9.33,0,0,0,6.7-2.78l2.2,2.4h4.66ZM37.59,30h0a2.07,2.07,0,0,1,2.29,2.11,3.66,3.66,0,0,1-2.51,3.32l0,0c-1-1.09-2-2.35-2-3.55A2,2,0,0,1,37.59,30Zm-12.4,5.46h0a3.87,3.87,0,0,1,3.92,3.86h-8A4,4,0,0,1,25.19,35.47Z"/></svg>