<svg id="Layer_1" data-name="Layer 1" xmlns="http://www.w3.org/2000/svg" viewBox="0 0 234 81"><defs><style>.cls-1{fill:#6d6d6d;}</style></defs><path class="cls-1" d="M27.16,44.62a8.73,8.73,0,0,1-4.65,1.32,8.82,8.82,0,0,1-4.65-1.32.75.75,0,0,0-1,1.12,7.45,7.45,0,0,0,11.26,0A.75.75,0,0,0,27.16,44.62Z"/><path class="cls-1" d="M26.54,25.81a18.06,18.06,0,0,0-2.35-.16v0h-.05a5.64,5.64,0,0,0-1-3A5.75,5.75,0,0,0,18.35,20a5.77,5.77,0,0,0-4.28,1.88h0S4.57,31.05,6.32,45.09a15.38,15.38,0,0,0,.34,2h0A17.79,17.79,0,1,0,26.54,25.81ZM16.4,24.17s1.77-2,3.35-.37c0,0,0,0,0,0,.2.22,1.53,1.81-.76,3.59A8.94,8.94,0,0,0,16.25,31a8.52,8.52,0,0,1,3.17-1.86,12.7,12.7,0,0,1,3.12-.37q.41,0,.81,0a13.71,13.71,0,0,1,1.42.16A12.8,12.8,0,1,1,9.64,41.53V41a25.94,25.94,0,0,1,2.81-11.06c.24-.49.5-.95.77-1.41A26.66,26.66,0,0,1,16.4,24.17Z"/><path class="cls-1" d="M51.66,51.82V30.53H62.11a6.92,6.92,0,0,1,4.76,1.67,5.44,5.44,0,0,1-.2,8.42,5.65,5.65,0,0,1,3,5.12,5.59,5.59,0,0,1-2,4.35,7.26,7.26,0,0,1-5,1.73ZM55.79,34.3V39h6.32a2.36,2.36,0,1,0,0-4.72Zm0,8.46v5.3h6.94a2.65,2.65,0,1,0,0-5.29H55.79Z"/><path class="cls-1" d="M71.8,51.82V30.53h3.86V51.82Z"/><path class="cls-1" d="M78.18,36H82v9a3.64,3.64,0,1,0,7.28,0V36h3.86V51.82H89.32V49.9a5.66,5.66,0,0,1-4.81,2.38A6.16,6.16,0,0,1,80,50.51a6,6,0,0,1-1.79-4.41V36Z"/><path class="cls-1" d="M99.09,45.32a4.78,4.78,0,0,0,4.69,3.47,4.63,4.63,0,0,0,3.76-1.67l3.73,1.06a8.54,8.54,0,0,1-7.5,4.11,8.63,8.63,0,0,1-6.2-2.38A8.54,8.54,0,0,1,97.51,38a8.26,8.26,0,0,1,6-2.4,8.12,8.12,0,0,1,6,2.4,8,8,0,0,1,2.44,6,8.65,8.65,0,0,1-.13,1.4Zm8.88-3a4.69,4.69,0,0,0-4.5-3.31,4.56,4.56,0,0,0-4.35,3.31Z"/><path class="cls-1" d="M123.74,30.53a7.46,7.46,0,0,1,5.3,2,6.34,6.34,0,0,1,2.16,4.89,6.69,6.69,0,0,1-4.11,6.21L132,51.82h-4.6l-4.53-7.51h-5v7.51h-4.14V30.53Zm-5.86,3.77v6.24h5.86a3.12,3.12,0,1,0,0-6.24Z"/><path class="cls-1" d="M136.41,45.32a4.78,4.78,0,0,0,4.69,3.47,4.6,4.6,0,0,0,3.75-1.67l3.73,1.06a8.52,8.52,0,0,1-7.49,4.11,8.63,8.63,0,0,1-6.2-2.38A8.54,8.54,0,0,1,134.83,38a8.24,8.24,0,0,1,6-2.4,8.13,8.13,0,0,1,6,2.4,8,8,0,0,1,2.44,6,8.65,8.65,0,0,1-.13,1.4Zm8.88-3a4.69,4.69,0,0,0-4.5-3.31,4.56,4.56,0,0,0-4.35,3.31Z"/><path class="cls-1" d="M162.87,41.91a4.54,4.54,0,0,0-7.28-1.25,4.75,4.75,0,0,0,0,6.51,4.54,4.54,0,0,0,7.28-1.25L166.72,47a8.73,8.73,0,0,1-14,2.85,8.14,8.14,0,0,1-2.41-6,8,8,0,0,1,2.41-6,8.71,8.71,0,0,1,14,2.83Z"/><path class="cls-1" d="M171.75,45.32a4.78,4.78,0,0,0,4.69,3.47,4.63,4.63,0,0,0,3.76-1.67l3.73,1.06a8.54,8.54,0,0,1-7.5,4.11,8.63,8.63,0,0,1-6.2-2.38A8.54,8.54,0,0,1,170.17,38a8.26,8.26,0,0,1,6-2.4,8.12,8.12,0,0,1,6,2.4,8,8,0,0,1,2.44,6,9.68,9.68,0,0,1-.12,1.4Zm8.89-3a4.69,4.69,0,0,0-4.5-3.31,4.56,4.56,0,0,0-4.35,3.31Z"/><path class="cls-1" d="M185.73,32.17a2.45,2.45,0,1,1,2.44,2.44A2.4,2.4,0,0,1,185.73,32.17Zm.52,19.65V36h3.85V51.82Z"/><path class="cls-1" d="M192.63,58.67V36h3.85v1.25a7.62,7.62,0,0,1,4.84-1.7A7.32,7.32,0,0,1,206.9,38a8.23,8.23,0,0,1,2.26,6,8.31,8.31,0,0,1-2.26,6,7.41,7.41,0,0,1-5.58,2.38,7.6,7.6,0,0,1-4.84-1.7v8.09Zm8.21-19.32a4.06,4.06,0,0,0-3.06,1.31,4.92,4.92,0,0,0,0,6.51,4.23,4.23,0,0,0,6.12,0,4.83,4.83,0,0,0,0-6.51A4.08,4.08,0,0,0,200.84,39.35Z"/><path class="cls-1" d="M209.75,36H212V32.91h3.86V36h4v3.32h-4v7a1.9,1.9,0,0,0,2,1.92h2v3.62H217.5a5.62,5.62,0,0,1-3.89-1.42A4.57,4.57,0,0,1,212,46.85V39.34h-2.28V36Z"/><path class="cls-1" d="M221.88,32.23a3.44,3.44,0,0,1,0-4.91,3.46,3.46,0,0,1,2.5-1,3.41,3.41,0,0,1,2.48,1,3.42,3.42,0,0,1,0,4.91,3.42,3.42,0,0,1-2.48,1A3.47,3.47,0,0,1,221.88,32.23Zm.36-4.57a3,3,0,0,0,0,4.23,3.08,3.08,0,0,0,4.29,0,3,3,0,0,0-2.14-5.11A3,3,0,0,0,222.24,27.66Zm.65,4V27.91h1.76a1.35,1.35,0,0,1,1,.36,1.13,1.13,0,0,1,.4.89,1.23,1.23,0,0,1-.7,1.1l.82,1.36h-.89l-.72-1.22h-.83v1.22Zm.8-3v1h1a.51.51,0,0,0,.53-.52.5.5,0,0,0-.53-.52Z"/></svg>