<svg id="Layer_1" data-name="Layer 1" xmlns="http://www.w3.org/2000/svg" viewBox="0 0 234 81"><defs><style>.cls-1{fill:#6b6b6b;}.cls-2{fill:#6a6a6a;}.cls-3{fill:#616161;}.cls-4{fill:#5d5d5d;}.cls-5{fill:#555;}.cls-6{fill:#646464;}.cls-7{fill:#595959;}.cls-8{fill:#5b5b5b;}.cls-9{fill:#6e6e6e;}.cls-10{fill:#6d6d6d;}.cls-11{fill:#7e7e7e;}.cls-12{fill:#767676;}.cls-13{fill:#797979;}.cls-14{fill:#787878;}.cls-15{fill:#919191;}.cls-16{fill:#8a8a8a;}.cls-17{fill:#939393;}.cls-18{fill:#929292;}.cls-19{fill:#8b8b8b;}.cls-20{fill:#818181;}.cls-21{fill:#7d7d7d;}.cls-22{fill:#848484;}.cls-23{fill:#878787;}.cls-24{fill:#7f7f7f;}.cls-25{fill:#949494;}.cls-26{fill:#969696;}.cls-27{fill:#8d8d8d;}.cls-28{fill:#707070;}.cls-29{fill:gray;}.cls-30{fill:#777;}.cls-31{fill:#828282;}.cls-32{fill:#5c5c5c;}</style></defs><path class="cls-1" d="M44.87,25.28l2.31,1.83-.87,2.24.23.21c.38-.27.78-.52,1.14-.82q1.8-1.5,3.57-3a10.12,10.12,0,0,0,1-1,9.46,9.46,0,0,1,.64-.78c1.28-1.16,2.58-2.3,3.88-3.44l3.6-3.18.44,1.78c0,.17,0,.34,0,.51,0,1.36.14,1.52,1.54,1.59,2.16.11,4.32.18,6.48.26,1.1,0,2.21,0,3.31.1,1.78.11,3.55.27,5.33.41l-2.34,3.58-.51-.25a1,1,0,0,0-1.5-.13,10.43,10.43,0,0,0,.8,1.08c1.08,1.13,2.28,2.17,3.27,3.37A41.75,41.75,0,0,0,83,35.92a2.41,2.41,0,0,1,.42.48L85,38.51l-2,.35-1.28-.15-.9-1.36c-.79.53-.69,1.2-.71,1.82C80.1,42.79,80,46.4,79.92,50a33.1,33.1,0,0,1-.31,3.43A9.17,9.17,0,0,1,79.1,55l-2.49-1.82c.16-.71,1.07-1.19.72-2.24-.65.66-1.18,1.25-1.76,1.77-2,1.84-4.12,3.64-6.16,5.47-1.23,1.11-2.4,2.28-3.67,3.34a16.12,16.12,0,0,1-2.14,1.35l-.34-3c.6-.32,1.43-.25,1.85-1.21l-1.33-.09c-1.9-.1-3.81-.1-5.7-.31a78.57,78.57,0,0,0-11.16-.46,5.28,5.28,0,0,1,2-2.83c.88,0,1.37,1.19,2.6.74a12.74,12.74,0,0,0-.9-1.23c-1.28-1.35-2.63-2.64-3.89-4-1.71-1.87-3.35-3.8-5.05-5.68-.45-.51-1-.92-1.46-1.41s-.93-.91-.73-1.66l3-.39c.09.73,0,1.53,1,2.12a3.88,3.88,0,0,0,.33-1.15,27.71,27.71,0,0,1,.25-4.17c.25-3.9.37-7.8.56-11.7A6.26,6.26,0,0,1,44.87,25.28Zm32,6.13c-1-1.27-2-2.54-3-3.8a2.48,2.48,0,0,0-.3-.25c-.67-.64-1.38-1.26-2-2C70.32,24,69,22.82,66.88,23.22a1,1,0,0,1-.25,0L61.27,23c-1.1-.06-2.21-.06-3.3-.22a4.48,4.48,0,0,0-4.63,2A20.53,20.53,0,0,1,51.14,27c-.39.39-.79.76-1.2,1.13s-1.11.92-1.63,1.41a22.06,22.06,0,0,0-2.7,2.68,3.43,3.43,0,0,0-.48,3.51c-.2,3.12-.39,6.25-.62,9.37a3.51,3.51,0,0,0,1.9,3.42A27,27,0,0,1,49,50.66C50,51.79,51,53,52,54.22a9,9,0,0,0,.87.75,5.36,5.36,0,0,1,.9.88A2.32,2.32,0,0,0,56.65,57c.71-.13,1.42-.23,2.12-.41a8.24,8.24,0,0,1,2.89-.19c2.1.21,4.23.24,6.34.34a2.84,2.84,0,0,0,2.59-1.35c.22-.31.43-.63.64-1,1-.87,2-1.79,3.08-2.61s1.73-1.91,2.91-2.59a3.32,3.32,0,0,0,1.89-3.45A17,17,0,0,0,78.66,44c.16-3.05.34-6.09.5-9.14A3.1,3.1,0,0,0,76.87,31.41Z"/><path class="cls-2" d="M44.87,25.28a6.26,6.26,0,0,0-.23,1.11c-.19,3.9-.31,7.8-.56,11.7a27.71,27.71,0,0,0-.25,4.17,3.88,3.88,0,0,1-.33,1.15c-1-.59-.88-1.39-1-2.12a39.78,39.78,0,0,0-.44-8.37c-.11-.5-.19-1-.29-1.5a5.43,5.43,0,0,0,.78-3.29,7.09,7.09,0,0,1,.5-3.61Z"/><path class="cls-2" d="M46.92,57.77a78.57,78.57,0,0,1,11.16.46c1.89.21,3.8.21,5.7.31l1.33.09c-.42,1-1.25.89-1.85,1.21-1.67-.06-3.34-.18-5-.14-1.3,0-2.59.25-3.88.39a5,5,0,0,0-1.5-.23c-1.87.29-3.69-.2-5.54-.34-.33,0-.63-.33-.95-.51Z"/><path class="cls-2" d="M79.1,55a9.17,9.17,0,0,0,.51-1.56A33.1,33.1,0,0,0,79.92,50c.11-3.62.18-7.23.27-10.85,0-.62-.08-1.29.71-1.82l.9,1.36,1.28.15-1.45.36a34.17,34.17,0,0,0,.1,7.29c-.09,1.48-.19,3-.26,4.44,0,.68.06,1.37,0,2-.13.94,0,2-.76,2.75Z"/><path class="cls-2" d="M63.6,62.88a16.12,16.12,0,0,0,2.14-1.35c1.27-1.06,2.44-2.23,3.67-3.34,2-1.83,4.11-3.63,6.16-5.47.58-.52,1.11-1.11,1.76-1.77.35,1-.56,1.53-.72,2.24L71.3,58.81a17.47,17.47,0,0,0-2,1.45c-1.58,1.51-3.09,3.09-4.62,4.64a.41.41,0,0,1-.11.07Z"/><path class="cls-3" d="M77.41,22c-1.78-.14-3.55-.3-5.33-.41-1.1-.07-2.21-.06-3.31-.1-2.16-.08-4.32-.15-6.48-.26-1.4-.07-1.52-.23-1.54-1.59,0-.17,0-.34,0-.51l.37,1.44a24.71,24.71,0,0,0,12.38-1.66c.83.09,1.66.24,2.49.27a1.8,1.8,0,0,1,1.91,1.32Z"/><path class="cls-2" d="M60.32,17.3l-3.6,3.18c-1.3,1.14-2.6,2.28-3.88,3.44a9.46,9.46,0,0,0-.64.78,10.12,10.12,0,0,1-1,1q-1.77,1.53-3.57,3c-.36.3-.76.55-1.14.82l-.23-.21.87-2.24a7.33,7.33,0,0,0,1-.73c1.22-1.21,2.41-2.44,3.61-3.66.84-.55,1.73-1,2.52-1.65,1.95-1.5,3.44-3.54,5.64-4.74Z"/><path class="cls-2" d="M39.5,41.68c-.2.75.3,1.2.73,1.66s1,.9,1.46,1.41c1.7,1.88,3.34,3.81,5.05,5.68,1.26,1.38,2.61,2.67,3.89,4a12.74,12.74,0,0,1,.9,1.23c-1.23.45-1.72-.75-2.6-.74l-3.32-3.63c-.23-.24-.49-.46-.74-.7a4.32,4.32,0,0,0-.49-1.14,40.13,40.13,0,0,0-2.89-3.35,22.1,22.1,0,0,1-3.29-4Z"/><path class="cls-4" d="M38.2,42.12a22.1,22.1,0,0,0,3.29,4,40.13,40.13,0,0,1,2.89,3.35,4.32,4.32,0,0,1,.49,1.14c-1.35-.86-2.68-1.77-4.07-2.58a20.81,20.81,0,0,0-2.31-1,3.53,3.53,0,0,0-.65-.88,5.78,5.78,0,0,1-1.93-2.7Z"/><path class="cls-5" d="M46.38,59c.32.18.62.49.95.51,1.85.14,3.67.63,5.54.34a5,5,0,0,1,1.5.23l-1.81.62a12.85,12.85,0,0,0-6.16,4.12l-.67.76C45.57,63.18,45.49,61.06,46.38,59Z"/><path class="cls-6" d="M74.56,25.28l.51.25a35.59,35.59,0,0,0,7.18,6.35,4.77,4.77,0,0,0,.56,1.23c.86,1,1.83,2,2.7,3a13.7,13.7,0,0,1,1.07,1.68l-1.26.56a10.85,10.85,0,0,0-2.57-3.45c-1.34-1.21-2.58-2.53-3.87-3.81-.06-.06-.09-.14-.15-.21L77.08,29c-.69-.8-1.42-1.57-2.07-2.42A4.87,4.87,0,0,1,74.56,25.28Z"/><path class="cls-4" d="M60,16.33c-2.2,1.2-3.69,3.24-5.64,4.74-.79.61-1.68,1.1-2.52,1.65a26.12,26.12,0,0,0,3.33-5.89c.39-.31.79-.61,1.14-.95.76-.75,1.46-1.57,2.65-1.6Z"/><path class="cls-5" d="M43.08,24.52a7.09,7.09,0,0,0-.5,3.61,5.43,5.43,0,0,1-.78,3.29,19.46,19.46,0,0,0-3-5.65l.76-2Z"/><path class="cls-7" d="M80.68,55.74c.77-.78.63-1.81.76-2.75.09-.67,0-1.36,0-2,.07-1.48.17-3,.26-4.44a22.21,22.21,0,0,0,.8,2.93c.59,1.44,1.33,2.83,2,4.24A11.73,11.73,0,0,0,84,55c-.31,1.11-.31,1.13-1.54,1.3Z"/><path class="cls-7" d="M64.53,65a.41.41,0,0,0,.11-.07c1.53-1.55,3-3.13,4.62-4.64a17.47,17.47,0,0,1,2-1.45,23.8,23.8,0,0,0-2.85,6.39c-.42.27-.82.57-1.25.81s-1,.47-1.56.71Z"/><path class="cls-8" d="M86.58,37.8a13.7,13.7,0,0,0-1.07-1.68c-.87-1-1.84-2-2.7-3a4.77,4.77,0,0,1-.56-1.23l3.82,1.58c.52.64,1,1.29,1.57,1.93.31.38.65.75,1,1.12Z"/><path class="cls-2" d="M74.56,25.28A4.87,4.87,0,0,0,75,26.53c.65.85,1.38,1.62,2.07,2.42l1.65,1.94c.06.07.09.15.15.21,1.29,1.28,2.53,2.6,3.87,3.81a10.85,10.85,0,0,1,2.57,3.45l-.29.15L83.41,36.4a2.41,2.41,0,0,0-.42-.48,41.75,41.75,0,0,1-5.86-6.32c-1-1.2-2.19-2.24-3.27-3.37a10.43,10.43,0,0,1-.8-1.08A1,1,0,0,1,74.56,25.28Z"/><path class="cls-9" d="M103.13,53.5h-3a15.63,15.63,0,0,1,.19-2.24c1.54-6.59,3.13-13.16,4.67-19.75.25-1.06.36-2.15.54-3.28l-2.37-1.65c1.4-.95,3.12-1.1,6.47-.51-.33,3.81-1.8,7.43-2.35,11.55.78-.32,1.34-.52,1.87-.77s1.29-.74,2-1c1.8-.64,3.68-1,5.31.3s1.48,3.28,1,5.12c-.48,2.08-1.14,4.11-1.6,6.19-.27,1.22-.29,2.5-.45,3.91l3.94,1c-1.94,1.19-3.5,1.78-5.29,1.6a2.44,2.44,0,0,1-2.45-2.79,26.23,26.23,0,0,1,.79-4.08c.47-2,1.15-3.92,1.46-5.93.5-3.25-1.3-4.51-4.32-3.16a5.64,5.64,0,0,0-3.6,4.26c-.45,2.45-1.11,4.88-1.71,7.3C103.92,50.85,103.53,52.08,103.13,53.5Z"/><path class="cls-9" d="M162.71,46.69a11.15,11.15,0,0,1,10.86-11.36c4.74,0,7.8,3.27,7.36,8-.57,6.09-4.78,10.56-10.26,10.9C165.52,54.55,162.66,51.84,162.71,46.69Zm3.89.82a17,17,0,0,0,.13,2.17c.52,3,3.18,4.23,5.83,2.68a5.58,5.58,0,0,0,1.66-1.43,13.61,13.61,0,0,0,2.52-11.23c-.56-2.71-2.76-3.79-5.25-2.61a8,8,0,0,0-2.85,2.48C167,41.81,166.64,44.48,166.6,47.51Z"/><path class="cls-10" d="M125.83,46.57c-.34,2.26.22,4,2,5,2.07,1.24,4.12.61,6-.64.88-.58,1.65-1.35,3-2.45-.18,1-.11,1.53-.32,1.79a9.75,9.75,0,0,1-9.54,3.82,5.59,5.59,0,0,1-4.67-3.84c-2.54-7,3.68-15.38,11.05-14.94,2.4.14,4,1.1,4.44,2.68a4.72,4.72,0,0,1-2.23,5.49,23.1,23.1,0,0,1-4.61,1.84C129.29,45.84,127.65,46.14,125.83,46.57Zm.13-2a14.29,14.29,0,0,0,2.64,0c2.21-.47,4.29-1.25,5.35-3.51.71-1.5.6-3.16-.22-3.9a3.2,3.2,0,0,0-3.87.26A9.3,9.3,0,0,0,126,44.59Z"/><path class="cls-10" d="M189,54.44a27.94,27.94,0,0,1-4-.91,4.86,4.86,0,0,1-2.08-1.71,1.74,1.74,0,0,1,.52-2.46,1.68,1.68,0,0,1,2.48.2,7.66,7.66,0,0,1,1,1.62c1,1.67,1.83,2.12,3.6,1.77A3.31,3.31,0,0,0,193.43,50c.19-1.61-.4-2.57-2.21-3.42-1.09-.51-2.26-.84-3.32-1.41-3.49-1.86-3.84-5.72-.7-8.14,2.82-2.16,6-2.23,9.21-1a2.75,2.75,0,0,1,1.11.8,1.81,1.81,0,0,1-.09,2.72,1.7,1.7,0,0,1-2.5,0,3.88,3.88,0,0,1-1-1.34,2.23,2.23,0,0,0-2.88-1.47,3.12,3.12,0,0,0-2.65,2.5,2.71,2.71,0,0,0,1.75,3.12c1.17.56,2.4,1,3.56,1.55,3.69,1.85,4.14,5.91,1,8.58A9.63,9.63,0,0,1,189,54.44Z"/><path class="cls-9" d="M144.5,51.5l4,.92c-2.07,1.45-3.82,2-5.77,1.53-1.58-.37-2.31-1.61-2-3.44s.8-3.61,1.23-5.4c1.09-4.59,2.22-9.17,3.28-13.76a26.65,26.65,0,0,0,.35-3.26l-2.73-1.74a13.49,13.49,0,0,1,7-.34c-.18,1.09-.29,2-.51,3-1.49,6.29-3,12.58-4.5,18.88A29.07,29.07,0,0,0,144.5,51.5Z"/><path class="cls-10" d="M155,37.84l-3.59-.65a6.42,6.42,0,0,1,5.32-1.74,2.24,2.24,0,0,1,2.16,2.45,16.58,16.58,0,0,1-.5,3.27c-.52,2.16-1.13,4.29-1.66,6.45-.89,3.67-.76,3.87,2.8,4.67-1.28,1.73-4.33,2.39-5.94,1.26a2.9,2.9,0,0,1-1-3.46c.74-2.87,1.51-5.73,2.15-8.61A25.24,25.24,0,0,0,155,37.84Z"/><path class="cls-1" d="M159.2,26.29a2.19,2.19,0,0,1,2.29,2.2,2.33,2.33,0,1,1-4.65,0A2.39,2.39,0,0,1,159.2,26.29Z"/><path class="cls-11" d="M71.23,54.44c-.21.32-.42.64-.64,1A2.84,2.84,0,0,1,68,56.74c-2.11-.1-4.24-.13-6.34-.34a8.24,8.24,0,0,0-2.89.19c-.7.18-1.41.28-2.12.41a17.92,17.92,0,0,0-1.24-1.6c-1.7-1.79-3.44-3.54-5.16-5.3.68.08,1.35.22,2,.24a4.79,4.79,0,0,1,3.58,1.95c.79.94,1.55,1.91,2.34,2.85s1,.93,2,.54A10.14,10.14,0,0,0,61.5,55l1.8-1.28c1,.13,2,.34,3,.38,1.3.05,2.61,0,3.92,0,.33,0,.67,0,1-.07Z"/><path class="cls-12" d="M45.13,35.77a3.43,3.43,0,0,1,.48-3.51,22.06,22.06,0,0,1,2.7-2.68c.52-.49,1.09-.93,1.63-1.41s.81-.74,1.2-1.13a20.53,20.53,0,0,0,2.2-2.28,4.48,4.48,0,0,1,4.63-2c1.09.16,2.2.16,3.3.22l5.36.26v.25l-2.82,1L62,25.78c-1.94-.15-3.89-.27-5.83-.47-2.2-.22-3.14.29-3.95,2.31l-.2.47a7.27,7.27,0,0,0-2.33,2.32,4.45,4.45,0,0,1-.88.91c-.93.81-1.88,1.59-2.8,2.41a2.46,2.46,0,0,0-.89,2Z"/><path class="cls-13" d="M50.25,50.1c1.72,1.76,3.46,3.51,5.16,5.3A17.92,17.92,0,0,1,56.65,57a2.32,2.32,0,0,1-2.92-1.15,5.36,5.36,0,0,0-.9-.88,9,9,0,0,1-.87-.75C51,53,50,51.79,49,50.66a27,27,0,0,0-2.54-2.1,9.72,9.72,0,0,1-.48-2.21c0-2.67.14-5.35.23-8l.77,1a4.36,4.36,0,0,1,.32,1.34c-.14,1.59.31,3.2-.18,4.78a4.7,4.7,0,0,0-.14,1.25c0,2,.56,2.69,2.56,3.11Z"/><path class="cls-14" d="M76.87,31.41a3.1,3.1,0,0,1,2.29,3.4c-.16,3-.34,6.09-.5,9.14h0l-.51-.77a7.63,7.63,0,0,0-1.79-3.07c.85-2.73.33-5.56.62-8.33,0-.12-.07-.24-.11-.36Z"/><path class="cls-14" d="M66.63,23.48v-.25a1,1,0,0,0,.25,0c2.1-.4,3.44.78,4.71,2.18.62.7,1.33,1.32,2,2a2.48,2.48,0,0,1,.3.25c1,1.26,2,2.53,3,3.8h0L74,30.4l-1-.27a6.19,6.19,0,0,0-.53-.86c-1.64-1.82-3.28-3.63-5-5.41C67.34,23.64,66.94,23.6,66.63,23.48Z"/><path class="cls-14" d="M71.23,54.44v-.51l.77-2.3h0a4.87,4.87,0,0,0,.84-.55c1.52-1.42,3-2.94,4.55-4.27A3,3,0,0,0,78.65,44h0a17,17,0,0,1,.45,1.84,3.32,3.32,0,0,1-1.89,3.45c-1.18.68-1.88,1.8-2.91,2.59S72.25,53.57,71.23,54.44Z"/><path class="cls-12" d="M46.16,38.32c-.09,2.68-.21,5.36-.23,8a9.72,9.72,0,0,0,.48,2.21,3.51,3.51,0,0,1-1.9-3.42c.23-3.12.42-6.25.62-9.37h0l.51.78Z"/><path class="cls-15" d="M50.25,50.1l-.76-.27c.07-1.3.2-2.6.2-3.9s-.14-2.51-.21-3.77l.88.48,1.12,2.65a10.2,10.2,0,0,0,5.87,5.77c.79.31,1.6.54,2.4.81-.52.25-.45.64-.26,1.07a4,4,0,0,0,2,2,10.14,10.14,0,0,1-1.33.73c-1,.39-1.23.33-2-.54s-1.55-1.91-2.34-2.85a4.79,4.79,0,0,0-3.58-1.95C51.6,50.32,50.93,50.18,50.25,50.1Z"/><path class="cls-16" d="M72,51.63l-.77,2.3c-.33,0-.67.06-1,.07-1.31,0-2.62.1-3.92,0-1,0-2-.25-3-.38l1.28-1.81,1.8-.67c.28.22.56.63.84.62C68.81,51.81,70.41,51.7,72,51.63Z"/><path class="cls-17" d="M64.58,51.86,63.3,53.67,61.5,55a4,4,0,0,1-2-2c-.19-.43-.26-.82.26-1.07A15.65,15.65,0,0,0,64.58,51.86Z"/><path class="cls-18" d="M62,25.78l1.79-1.27a10.27,10.27,0,0,1,1.8,1.12c1,1,2,2,3,3.06a3.21,3.21,0,0,0,2.66,1.21,3.59,3.59,0,0,1,1,.23l.82,1.55c-.07.86-.08,1.47-.18,2.07a2.56,2.56,0,0,1-.4.74l-1.23-1.65a8,8,0,0,0-3.88-3.19c-.18-.1-.36-.21-.55-.3a13.8,13.8,0,0,0-7.07-1,2.21,2.21,0,0,1,.32-.75C60.71,27,61.37,26.39,62,25.78Z"/><path class="cls-19" d="M62,25.78c-.65.61-1.31,1.2-1.93,1.84a2.21,2.21,0,0,0-.32.75l-3.89,1.48a1,1,0,0,0-1.26-1,25.39,25.39,0,0,0-2.58.47V28.09l.2-.47c.81-2,1.75-2.53,3.95-2.31C58.13,25.51,60.08,25.63,62,25.78Z"/><path class="cls-20" d="M72.26,30.13a3.59,3.59,0,0,0-1-.23,3.21,3.21,0,0,1-2.66-1.21c-1-1-2-2.1-3-3.06a10.27,10.27,0,0,0-1.8-1.12l2.82-1c.31.12.71.16.91.38,1.68,1.78,3.32,3.59,5,5.41a6.19,6.19,0,0,1,.53.86Z"/><path class="cls-21" d="M52,28.09v1.28l-.26,2a15.48,15.48,0,0,1-1.42.83,5.53,5.53,0,0,0-2,1.82,22.62,22.62,0,0,1-2.68,2.48l-.51-.78a2.46,2.46,0,0,1,.89-2c.92-.82,1.87-1.6,2.8-2.41a4.45,4.45,0,0,0,.88-.91A7.27,7.27,0,0,1,52,28.09Z"/><path class="cls-22" d="M49.48,42.16c.07,1.26.21,2.51.21,3.77s-.13,2.6-.2,3.9c-2-.42-2.6-1.15-2.56-3.11a4.7,4.7,0,0,1,.14-1.25c.49-1.58,0-3.19.18-4.78a4.36,4.36,0,0,0-.32-1.34h.25Z"/><path class="cls-16" d="M47.18,39.35h-.25l-.77-1-.51-1.78a22.62,22.62,0,0,0,2.68-2.48,5.53,5.53,0,0,1,2-1.82,15.48,15.48,0,0,0,1.42-.83l.31,2.07-.88,2-.33.54C49,36.43,47.55,37.28,47.18,39.35Z"/><path class="cls-18" d="M72,51.63c-1.59.07-3.19.18-4.78.18-.28,0-.56-.4-.84-.62l1.78-1.1a2.75,2.75,0,0,0,.59-.21,9.56,9.56,0,0,0,3.7-4.09c.5-1.12.87-2.29,1.3-3.44.22.32.53.49.86.24.84-.63,1.76-1.23,1.74-2.47h0a7.63,7.63,0,0,1,1.79,3.07,7.19,7.19,0,0,0-2.62,2.18c-.11.17-.34.25-.5.39-.81.8-1.63,1.58-2.41,2.41a1.49,1.49,0,0,0-.31.81c-.12.89-.2,1.78-.3,2.66Z"/><path class="cls-23" d="M74,30.4l2.82,1c0,.12.13.24.11.36-.29,2.77.23,5.6-.62,8.33h0l-1.79-2a9.45,9.45,0,0,1-.41-2.47A17.1,17.1,0,0,0,74,30.4Z"/><path class="cls-24" d="M72,51.63c.1-.88.18-1.77.3-2.66a1.49,1.49,0,0,1,.31-.81c.78-.83,1.6-1.61,2.41-2.41.16-.14.39-.22.5-.39a7.19,7.19,0,0,1,2.62-2.18l.51.77a3,3,0,0,1-1.26,2.86c-1.6,1.33-3,2.85-4.55,4.27A4.87,4.87,0,0,1,72,51.63Z"/><path class="cls-18" d="M74,30.4a17.1,17.1,0,0,1,.11,5.2,9.45,9.45,0,0,0,.41,2.47l-.83-.24L72.5,34.49a2.56,2.56,0,0,0,.4-.74c.1-.6.11-1.21.18-2.07l-.82-1.55H73Z"/><path class="cls-25" d="M47.18,39.35c.37-2.07,1.82-2.92,3.7-3.31l-.33,1.28a11.4,11.4,0,0,0-.19,5.32l-.88-.48Z"/><path class="cls-26" d="M55.88,29.85l-.52.51a12.15,12.15,0,0,0-3.27,3.12l-.31-2.07.26-2a25.39,25.39,0,0,1,2.58-.47A1,1,0,0,1,55.88,29.85Z"/><path class="cls-18" d="M73.84,38.34l-.11-.51.83.24,1.79,2c0,1.24-.9,1.84-1.74,2.47-.33.25-.64.08-.86-.24l.1-1A5.21,5.21,0,0,0,73.84,38.34Z"/><path class="cls-27" d="M51.53,37.79,51.25,37l.92-.8-.61-.66,1.31-.64-.57-.63,1.34-.67L53.28,33l1.36-.47-.3-.72,1.49-.2-.43-.86,1.36.14L57,30l1.27.15.25-.72,1.34.34.07-.74,1.41.53.16-.74,1.32.74.28-.75,1.09.91.48-.61,1,1.1.47-.64.94,1.28.33-.68.94,1.39.54-.43.54,1.38.72-.31.2,1.52.89-.44v1.51H72l-.1,1.42.81-.09-.35,1.42.68.25L72.66,39l.59.37-.58,1.16.68.3L72.47,42l.66.4-1,1,.56.49-1.3,1,.73.42-1.29.77.43.62-1.34.53.32.72-1.35.35.23.7-1.62.14.36.44-1.55.4.05.58L65,50.42l-.24.7-1.31-.47-.14.79L62,50.75l-.25.76-1.12-.75-.45.62-1.07-1-.48.6-1-1.16-.44.63-.8-1.2-.66.35-.54-1.3-.71.33-.33-1.34-.81.25L53.26,46l-.78.21V44.7l-.91.47L52,43.4h-.84l.4-1.32-.73-.3.64-1.27-.79-.23L51.46,39l-.62-.38ZM70.21,44h0l.55-.39L70,41.39l.76.26c.44-.11.82-.31.83-.83,0-.88,0-1.76,0-2.66l-2-.88.35-.28c.93-.63,1-1,.39-1.84-.42-.57-.92-1.09-1.33-1.58H67.13l.08-1.19c-.82-.89-1.93-1-3.23-1.47a8.92,8.92,0,0,1-.89,1.15,2.57,2.57,0,0,1-.82.37l0-.52c.5-.58.28-1-.49-1.39-1,.26-2,.56-3.15.83a1.17,1.17,0,0,0-1,1.28c0,.5,0,1-.52,1.33l-.44-.89-1.34.64A2.08,2.08,0,0,0,54,35l.34,2-.5-.26a.7.7,0,0,0-1,.59c-.22.93-.4,1.87-.57,2.7l1.76,1.56L52.89,42c.3.82.56,1.48.79,2.15a1.16,1.16,0,0,0,1.26.85c.89,0,1.79,0,2.68,0a5,5,0,0,1,1.05.25l-1.77.27-1.63.77,2.63,2.17c.84-.59,1.75-1.19,2.62-1.84.39-.3.74-.57,1.25-.33l-1,1a1.94,1.94,0,0,0-1,1.54,1,1,0,0,0,1.05.78c.75,0,1.51,0,2.28,0,.16-.23.29-.45.45-.64s.36-.43.47-.55c.52.24,1,.63,1.33.57,1.28-.21,2.37-.35,2.35-2.23a1.69,1.69,0,0,1,.51-1.52v.26l.82.75C69.78,45.57,70.56,45.08,70.21,44Z"/><path class="cls-18" d="M73.84,38.34a5.21,5.21,0,0,1,0,3Z"/><path class="cls-28" d="M70.71,41.65,70,41.39c-.84-.78-1.66-1.57-2.52-2.32-.31-.27-.68-.55-1.21-.13a3.46,3.46,0,0,0,.39.74c.8.93,1.65,1.83,2.46,2.76.41.48.76,1,1.14,1.51h0a4.88,4.88,0,0,0-.74.42c-.45.35-.87.74-1.31,1.12v-.26c-.19-.6-.38-1.21-.59-1.81s-.49-1.44-.8-2.13c-.1-.2-.4-.31-.88-.66.41,2.4,1,4.46.74,6.61a1.52,1.52,0,0,1-2,.22c.09-.49.19-1,.28-1.53.15-.83.29-1.66.44-2.48L65,42.89l-.24,0-.21,1h0a4.53,4.53,0,0,0-1.35,2.26c-.2.67-.51,1.31-.74,1.89-1.41.14-1.41.14-1.76-.83l1-1c.73-.6,1.56-1.14,1.35-2.49-.44.27-.73.42-1,.61-1.11.79-2.2,1.6-3.31,2.38-.46.33-1,.61-1.53.21a1.19,1.19,0,0,1-.39-1.48l1.77-.27c.82-.21,1.87,0,2.27-1.43-.79,0-1.4-.08-2,0-1,.07-2,.19-3,.32a1.1,1.1,0,0,1-1.28-.56,1,1,0,0,1,.23-1.35l1.66.51c.64.18,1.28.34,1.92.51l.72-.39c-1.57-1.49-3.58-2-5.21-3.18L54,38.26l.85-.44c.44.61.88,1.23,1.34,1.84a2.07,2.07,0,0,0,1.69,1.06l-2-3.77c-.4-.74-.88-1.45-.39-2.37.11-.21-.05-.57-.08-.86l1.34-.64.44.89c.09,1.05.17,2.11.27,3.16,0,.48,0,1,.74,1.19a2.69,2.69,0,0,0,.23-.6c.09-1.43.18-2.87.24-4.3,0-.89.16-1.19,1-1.32s1.75-.12,2.63-.18l0,.52c-1.81,2-2.22,2.79-2,4.06A43.91,43.91,0,0,1,64.55,32a4.77,4.77,0,0,1,.82.31c.3.2.78.47.77.69a1.44,1.44,0,0,1-.62,1,7.66,7.66,0,0,1-1.53.62,3,3,0,0,0-1.87,1.5c2.3-.28,4.26-1.15,6.3-1.52a2.11,2.11,0,0,1,1,2.06c-1.54.61-3.1-.87-4.65.09a3.52,3.52,0,0,0,1.26.78c1.09.36,2.2.64,3.29,1s1.31.77,1.33,1.89C70.63,40.81,70.68,41.23,70.71,41.65Zm-11.1-4.41a15.21,15.21,0,0,0-.44,2.7,3.61,3.61,0,0,0,.58,2,2.74,2.74,0,0,0,3.75.72,3.06,3.06,0,0,0,1.22-3.57,2.88,2.88,0,0,0-3.06-1.8C61,37.31,60.35,37.26,59.61,37.24Z"/><path class="cls-29" d="M70.71,41.65c0-.42-.08-.84-.09-1.26,0-1.12-.28-1.54-1.33-1.89s-2.2-.65-3.29-1a3.52,3.52,0,0,1-1.26-.78c1.55-1,3.11.52,4.65-.09a2.11,2.11,0,0,0-1-2.06c-2,.37-4,1.24-6.3,1.52A3,3,0,0,1,64,34.58,7.66,7.66,0,0,0,65.52,34a1.44,1.44,0,0,0,.62-1c0-.22-.47-.49-.77-.69a4.77,4.77,0,0,0-.82-.31,43.91,43.91,0,0,0-4.26,4.51c-.24-1.27.17-2,2-4.06a2.57,2.57,0,0,0,.82-.37A8.92,8.92,0,0,0,64,30.92c1.3.44,2.41.58,3.23,1.47l-.08,1.19h1.79c.41.49.91,1,1.33,1.58.63.87.54,1.21-.39,1.84l-.35.28,2,.88c0,.9,0,1.78,0,2.66C71.53,41.34,71.15,41.54,70.71,41.65Z"/><path class="cls-29" d="M65.35,43.45c-.15.82-.29,1.65-.44,2.48-.09.52-.19,1-.28,1.53a1.52,1.52,0,0,0,2-.22c.25-2.15-.33-4.21-.74-6.61.48.35.78.46.88.66.31.69.55,1.42.8,2.13s.4,1.21.59,1.81a1.69,1.69,0,0,0-.51,1.52c0,1.88-1.07,2-2.35,2.23-.37.06-.81-.33-1.33-.57-.11.12-.3.33-.47.55s-.29.41-.45.64c-.77,0-1.53,0-2.28,0a1,1,0,0,1-1.05-.78h2.77A16.11,16.11,0,0,0,64.58,44h0Z"/><path class="cls-29" d="M62.29,31.92c-.88.06-1.77,0-2.63.18s-1,.43-1,1.32c-.06,1.43-.15,2.87-.24,4.3a2.69,2.69,0,0,1-.23.6c-.72-.17-.7-.71-.74-1.19-.1-1.05-.18-2.11-.27-3.16.55-.3.51-.83.52-1.33a1.17,1.17,0,0,1,1-1.28c1.1-.27,2.18-.57,3.15-.83C62.57,31,62.79,31.34,62.29,31.92Z"/><path class="cls-30" d="M54.86,42.16a1,1,0,0,0-.23,1.35,1.1,1.1,0,0,0,1.28.56c1-.13,2-.25,3-.32.61,0,1.22,0,2,0-.4,1.41-1.45,1.22-2.27,1.43A5,5,0,0,0,57.62,45c-.89,0-1.79,0-2.68,0a1.16,1.16,0,0,1-1.26-.85c-.23-.67-.49-1.33-.79-2.15l1.19-.33Z"/><path class="cls-30" d="M56.9,45.49A1.19,1.19,0,0,0,57.29,47c.58.4,1.07.12,1.53-.21,1.11-.78,2.2-1.59,3.31-2.38.26-.19.55-.34,1-.61.21,1.35-.62,1.89-1.35,2.49-.51-.24-.86,0-1.25.33-.87.65-1.78,1.25-2.62,1.84l-2.63-2.17Z"/><path class="cls-31" d="M55.38,33.72c0,.29.19.65.08.86-.49.92,0,1.63.39,2.37l2,3.77a2.07,2.07,0,0,1-1.69-1.06c-.46-.61-.9-1.23-1.34-1.84l-.52-.77L54,35A2.08,2.08,0,0,1,55.38,33.72Z"/><path class="cls-31" d="M54.86,42.16l-.78-.52-1.76-1.56c.17-.83.35-1.77.57-2.7a.7.7,0,0,1,1-.59l-.73,3c.57.33,1,.56,1.43.83l3.9,2.58c-.64-.17-1.28-.33-1.92-.51Z"/><path class="cls-29" d="M70.21,44c-.38-.5-.73-1-1.14-1.51-.81-.93-1.66-1.83-2.46-2.76a3.46,3.46,0,0,1-.39-.74c.53-.42.9-.14,1.21.13.86.75,1.68,1.54,2.52,2.32l.81,2.17Z"/><path class="cls-30" d="M58.44,43.18l-3.9-2.58c-.41-.27-.86-.5-1.43-.83l.73-3,.5.26.52.77-.85.44L54,39.61c1.63,1.21,3.64,1.69,5.21,3.18Z"/><path class="cls-30" d="M64.58,44a16.11,16.11,0,0,1-2.09,4.86H59.72a1.94,1.94,0,0,1,1-1.54c.35,1,.35,1,1.76.83.23-.58.54-1.22.74-1.89A4.53,4.53,0,0,1,64.58,44Z"/><path class="cls-29" d="M68.16,45.49c.44-.38.86-.77,1.31-1.12a4.88,4.88,0,0,1,.74-.42c.35,1.13-.43,1.62-1.23,2.29Z"/><path class="cls-32" d="M59.61,37.24c.74,0,1.4.07,2,.06a2.88,2.88,0,0,1,3.06,1.8,3.06,3.06,0,0,1-1.22,3.57A2.74,2.74,0,0,1,59.75,42a3.61,3.61,0,0,1-.58-2A15.21,15.21,0,0,1,59.61,37.24Zm3.91,2.88a1.48,1.48,0,0,0-1.45-1.46,1.72,1.72,0,0,0-1.68,1.43A1.72,1.72,0,0,0,62,41.61,1.47,1.47,0,0,0,63.52,40.12Z"/><path class="cls-30" d="M65.35,43.45l-.77.5.21-1,.24,0Z"/></svg>