<svg id="Layer_1" data-name="Layer 1" xmlns="http://www.w3.org/2000/svg" viewBox="0 0 200 81"><defs><style>.cls-1{fill:#6d6d6d;}</style></defs><path class="cls-1" d="M111.23,49.29c-4.76,0-9.27,0-13.79,0a3.62,3.62,0,0,1-3.4-2.9,3.53,3.53,0,0,1,1.94-4c3.33-1.67,6.68-3.27,10-4.9.38-.18.74-.4,1.12-.6l0-.35a9.27,9.27,0,0,0-1.37-.21c-3.32,0-6.64-.05-10,0-1,0-1.42-.2-1.37-1.31.12-2.65-.35-2.25,2.31-2.27q5.1,0,10.2,0c3,0,4.31,1.34,4.31,4.33V49.29ZM98,45.24l.14.47c2.93,0,5.86,0,8.79,0,.18,0,.5-.39.51-.61,0-1.34,0-2.68,0-4.26Z"/><path class="cls-1" d="M35.18,49.29a86.39,86.39,0,0,0-8.68.07c-2.65.26-4-.78-5.12-3.06-1.87-3.7-4.11-7.22-6.2-10.82-.47-.82-.93-1.65-1.49-2.66.52-.06.85-.14,1.18-.14,3.31,0,6.63,0,10,0a1.8,1.8,0,0,1,1.35.66c3,5.14,6,10.31,8.93,15.47A2.14,2.14,0,0,1,35.18,49.29Z"/><path class="cls-1" d="M161.91,36.48a11.61,11.61,0,0,0-1.43-.17c-3.35,0-6.71,0-10.06,0-1,0-1.24-.3-1.2-1.23.09-2.74-.38-2.33,2.35-2.35,3.39,0,6.79,0,10.18,0,3,0,4.3,1.32,4.3,4.32,0,3.68,0,7.35,0,11,0,.9-.21,1.25-1.19,1.24-4-.06-8.07,0-12.11,0a3.74,3.74,0,0,1-3.85-2.79,3.57,3.57,0,0,1,2.19-4.29c3.25-1.61,6.53-3.18,9.8-4.78.37-.18.71-.41,1.06-.62Zm.35,9.11V40.82l-9.43,4.42.1.35Z"/><path class="cls-1" d="M134.63,54.55h-3.82c0-.46-.06-.89-.06-1.31,0-6.4,0-12.79,0-19.19,0-1,.21-1.42,1.32-1.38,2.51.08,5,0,7.55,0A8.46,8.46,0,0,1,148.17,41a8.35,8.35,0,0,1-8.36,8.41c-1.31,0-2.64.07-3.95,0-1-.07-1.31.33-1.25,1.3C134.68,51.91,134.63,53.19,134.63,54.55Zm.09-9a54.82,54.82,0,0,0,6.16-.05,4.13,4.13,0,0,0,3.71-4.32,4.34,4.34,0,0,0-3.54-4.63,47.61,47.61,0,0,0-6.33-.06Z"/><path class="cls-1" d="M79.64,42.22c.78,2.31,2.15,3.39,4.39,3.45s4.39.06,6.59,0c.88,0,1.25.25,1.17,1.15-.07.75,0,1.5,0,2.44H89.41c-1.79,0-3.59,0-5.39,0-5.19-.17-8.85-4.12-8.44-9.05a8.82,8.82,0,0,1,17.56.42c0,1.46-.06,1.58-1.5,1.58h-12ZM80,39h8.63A4.78,4.78,0,0,0,80,39Z"/><path class="cls-1" d="M62.11,36.73c.35.21.68.46,1,.63,2.83,1.31,5.67,2.58,8.49,3.91a8.86,8.86,0,0,1,2.1,1.35,3.46,3.46,0,0,1,1,4,3.7,3.7,0,0,1-3.5,2.66c-3.88,0-7.75,0-11.63,0-.65,0-.91-.18-.95-.88-.15-2.82-.18-2.82,2.61-2.82h8c.42,0,.85,0,1.27-.07l.18-.36a8.69,8.69,0,0,0-1.29-.92c-2.79-1.3-5.59-2.56-8.39-3.83-2.08-1-3-2.35-2.67-4.17a4.17,4.17,0,0,1,4-3.53c3.43-.11,6.87-.06,10.3,0a1.21,1.21,0,0,1,.81.83c.27,2.69.25,2.7-2.44,2.69H63.41c-.41,0-.81.08-1.22.12Z"/><path class="cls-1" d="M116.77,36.71a8.5,8.5,0,0,0,1.1.7c2.83,1.32,5.68,2.58,8.49,3.92a7.94,7.94,0,0,1,2.24,1.55,3.46,3.46,0,0,1,.69,3.9,3.41,3.41,0,0,1-3.09,2.48c-4.24.1-8.47,0-12.9,0a24.91,24.91,0,0,1,0-3c0-.25.64-.61,1-.62,3.19-.05,6.39,0,9.59,0,.42,0,.84,0,1.26-.08l.16-.38a8.94,8.94,0,0,0-1.32-.92c-2.75-1.28-5.52-2.53-8.29-3.78Q112.57,39,113,36.36a4.2,4.2,0,0,1,4.17-3.62c3.36-.09,6.72,0,10.07,0,.66,0,.94.24.93.91,0,3.26.31,2.61-2.41,2.65-2.56,0-5.12,0-7.68,0-.41,0-.82.07-1.23.11Z"/><path class="cls-1" d="M186.23,49.28h-3.6c0-.46-.06-.88-.06-1.3,0-3.24,0-6.48,0-9.72,0-1.42-.52-2-1.95-1.93a6.46,6.46,0,0,0-2,.4c-1.9.71-3.77,1.52-5.69,2.23a1.24,1.24,0,0,0-.94,1.41c0,2.59,0,5.19,0,7.79,0,.89-.26,1.23-1.17,1.16s-1.65,0-2.55,0c0-.47-.08-.82-.08-1.17,0-3.4,0-6.8,0-10.2a1.37,1.37,0,0,1,1-1.51c2.49-1,4.91-2.17,7.45-3a15.51,15.51,0,0,1,5.13-.85c2.83,0,4.5,2,4.51,4.85,0,3.52,0,7,0,10.56C186.3,48.36,186.26,48.75,186.23,49.28Z"/><path class="cls-1" d="M30,32.7c1.28,0,2.45,0,3.63,0,.24,0,.53.32.68.57q4.5,7.77,9,15.56a2.08,2.08,0,0,1,0,.42c-1.23,0-2.44,0-3.64,0-.25,0-.55-.32-.69-.57Q34.52,41,30.11,33.33A3.39,3.39,0,0,1,30,32.7Z"/><path class="cls-1" d="M44.05,33.45c.13,1.87-1.16,3.08-2,4.33-.39.56-1.77.43-2.78.63,0-1.86,1.31-1.45,2.49-1.7-.32-.51-.5-1.15-.82-1.23a5.1,5.1,0,0,0-1.8.33,2.28,2.28,0,0,1-.79-2.69.82.82,0,0,1,.58-.45c3.26,0,6.51,0,10.07,0L42.73,43.52A22.26,22.26,0,0,1,41.38,41a1.63,1.63,0,0,1,.22-1.19q1.4-2.51,2.89-5C44.91,34.13,44.92,33.67,44.05,33.45Z"/></svg>