<svg id="Layer_1" data-name="Layer 1" xmlns="http://www.w3.org/2000/svg" viewBox="0 0 222 81"><defs><style>.cls-1,.cls-2{fill:#6d6d6d;}.cls-2{opacity:0.75;}</style></defs><path class="cls-1" d="M34.85,28.87V45.66a1.74,1.74,0,0,1-2.51,1.57l-3.29-1.61V34.67a1.72,1.72,0,0,0-.5-1.22l-.09-.08-.19-.16-.22-.12L20,29.3V23.53A1.74,1.74,0,0,1,22.47,22l11.38,5.34a1.76,1.76,0,0,1,1,1.58"/><path class="cls-1" d="M29.05,45.62v5.84A1.75,1.75,0,0,1,26.54,53L15.16,47.46a1.74,1.74,0,0,1-1-1.57V29.33a1.74,1.74,0,0,1,2.49-1.58L20,29.3V40.09a1.73,1.73,0,0,0,.49,1.21,1,1,0,0,0,.18.17,1.61,1.61,0,0,0,.31.19Z"/><path class="cls-2" d="M29.05,34.67V45.62l-8.09-4a1.61,1.61,0,0,1-.31-.19,1,1,0,0,1-.18-.17A1.73,1.73,0,0,1,20,40.09V29.3l8.07,3.79.22.12.19.16.09.08a1.72,1.72,0,0,1,.5,1.22"/><path class="cls-1" d="M47.47,37.58c2,0,2.73-.95,2.73-2.53s-.72-2.49-2.73-2.49H46v5Zm-6.29-9.19h5.33c6.47,0,8.64,2.2,8.64,6.73s-2.2,6.6-8.47,6.6H46v4H41.18Z"/><path class="cls-1" d="M66.55,38.85c0-2.1-1.1-3.3-2.61-3.3s-2.61,1.2-2.61,3.3,1.12,3.35,2.61,3.35,2.61-1.19,2.61-3.35m-9.84,0c0-4.94,3.59-7.11,7.25-7.11s7.2,2.17,7.2,7.11S67.62,46,63.94,46s-7.23-2.18-7.23-7.15"/><rect class="cls-1" x="73.53" y="27.58" width="4.67" height="18.14"/><path class="cls-1" d="M81,32h4.65V45.72H81Zm-.23-3.8c0-1.49,1.07-2.28,2.58-2.28a2.29,2.29,0,1,1,0,4.53c-1.51,0-2.58-.77-2.58-2.25"/><path class="cls-1" d="M88.06,38.88a6.78,6.78,0,0,1,7-7.11c3.92,0,6.34,1.74,6.84,5.29l-4.14.55a2.44,2.44,0,0,0-2.44-2c-1.58,0-2.61,1.3-2.61,3.31s1,3.3,2.61,3.3a2.48,2.48,0,0,0,2.42-2l4.16.55c-.47,3.45-3,5.29-6.84,5.29a6.78,6.78,0,0,1-7-7.1"/><polygon class="cls-1" points="107.95 45.7 102.52 32.05 107.61 32.05 110.42 40.69 113.22 32.05 118.31 32.05 111.2 50.15 106.08 50.15 107.95 45.7"/><polygon class="cls-1" points="117.81 28.39 119.94 28.39 126.19 43.49 132.46 28.39 134.59 28.39 127.22 45.72 125.13 45.72 117.81 28.39"/><path class="cls-1" d="M136,32h1.85V45.72H136Zm-.21-3.21a1.08,1.08,0,0,1,1.15-1.1,1.11,1.11,0,1,1,0,2.21,1.09,1.09,0,0,1-1.15-1.11"/><path class="cls-1" d="M152.35,37.65a4.37,4.37,0,0,0-4.74-4.3,4.64,4.64,0,0,0-4.91,4.3Zm-11.59,1.23c0-4.22,2.78-7.11,6.82-7.11,4.24,0,6.85,3,6.56,7.46H142.63c.07,3.19,2,5.1,5.1,5.1A4.61,4.61,0,0,0,152.18,42l1.72.39A6.35,6.35,0,0,1,147.7,46c-4.21,0-6.94-2.82-6.94-7.1"/><polygon class="cls-1" points="155.46 32.03 157.49 32.03 161.78 43.49 165.72 32.03 167.28 32.03 171.23 43.49 175.54 32.03 177.57 32.03 172.23 45.72 170.25 45.72 166.51 34.76 162.78 45.72 160.75 45.72 155.46 32.03"/><path class="cls-1" d="M178.67,44.79a1.09,1.09,0,0,1,1.17-1.1,1.1,1.1,0,0,1,1.18,1.1,1.12,1.12,0,0,1-1.18,1.12,1.1,1.1,0,0,1-1.17-1.12m0-11.83a1.09,1.09,0,0,1,1.17-1.1A1.1,1.1,0,0,1,181,33a1.12,1.12,0,0,1-1.18,1.11A1.1,1.1,0,0,1,178.67,33"/><path class="cls-1" d="M201.72,40.41l-4.86-10.84L192,40.41Zm.43,1H191.57l-2,4.36h-1.08l7.9-17.33h.86l7.9,17.33h-1.08Z"/><rect class="cls-1" x="206.86" y="28.39" width="0.96" height="17.33"/><path class="cls-1" d="M120.36,54.83a1.67,1.67,0,1,0-1.65,1.89,1.67,1.67,0,0,0,1.65-1.89m-3.29,1.65v1h-1V50.44h1V53.2A2,2,0,0,1,119,52.07a2.46,2.46,0,0,1,2.45,2.76A2.48,2.48,0,0,1,119,57.62a2,2,0,0,1-1.89-1.14"/><polygon class="cls-1" points="124.19 57.46 121.89 52.17 123.03 52.17 124.75 56.33 126.46 52.17 127.61 52.17 124.55 59.22 123.41 59.22 124.19 57.46"/><polygon class="cls-1" points="130.99 50.75 132.08 50.75 135.55 55.84 135.55 50.75 136.63 50.75 136.63 57.5 135.56 57.5 132.07 52.38 132.07 57.5 130.99 57.5 130.99 50.75"/><path class="cls-1" d="M142.17,54.83a1.67,1.67,0,1,0-1.65,1.89,1.67,1.67,0,0,0,1.65-1.89m-4.36,0a2.45,2.45,0,0,1,2.44-2.76,2,2,0,0,1,1.89,1.14v-1h1v5.32h-1v-1a2,2,0,0,1-1.88,1.14,2.47,2.47,0,0,1-2.45-2.79"/><path class="cls-1" d="M144.79,55.37V53H144v-.81h.77v-1l1.05-.22v1.2h1.58V53h-1.58v2.27c0,1.1.29,1.48,1.1,1.48a2.82,2.82,0,0,0,.43,0l.14.81a4.21,4.21,0,0,1-.73.07c-1.36,0-2-.57-2-2.2"/><path class="cls-1" d="M148.31,52.17h1V57.5h-1Zm-.09-1.33a.55.55,0,0,1,.61-.56.57.57,0,0,1,.63.56.58.58,0,0,1-.63.56.56.56,0,0,1-.61-.56"/><path class="cls-1" d="M154.79,54.83a1.67,1.67,0,1,0-3.31,0c0,1.19.66,1.89,1.66,1.89a1.66,1.66,0,0,0,1.65-1.89m-4.35,0a2.7,2.7,0,1,1,2.7,2.79,2.56,2.56,0,0,1-2.7-2.79"/><path class="cls-1" d="M156.9,52.17h1v1a1.71,1.71,0,0,1,1.75-1.06c1.47,0,2.15.84,2.15,2.53V57.5h-1.05V54.69c0-1.16-.44-1.71-1.43-1.71s-1.42.66-1.42,1.83V57.5h-1Z"/><path class="cls-1" d="M167.16,54.83a1.67,1.67,0,1,0-1.65,1.89,1.67,1.67,0,0,0,1.65-1.89m-4.36,0a2.45,2.45,0,0,1,2.44-2.76,2,2,0,0,1,1.89,1.14v-1h1v5.32h-1v-1a2,2,0,0,1-1.88,1.14,2.47,2.47,0,0,1-2.45-2.79"/><rect class="cls-1" x="169.47" y="50.44" width="1.05" height="7.06"/><path class="cls-1" d="M174,57.47l.14-.94a2.37,2.37,0,0,0,.53,0c.87,0,1.15-.5,1.15-1.6V50.75h1.09V55.1c0,1.72-.66,2.45-2.08,2.45a4.25,4.25,0,0,1-.83-.08"/><path class="cls-1" d="M182.32,54.83a1.67,1.67,0,1,0-3.31,0c0,1.19.66,1.89,1.66,1.89a1.66,1.66,0,0,0,1.65-1.89m-4.35,0a2.7,2.7,0,1,1,2.7,2.79,2.56,2.56,0,0,1-2.7-2.79"/><path class="cls-1" d="M184.32,55.07v-2.9h1.05V55c0,1.16.41,1.71,1.42,1.71s1.42-.66,1.42-1.84V52.17h1V57.5h-1v-1a1.7,1.7,0,0,1-1.74,1.07c-1.47,0-2.15-.86-2.15-2.53"/><path class="cls-1" d="M190.55,52.17h1v.89a1.55,1.55,0,0,1,1.87-.93l-.11,1c-1.2-.23-1.76.42-1.76,1.72V57.5h-1Z"/><path class="cls-1" d="M194.19,52.17h1.05v1A1.7,1.7,0,0,1,197,52.08c1.47,0,2.15.84,2.15,2.53V57.5h-1V54.69c0-1.16-.45-1.71-1.44-1.71s-1.41.66-1.41,1.83V57.5h-1.05Z"/><path class="cls-1" d="M204.45,54.83a1.67,1.67,0,1,0-1.65,1.89,1.67,1.67,0,0,0,1.65-1.89m-4.36,0a2.45,2.45,0,0,1,2.44-2.76,2,2,0,0,1,1.89,1.14v-1h1v5.32h-1v-1a2,2,0,0,1-1.88,1.14,2.48,2.48,0,0,1-2.45-2.79"/><rect class="cls-1" x="206.77" y="50.44" width="1.05" height="7.06"/></svg>