<svg id="Layer_1" data-name="Layer 1" xmlns="http://www.w3.org/2000/svg" viewBox="0 0 222 81"><defs><style>.cls-1{fill:#6d6d6d;}</style></defs><path class="cls-1" d="M53.94,20.16c0,1.32-.06,2.63-.13,3.94s-.18,2.63-.3,3.94a77.38,77.38,0,0,0-.25,9.63A29.11,29.11,0,0,1,53,43a12.43,12.43,0,0,1-3.13,6.35c-.82.94-1.71,1.8-2.57,2.7-.21.23-.38.19-.59,0a10.57,10.57,0,0,0-.87-.69c.29-.3.43-.47.59-.62a24.66,24.66,0,0,0,3.63-4.14,9.82,9.82,0,0,0,1.49-4.66c.12-1.53.1-3.08.11-4.62,0-2.51,0-5,0-7.54a2.2,2.2,0,0,0,0-.5c-.3.36-.67.66-.66,1.21,0,1.41,0,2.82,0,4.22,0,2.19,0,4.37-.09,6.55a10.41,10.41,0,0,1-3.86,8c-.44.36-.87.74-1.27,1.14s-.45.26-.69,0a4.6,4.6,0,0,0-.56-.52c-.23-.17-.21-.32,0-.5.52-.47,1-1,1.57-1.41a8.2,8.2,0,0,0,3.18-6c.13-1.81.08-3.64.12-5.47,0-1.31,0-2.63.07-3.94,0-.16,0-.32,0-.56-.47.33-.78.61-.78,1.2,0,2.78,0,5.57-.1,8.35a8.27,8.27,0,0,1-2.31,5.46,26.89,26.89,0,0,1-2.08,1.91.38.38,0,0,1-.64,0c-.24-.28-.51-.53-.81-.83l.68-.53a9.08,9.08,0,0,0,3.31-4.57A7.36,7.36,0,0,0,47,41c.07-2.2.08-4.4.11-6.59,0-.21,0-.41,0-.64-.5.14-.71.36-.7.84,0,1.68,0,3.35,0,5a9.77,9.77,0,0,1-1.5,5.41,8.38,8.38,0,0,1-2.2,2.28.43.43,0,0,1-.63,0c-.28-.28-.61-.51-1-.81.25-.21.36-.31.48-.39a7,7,0,0,0,3.21-5.81c0-1.61,0-3.23.07-4.84,0-.13,0-.26,0-.39-.58,0-.73.12-.74.64,0,1.34,0,2.69,0,4a7.53,7.53,0,0,1-3,6.05.38.38,0,0,1-.64,0,6.92,6.92,0,0,0-.6-.61c-.24-.21-.21-.36,0-.57.53-.48,1.06-1,1.54-1.49A4.58,4.58,0,0,0,42.51,40c0-1.22,0-2.45,0-3.68,0-.38-.11-.49-.51-.41a14.87,14.87,0,0,1-6.67,0c-.2,0-.42-.1-.44.19-.09,2-.35,4,.3,5.92a6.57,6.57,0,0,0,1.95,2.48c1.38,1.35,2.77,2.69,4.14,4s2.88,3,4.34,4.42c.29.29.31.46,0,.75-.8.75-.78.76-1.54,0l-5.44-5.36c-1.29-1.27-2.59-2.52-3.83-3.84A6.28,6.28,0,0,1,33.2,40c0-1.39.09-2.78.15-4.17,0-.55-.09-.69-.82-.77,0,.17,0,.34,0,.51,0,1.4,0,2.79,0,4.18a8,8,0,0,0,2.26,6c1.14,1.23,2.38,2.36,3.59,3.51s2.25,2.06,3.36,3.11c.8.74,1.57,1.51,2.37,2.26.25.24.27.41,0,.66-.84.79-.57.82-1.42,0-2-1.85-4-3.67-6-5.52A20.91,20.91,0,0,1,32,44.27a8.12,8.12,0,0,1-.94-3.79c0-1.93,0-3.86,0-5.79a.73.73,0,0,0-.66-.82,3.78,3.78,0,0,0-.06.47c0,2.12,0,4.25,0,6.37a8.82,8.82,0,0,0,2.52,6c2.18,2.26,4.5,4.38,6.77,6.56,1,.94,2,1.89,2.94,2.83.25.23.23.38,0,.62-.81.82-.8.82-1.61,0-2.67-2.58-5.3-5.2-8-7.72a12.33,12.33,0,0,1-4-6.84,8.05,8.05,0,0,1-.15-1.47c0-2.44,0-4.88,0-7.32a1.64,1.64,0,0,0-.94-1.61,2.43,2.43,0,0,0,0,.45c.06,2.69.08,5.38.19,8.07a10.71,10.71,0,0,0,1.76,6,32.58,32.58,0,0,0,2.94,3.48c1.69,1.77,3.43,3.47,5.18,5.18,1,.93,2,1.82,3,2.72.3.26.3.44,0,.71-.89.84-.89.86-1.83.06a83.83,83.83,0,0,1-7.52-7.2c-1-1.13-2.06-2.28-3-3.47a8.92,8.92,0,0,1-2-5.5c-.1-3.76-.08-7.53-.11-11.3a2,2,0,0,0-.75-1.86,4.38,4.38,0,0,0,0,.47c0,3.74-.06,7.48,0,11.22a13.39,13.39,0,0,0,3.94,9.64C32,52.76,34.41,55,36.8,57.23c.81.77,1.59,1.58,2.4,2.36.19.19.17.34,0,.53-.87,1-.84.94-1.76.07-2.52-2.4-5-4.8-7.6-7.17a16.27,16.27,0,0,1-5.59-10.63c-.16-1.86-.1-3.74-.13-5.61S24.09,33,24,31s-.29-3.94-.4-5.9c-.09-1.66-.14-3.32-.2-5H28.8c0,.15,0,.3,0,.45a9.77,9.77,0,0,0,6.76,9.21c.54.18.58.16.76-.39.29-.87.57-1.74.85-2.6s.28-.87-.45-1.41a1.37,1.37,0,0,1-.26-.37,1.25,1.25,0,0,1,.4-.13c1.14,0,2.28-.05,3.41,0a3.75,3.75,0,0,1,1.29.53c.22.12.16.3,0,.43s-.24.12-.36.18a1,1,0,0,0-.61,1.29c.18.72.42,1.43.62,2.15.08.32.22.39.54.29a9.57,9.57,0,0,0,3.65-2.15,9.39,9.39,0,0,0,3.08-7.51ZM25.2,21.79l-.17,0a1.73,1.73,0,0,0-.05.38,13.43,13.43,0,0,0,4.47,8.89,13.23,13.23,0,0,0,11.63,3.35,13.41,13.41,0,0,0,10.22-8,12.66,12.66,0,0,0,1.08-4.15c0-.14-.11-.29-.17-.44a1.41,1.41,0,0,0-.23.41,13.23,13.23,0,0,1-2.77,6.62A12.93,12.93,0,0,1,39.61,34a12.94,12.94,0,0,1-10.75-4.25,13.07,13.07,0,0,1-3.5-7.38A5.7,5.7,0,0,0,25.2,21.79ZM38.64,32.48c.56,0,1.14-.06,1.69-.15a11.74,11.74,0,0,0,9.17-7,18.37,18.37,0,0,0,.88-3c0-.15-.09-.34-.15-.52-.1.14-.21.28-.3.43s0,.12,0,.18a10.32,10.32,0,0,1-1.17,3.37c-2.55,4.35-6.33,6.42-11.37,6a10.87,10.87,0,0,1-7.65-4.22,11.57,11.57,0,0,1-2.38-5.4c0-.13-.17-.23-.26-.34a2.11,2.11,0,0,0-.17.38,1.09,1.09,0,0,0,0,.31A12,12,0,0,0,38.64,32.48Z"/><path class="cls-1" d="M64.63,46.54V33.93l3.08-3.08h9.17l3,3v2.87H76.27V35.22L75,34H69.64l-1.36,1.37v9.81l1.36,1.37H75l1.26-1.26V43.72h3.65v2.87l-3,3H67.71Z"/><path class="cls-1" d="M86.86,42l-6.68-11.1h4l4.48,7.7h0l4.48-7.7h4L90.51,42v7.67H86.86Z"/><path class="cls-1" d="M103.19,33.93h-5.6V30.85h14.86v3.08h-5.61V49.62h-3.65Z"/><path class="cls-1" d="M113.92,46.54V33.93L117,30.85h9.65l3.09,3.08V46.54l-3.09,3.08H117Zm10.81,0,1.37-1.37V35.33L124.73,34h-5.79l-1.37,1.37v9.81l1.37,1.37Z"/><path class="cls-1" d="M133,30.85h3.38L141.92,43H142l5.6-12.12H151V49.62h-3.51V38.2h-.06L143.08,47h-2.26l-4.29-8.79h-.05V49.62H133Z"/><path class="cls-1" d="M159.7,30.85H163l6.86,18.77h-3.7l-1.52-4.15h-6.6l-1.53,4.15h-3.7Zm4.16,11.61-2.49-7.13h-.06l-2.41,7.13Z"/><path class="cls-1" d="M173.62,33.93H168V30.85h14.86v3.08h-5.61V49.62h-3.65Z"/><path class="cls-1" d="M185,30.85h13.57v3.08h-9.92v4.75h9.14v3h-9.14v4.83h9.92v3.08H185Z"/></svg>