<svg id="Layer_1" data-name="Layer 1" xmlns="http://www.w3.org/2000/svg" viewBox="0 0 200 81"><defs><style>.cls-1{fill:#6d6d6d;}</style></defs><rect class="cls-1" x="60.87" y="25.31" width="5.28" height="19.94" transform="translate(-0.3 0.55) rotate(-0.5)"/><rect class="cls-1" x="71.09" y="30.72" width="5.33" height="14.43" transform="translate(-0.33 0.64) rotate(-0.5)"/><path class="cls-1" d="M62.1,60.05h-.88l-.07-8.25h1v.81a4.66,4.66,0,0,1,.49-.39,3,3,0,0,1,1.6-.44h.69a4.24,4.24,0,0,1,2.67.57,1.8,1.8,0,0,1,.79,1.59v1.29a2.32,2.32,0,0,1-.56,1.84,3.46,3.46,0,0,1-2.28.56h-.78a4.4,4.4,0,0,1-2.12-.29,2.19,2.19,0,0,1-.54-.51Zm3.41-3.23c.12,0,1,.13,1.45-.27a1.45,1.45,0,0,0,.46-1.27v-.59a2.07,2.07,0,0,0-.38-1.6,2.15,2.15,0,0,0-1.61-.52h-1a3.59,3.59,0,0,0-1.75.41c-.54.38-.55.83-.55,1.42v1a1.29,1.29,0,0,0,.42,1.15,4.46,4.46,0,0,0,2.32.31Z"/><path class="cls-1" d="M70.47,57.59h-.94l0-5.86h.89v1A3.25,3.25,0,0,1,71,52.1a2.23,2.23,0,0,1,1.26-.39h.94a2.56,2.56,0,0,1,1.67.41c.72.53.63.9.63,1.55v.73h-.91v-.8a1,1,0,0,0-.37-.8,1.27,1.27,0,0,0-.76-.3H72.22a1.86,1.86,0,0,0-1.35.48,1.33,1.33,0,0,0-.43,1.1Z"/><path class="cls-1" d="M80.69,51.64c.32,0,2,0,2.57.64a2.27,2.27,0,0,1,.6,1.76l0,.46a2.87,2.87,0,0,1-.68,2.4,3.88,3.88,0,0,1-2.58.6h-.8a4.31,4.31,0,0,1-2.39-.4A2.34,2.34,0,0,1,76.51,55v-.5c0-1,0-1.8.84-2.34a4.24,4.24,0,0,1,2.13-.47Zm-3.26,2.74v.35a2,2,0,0,0,.46,1.62,2.72,2.72,0,0,0,1.77.35h1a3.35,3.35,0,0,0,1.77-.32c.52-.37.5-1.14.49-1.63v-.62a1.87,1.87,0,0,0-.45-1.25,2.83,2.83,0,0,0-1.92-.43H79.5a2.58,2.58,0,0,0-1.49.34,1.69,1.69,0,0,0-.58,1.6"/><path class="cls-1" d="M85.93,59.85H85L85,51.6h1v.82a3.72,3.72,0,0,1,.49-.4A2.91,2.91,0,0,1,88,51.58h.68a4.18,4.18,0,0,1,2.67.58,1.79,1.79,0,0,1,.79,1.59l0,1.29a2.34,2.34,0,0,1-.57,1.84,3.51,3.51,0,0,1-2.28.55h-.77a4.57,4.57,0,0,1-2.13-.28,2.64,2.64,0,0,1-.54-.51Zm3.4-3.24c.12,0,1,.14,1.46-.26a1.5,1.5,0,0,0,.45-1.28v-.59a2.07,2.07,0,0,0-.38-1.6,2.19,2.19,0,0,0-1.61-.52h-1a3.59,3.59,0,0,0-1.75.41,1.45,1.45,0,0,0-.55,1.42v1a1.29,1.29,0,0,0,.42,1.14,4.48,4.48,0,0,0,2.32.31Z"/><path class="cls-1" d="M100.46,54.63l-6.23,0V55a1.53,1.53,0,0,0,.27,1.06,2.64,2.64,0,0,0,1.62.5h1.27a3.77,3.77,0,0,0,1.73-.21.76.76,0,0,0,.42-.63v-.18h.9v.25a1.26,1.26,0,0,1-.41,1,3.61,3.61,0,0,1-2.46.57H96.45a3.38,3.38,0,0,1-2.33-.5,2.54,2.54,0,0,1-.86-2.28v-.53a2.55,2.55,0,0,1,.58-1.84c.45-.56,1.69-.69,2.8-.71h.64c1.23,0,2.08.08,2.62.71a2.29,2.29,0,0,1,.56,1.94Zm-.94-.86v-.39a.9.9,0,0,0-.42-.79,3.8,3.8,0,0,0-2-.3H96.5c-.7,0-1.72,0-2.15.66a1.31,1.31,0,0,0-.13.62v.24Z"/><path class="cls-1" d="M102.59,57.31h-.94l-.05-5.86h.89v.95a3.18,3.18,0,0,1,.58-.58,2.26,2.26,0,0,1,1.26-.39h1a2.57,2.57,0,0,1,1.67.41c.71.53.62.9.63,1.55v.73h-.9v-.8a1,1,0,0,0-.37-.8,1.21,1.21,0,0,0-.75-.3h-1.22a1.86,1.86,0,0,0-1.35.48,1.3,1.3,0,0,0-.43,1.1Z"/><path class="cls-1" d="M111.71,56.42h.8c.53,0,.8,0,1.08-.32a.92.92,0,0,0,.21-.61v-.91h.85v.7a1.49,1.49,0,0,1-.62,1.56,2.61,2.61,0,0,1-1.35.4H112a2.24,2.24,0,0,1-2-.85,3.1,3.1,0,0,1-.31-1.5l0-2.7h-1.44l0-.79h1.38V50h.91v1.42l3.89,0v.79l-3.87,0,0,2.71c0,.17,0,1,.31,1.25a1.17,1.17,0,0,0,.82.29"/><path class="cls-1" d="M116.53,51.33l2.84,5.11,2.32-5.16h1.09l-3.1,6.57a2.21,2.21,0,0,1-.94,1,2.5,2.5,0,0,1-1.37.3h-.6v-.83h.37a2,2,0,0,0,1.19-.22,1.39,1.39,0,0,0,.44-.49l.15-.29-3.45-6Z"/><path class="cls-1" d="M106.5,37.13a3,3,0,0,0-.56-1.91c-.51-.56-1.75-.65-2.92-.64h-.7a3.9,3.9,0,0,0-2.71.91,3.3,3.3,0,0,0-.56,1.79l.07,7.65-5.3,0-.07-7.52a3.37,3.37,0,0,0-.58-2.11,3.37,3.37,0,0,0-2.5-.66h-1a3.89,3.89,0,0,0-2.83.74,3.32,3.32,0,0,0-.54,2l.06,7.57-5.39,0-.13-14.43,5,0,0,2.62a10,10,0,0,1,1.25-1.43,5.59,5.59,0,0,1,3.79-1.24h1.2a8.35,8.35,0,0,1,4.59,1.26,4.34,4.34,0,0,1,1.45,2,4.32,4.32,0,0,1,1-1.93,4.84,4.84,0,0,1,3.63-1.43l2.06,0c1.59,0,4.11.28,5.42,1.62a5.61,5.61,0,0,1,1.43,3.75l.08,9-5.24,0Z"/><path class="cls-1" d="M153.22,21.24s-11.09-3.09-17.53,7.47c0,0,7.74,4,17.53-7.47M135,16.94a9.44,9.44,0,0,0,0,11.26s4-3.27,0-11.26m-6.25,23v.51a.94.94,0,0,1-.5.82,6,6,0,0,1-2.69.29h-1.1c-1.4,0-2.82.16-3.5-.82a3.81,3.81,0,0,1-.26-2L134,38.72V37.31l-.06-7.11-9.9.09c-2.11,0-5.71.24-7,1.57a6.68,6.68,0,0,0-1.46,4.49l.08,8.52,7.68-.07h3c2.17,0,5.84.08,7.21-2.1a5.6,5.6,0,0,0,.59-2v-.71Zm-8.08-4.76a1.15,1.15,0,0,1,.33-.83c.38-.49,1.74-.62,2.67-.63h1.92a6.83,6.83,0,0,1,2.5.28,1.42,1.42,0,0,1,.75,1.18v.54l-8.17.07Z"/></svg>