<svg id="Layer_1" data-name="Layer 1" xmlns="http://www.w3.org/2000/svg" viewBox="0 0 234 81"><defs><style>.cls-1{fill:#6d6d6d;}</style></defs><path class="cls-1" d="M58.43,17.5h0l0,13.09A16.53,16.53,0,0,1,42,47.16l0-13.09A16.51,16.51,0,0,1,58.43,17.5"/><path class="cls-1" d="M62.71,26.2h-.05l.05,19A18.4,18.4,0,0,0,81.11,63.5h0l0-19A18.4,18.4,0,0,0,62.71,26.2m1.19,1.27a17.19,17.19,0,0,1,10.93,5,17.37,17.37,0,0,1,3.68,5.45,16.88,16.88,0,0,1,1.36,6.66l0,17.67a16.76,16.76,0,0,1-5.48-1.3,17.3,17.3,0,0,1-9.14-9.11,17.25,17.25,0,0,1-1.36-6.67Z"/><path class="cls-1" d="M46,55.72A6.25,6.25,0,1,1,52.3,62,6.25,6.25,0,0,1,46,55.72"/><path class="cls-1" d="M106.57,45.08H96.69l4.89-11.36Zm8.74,7.14c-1.12-.36-1.67-1.5-2.54-3.47L104.7,30.4c-.2-.46-.34-.61-.75-.61h-5v.54l.12,0c.77.2,1.28.43,1.87,1.82l.27.67L94.52,48.3c-1.32,3-2,3.66-2.91,4l-.1,0v.53h4.76v-.54l-.11,0a2,2,0,0,1-1.33-1,3.58,3.58,0,0,1,.4-2.85l1.14-2.67h10.48l1.69,3.85c.46,1,.57,1.68.37,2.06s-.45.44-1,.56l-.12,0v.61h7.62v-.59Z"/><path class="cls-1" d="M125.19,51.3l-.1.11a2.1,2.1,0,0,1-1.56.77c-1.28,0-1.49-.72-1.49-3.06V39h3.25v-.72H122V33h-.61l0,.12c-.76,3.44-2.81,5-4.34,5.19l-.13,0V39h1.25V49.64c0,2.2,1.53,3.52,4.09,3.52a3.93,3.93,0,0,0,3.28-1.3l.09-.11Z"/><path class="cls-1" d="M137.1,38c-1.18,0-2.24.44-4.22,2.66l-.33.39v-3.3l-5.38,2.77v.56l.13,0c1.36.19,1.36.19,1.36,4.06v2.31c0,4,0,4.41-1.29,4.77l-.11,0v.57h6.89v-.57l-.11,0c-1.41-.35-1.49-.62-1.49-4.77V42l.59-.68c.89-.95,1.32-1.07,1.59-1.07a1.89,1.89,0,0,1,1,.47,2.71,2.71,0,0,0,1.66.68c.95,0,1.55-.68,1.55-1.79S138.26,38,137.1,38"/><path class="cls-1" d="M143.87,36.53a2.14,2.14,0,1,0-2.15-2.13,2.14,2.14,0,0,0,2.15,2.13"/><path class="cls-1" d="M147.31,52.25c-1.36-.35-1.44-.62-1.44-4.77V37.76l-5.37,2.77v.56l.13,0c1.33.19,1.36.19,1.36,4v2.4c0,4.15-.08,4.42-1.41,4.77l-.11,0v.57h6.95v-.57Z"/><path class="cls-1" d="M165.22,52.25c-1.31-.36-1.34-.68-1.34-4.77V37.76l-5.35,2.77v.56l.13,0c1.33.19,1.33.19,1.33,3.67v4.49l-.29.29c-1.58,1.52-2.78,2.47-3.81,2.47s-1.6-.8-1.6-2.3v-12L149,40.53v.56l.13,0c1.32.19,1.32.19,1.32,3.67v4.13c0,1.56.55,4.19,4.22,4.19,2.19,0,3.75-1.36,5.3-2.87l.07-.08v2.7h5.34v-.57Z"/><path class="cls-1" d="M191.93,52.25c-1.25-.36-1.28-.67-1.28-4.77V42.29c0-3.7-2.45-4.25-3.92-4.25-2,0-3.49,1.38-4.6,2.38q-.16.16-.33.3l-.44.43A3.58,3.58,0,0,0,177.51,38c-2,0-3.59,1.44-4.73,2.5l-.55.52v-3.3l-5.37,2.77v.56l.13,0c1.35.19,1.35.19,1.35,4v2.4c0,4,0,4.41-1.28,4.77l-.11,0v.57h6.8v-.57l-.12,0c-1.32-.35-1.4-.62-1.4-4.77V41.93l.56-.53c1.23-1.14,2.51-2.26,3.47-2.26s1.28.64,1.28,2v6.37c0,4.09,0,4.41-1.41,4.77l-.11,0v.57h6.8v-.57l-.11,0c-1.26-.36-1.29-.67-1.29-4.77V42l.59-.53c1.27-1.21,2.49-2.29,3.48-2.29.84,0,1.27.66,1.27,2v6.37c0,4.15-.08,4.42-1.4,4.77l-.11,0v.57H192v-.57Z"/></svg>