<svg id="Layer_1" data-name="Layer 1" xmlns="http://www.w3.org/2000/svg" viewBox="0 0 234 81"><defs><style>.cls-1{fill:#6d6d6d;}</style></defs><path class="cls-1" d="M113.58,27.06V38.34c0,6.59-4.49,8.86-9.94,8.86-5.77,0-9.94-2.68-9.94-8.83V27.06h5V38.49c0,2.85,2.07,4.57,4.92,4.57,2.62,0,5-1.37,5-4.92V27.06Z"/><path class="cls-1" d="M130.92,32.22c-2.88-1.28-4.6-1.78-6.29-1.78s-2.92.64-2.92,1.63c0,3,10.12,2.16,10.12,9.1,0,3.82-3.21,6-7.64,6A13.47,13.47,0,0,1,117,45.28V41c2.85,1.9,4.6,2.57,6.79,2.57,1.9,0,2.92-.67,2.92-1.84,0-3.26-10.12-2.07-10.12-9.21,0-3.44,3-5.71,7.58-5.71a16.21,16.21,0,0,1,6.73,1.54Z"/><polygon class="cls-1" points="96.24 51.84 94.39 51.84 94.39 53.16 96.24 53.16 96.24 53.77 94.39 53.77 94.39 55.98 93.7 55.98 93.7 51.23 96.24 51.23 96.24 51.84"/><path class="cls-1" d="M97.66,53.3h.44c.73,0,.94-.37.93-.77s-.27-.72-.93-.72h-.44Zm.52-2.07c1,0,1.56.51,1.56,1.33a1.19,1.19,0,0,1-.8,1.16A4,4,0,0,1,100,55c.2.32.32.48.65.94h-.82l-.62-1c-.63-1-.92-1.08-1.26-1.08h-.29V56H97V51.23Z"/><path class="cls-1" d="M103,55.41a1.81,1.81,0,1,0-1.84-1.81A1.78,1.78,0,0,0,103,55.41m0-4.25a2.44,2.44,0,1,1-2.55,2.44A2.42,2.42,0,0,1,103,51.16"/><polygon class="cls-1" points="110.69 55.98 110.01 55.98 110.01 52.28 109.99 52.28 108.53 54.12 108.42 54.12 106.95 52.28 106.94 52.28 106.94 55.98 106.26 55.98 106.26 51.23 106.9 51.23 108.47 53.18 110.06 51.23 110.69 51.23 110.69 55.98"/><polygon class="cls-1" points="117 51.84 115.36 51.84 115.36 55.98 114.68 55.98 114.68 51.84 113.03 51.84 113.03 51.23 117 51.23 117 51.84"/><polygon class="cls-1" points="121.6 55.98 120.92 55.98 120.92 53.91 118.25 53.91 118.25 55.98 117.57 55.98 117.57 51.23 118.25 51.23 118.25 53.3 120.92 53.3 120.92 51.23 121.6 51.23 121.6 55.98"/><polygon class="cls-1" points="125.33 51.84 123.31 51.84 123.31 53.27 125.26 53.27 125.26 53.89 123.31 53.89 123.31 55.36 125.39 55.36 125.39 55.98 122.63 55.98 122.63 51.23 125.33 51.23 125.33 51.84"/><path class="cls-1" d="M129,54h1.48l-.77-1.72Zm3.09,2h-.7l-.63-1.4h-2l-.6,1.4h-.7l2-4.78h.48Z"/><polygon class="cls-1" points="136.94 55.98 136.25 55.98 136.25 52.28 136.24 52.28 134.78 54.12 134.66 54.12 133.2 52.28 133.19 52.28 133.19 55.98 132.5 55.98 132.5 51.23 133.15 51.23 134.72 53.18 136.3 51.23 136.94 51.23 136.94 55.98"/><polygon class="cls-1" points="140.64 51.84 138.63 51.84 138.63 53.27 140.57 53.27 140.57 53.89 138.63 53.89 138.63 55.36 140.7 55.36 140.7 55.98 137.94 55.98 137.94 51.23 140.64 51.23 140.64 51.84"/><path class="cls-1" d="M142.12,53.3h.44c.73,0,.94-.37.93-.77s-.27-.72-.93-.72h-.44Zm.52-2.07c1,0,1.56.51,1.56,1.33a1.19,1.19,0,0,1-.8,1.16A4,4,0,0,1,144.46,55c.2.32.32.48.65.94h-.81l-.63-1c-.63-1-.92-1.08-1.26-1.08h-.29V56h-.68V51.23Z"/><rect class="cls-1" x="145.43" y="51.23" width="0.68" height="4.75"/><path class="cls-1" d="M151.07,52.29a3.08,3.08,0,0,0-1.64-.5,1.8,1.8,0,0,0-1.89,1.82,1.78,1.78,0,0,0,1.92,1.8,3.18,3.18,0,0,0,1.66-.53v.74a3.44,3.44,0,0,1-1.72.42,2.43,2.43,0,0,1-2.57-2.37,2.48,2.48,0,0,1,2.61-2.51,4.16,4.16,0,0,1,1.63.39Z"/><path class="cls-1" d="M152.91,54h1.47l-.76-1.72ZM156,56h-.7l-.63-1.4h-2L152,56h-.7l2-4.78h.48Z"/><polygon class="cls-1" points="160.84 55.98 160.25 55.98 157.07 52.32 157.07 55.98 156.43 55.98 156.43 51.23 156.98 51.23 160.2 54.9 160.2 51.23 160.84 51.23 160.84 55.98"/><path class="cls-1" d="M164.64,53.31h.77a.73.73,0,0,0,.83-.75c0-.34-.18-.72-.8-.72h-.8Zm.8-2.08A1.33,1.33,0,0,1,167,52.59c0,.75-.5,1.33-1.6,1.33h-.71V56H164V51.23Z"/><polygon class="cls-1" points="170.24 51.84 168.22 51.84 168.22 53.27 170.17 53.27 170.17 53.89 168.22 53.89 168.22 55.36 170.3 55.36 170.3 55.98 167.54 55.98 167.54 51.23 170.24 51.23 170.24 51.84"/><path class="cls-1" d="M173.36,55.41a1.81,1.81,0,1,0-1.85-1.81,1.78,1.78,0,0,0,1.85,1.81m0-4.25a2.44,2.44,0,1,1-2.55,2.44,2.42,2.42,0,0,1,2.55-2.44"/><path class="cls-1" d="M177.26,53.31H178a.74.74,0,0,0,.84-.75c0-.34-.19-.72-.81-.72h-.8Zm.8-2.08a1.33,1.33,0,0,1,1.51,1.36c0,.75-.5,1.33-1.6,1.33h-.71V56h-.68V51.23Z"/><polygon class="cls-1" points="180.84 55.36 182.98 55.36 182.98 55.98 180.15 55.98 180.15 51.23 180.84 51.23 180.84 55.36"/><polygon class="cls-1" points="186.2 51.84 184.19 51.84 184.19 53.27 186.13 53.27 186.13 53.89 184.19 53.89 184.19 55.36 186.26 55.36 186.26 55.98 183.5 55.98 183.5 51.23 186.2 51.23 186.2 51.84"/><path class="cls-1" d="M47.84,40.5A20.44,20.44,0,1,1,68.28,60.94,20.46,20.46,0,0,1,47.84,40.5m-.35,0A20.79,20.79,0,1,0,68.28,19.71,20.82,20.82,0,0,0,47.49,40.5"/><path class="cls-1" d="M52,40.5A16.27,16.27,0,1,1,68.28,56.77,16.29,16.29,0,0,1,52,40.5m-.34,0A16.61,16.61,0,1,0,68.28,23.89,16.63,16.63,0,0,0,51.67,40.5"/><rect class="cls-1" x="58.82" y="46.37" width="19" height="2.98"/><rect class="cls-1" x="58.82" y="29.08" width="19" height="5.51"/><rect class="cls-1" x="58.82" y="29.08" width="19" height="5.51"/><polygon class="cls-1" points="86.81 37.15 86.81 37.93 86.34 37.3 85.59 37.54 86.06 36.92 85.59 36.29 86.34 36.54 86.82 35.9 86.82 36.68 87.55 36.92 86.81 37.15"/><polygon class="cls-1" points="49.61 36.69 49.61 35.9 50.08 36.53 50.83 36.29 50.37 36.92 50.83 37.55 50.08 37.3 49.6 37.93 49.6 37.15 48.88 36.91 49.61 36.69"/><path class="cls-1" d="M51.1,30.78l1.15.57a1.14,1.14,0,0,1-1,2l-1.16-.57.25-.51,1.17.58a.51.51,0,0,0,.71-.28.52.52,0,0,0-.25-.76l-1.13-.56Z"/><polygon class="cls-1" points="54.65 29.56 54.38 29.95 52.47 30.14 53.66 30.98 53.34 31.44 51.48 30.14 51.78 29.71 53.61 29.52 52.48 28.73 52.8 28.26 54.65 29.56"/><rect class="cls-1" x="54.03" y="27.14" width="0.56" height="2.27" transform="translate(-2.74 50.5) rotate(-48.78)"/><polygon class="cls-1" points="55.87 25.7 55.27 26.26 56.54 27.61 56.13 27.99 54.86 26.64 54.27 27.21 53.98 26.9 55.59 25.39 55.87 25.7"/><polygon class="cls-1" points="58.71 25.89 57.36 26.88 56.03 25.05 57.36 24.08 57.6 24.41 56.73 25.05 57.01 25.44 57.84 24.83 58.09 25.16 57.26 25.77 57.58 26.21 58.47 25.56 58.71 25.89"/><path class="cls-1" d="M59.3,25.06l.33-.18a.72.72,0,1,0-.7-1.25l-.31.17Zm-.5-1.83a1.14,1.14,0,1,1,1,2l-.83.44-1.08-2Z"/><path class="cls-1" d="M63.05,22.1a1.68,1.68,0,0,0-.74,0c-.19.06-.29.17-.26.28.11.32,1.17-.13,1.42.62.13.42-.13.77-.61.93A1.58,1.58,0,0,1,62,24l-.15-.46a1.42,1.42,0,0,0,.83,0c.2-.07.29-.18.25-.31-.12-.35-1.17.14-1.43-.63-.12-.38.12-.73.62-.89a1.83,1.83,0,0,1,.79-.07Z"/><polygon class="cls-1" points="65.62 21.36 64.82 21.52 65.18 23.34 64.62 23.45 64.27 21.63 63.46 21.79 63.38 21.38 65.54 20.96 65.62 21.36"/><path class="cls-1" d="M66.73,21.4l-.26.91.69-.06ZM68.19,23l-.61.05-.22-.44-1,.08-.13.46-.6,0,.73-2.33.66-.05Z"/><polygon class="cls-1" points="70.12 21.27 69.3 21.24 69.23 23.09 68.67 23.07 68.73 21.22 67.92 21.19 67.93 20.77 70.14 20.86 70.12 21.27"/><polygon class="cls-1" points="71.97 23.43 70.32 23.16 70.69 20.93 72.31 21.2 72.25 21.61 71.18 21.43 71.1 21.9 72.12 22.07 72.06 22.48 71.04 22.31 70.95 22.85 72.04 23.03 71.97 23.43"/><path class="cls-1" d="M74.25,22.32a2,2,0,0,0-.63-.39c-.2-.05-.34,0-.38.09-.09.33,1.05.55.83,1.31-.12.42-.54.56-1,.43a1.54,1.54,0,0,1-.73-.44l.13-.47a1.27,1.27,0,0,0,.67.49c.21.06.34,0,.37-.11.11-.35-1-.54-.82-1.32.11-.38.5-.53,1-.39a1.83,1.83,0,0,1,.69.38Z"/><path class="cls-1" d="M76.37,23.13l-.68.65.63.3Zm.46,2.12L76.28,25l0-.48-.92-.43-.35.33-.54-.25,1.79-1.66.59.27Z"/><path class="cls-1" d="M79.57,25.12a2,2,0,0,0-.6-.64.71.71,0,0,0-1.08.14.69.69,0,0,0,.29,1,.8.8,0,0,0,.35.14l.15-.22-.28-.18.23-.35.75.49-.51.77a1.45,1.45,0,0,1-1-.26,1.18,1.18,0,1,1,1.28-1.94,2.2,2.2,0,0,1,.65.64Z"/><polygon class="cls-1" points="80.31 27.85 79.05 26.76 80.52 25.05 81.77 26.12 81.5 26.44 80.68 25.73 80.37 26.09 81.15 26.76 80.88 27.08 80.1 26.41 79.75 26.82 80.58 27.54 80.31 27.85"/><polygon class="cls-1" points="82.1 29.81 81.78 29.45 82.04 27.55 80.95 28.51 80.58 28.09 82.28 26.59 82.62 26.98 82.38 28.8 83.42 27.88 83.8 28.31 82.1 29.81"/><path class="cls-1" d="M83.66,31.81a1.67,1.67,0,0,1-.67-.62,1.19,1.19,0,0,1,.25-1.74A1.23,1.23,0,0,1,85,30a1.61,1.61,0,0,1,.28.79l-.42.28a1.58,1.58,0,0,0-.23-.78.73.73,0,0,0-1-.31.72.72,0,0,0-.14,1,1.75,1.75,0,0,0,.66.55Z"/><polygon class="cls-1" points="84.9 32.38 85.61 31.05 85.9 31.67 85.47 32.42 86.32 32.56 86.61 33.18 85.14 32.88 84.18 33.34 83.94 32.83 84.9 32.38"/><polygon class="cls-1" points="48.63 41 48.65 41.56 50.91 41.48 50.89 40.91 48.63 41"/><polygon class="cls-1" points="49 44.52 48.93 44.05 50.18 42.6 48.75 42.81 48.66 42.25 50.91 41.92 50.98 42.44 49.79 43.83 51.16 43.63 51.24 44.19 49 44.52"/><polygon class="cls-1" points="51.53 46.66 51.29 45.87 49.52 46.4 49.36 45.86 51.13 45.33 50.9 44.54 51.29 44.42 51.92 46.54 51.53 46.66"/><polygon class="cls-1" points="50.63 49.21 49.96 47.68 52.03 46.77 52.69 48.28 52.31 48.45 51.88 47.45 51.44 47.65 51.86 48.59 51.48 48.76 51.06 47.81 50.56 48.03 51.01 49.04 50.63 49.21"/><path class="cls-1" d="M52.35,49.56l.15.26c.08.13.21.23.38.13s.17-.22.06-.4l-.15-.25Zm1-.08a.67.67,0,0,1-.19,1,.58.58,0,0,1-.67,0c0,.26-.19.46-.6,1.08l-.31-.54c.29-.45.62-.75.46-1L52,49.78l-.79.46-.29-.48,2-1.16Z"/><polygon class="cls-1" points="53.62 53.65 53.33 53.28 53.68 51.4 52.55 52.3 52.19 51.86 53.96 50.45 54.29 50.85 53.96 52.66 55.04 51.8 55.4 52.24 53.62 53.65"/><path class="cls-1" d="M56,53.61,55.2,54l.51.47Zm-.21,2.16-.44-.41.17-.46-.74-.69-.43.22L54,54l2.21-1,.48.45Z"/><polygon class="cls-1" points="58.62 55.51 57.96 55.02 56.87 56.51 56.41 56.17 57.51 54.69 56.85 54.2 57.09 53.87 58.87 55.17 58.62 55.51"/><rect class="cls-1" x="57.66" y="56.14" width="2.27" height="0.56" transform="translate(-19.78 78.01) rotate(-59.19)"/><path class="cls-1" d="M60.9,56.74a.66.66,0,0,0-.94.33.72.72,0,1,0,.94-.33m-.77,1.69a1.17,1.17,0,1,1,1.66-.52,1.21,1.21,0,0,1-1.66.52"/><polygon class="cls-1" points="64.15 59.76 63.69 59.63 62.87 57.9 62.48 59.3 61.94 59.15 62.54 56.97 63.04 57.1 63.84 58.76 64.2 57.42 64.75 57.58 64.15 59.76"/><path class="cls-1" d="M66.08,58.3l-.44.84.7.08Zm1.11,1.87-.61-.07-.13-.47-1-.12-.22.43-.6-.08,1.18-2.14.65.08Z"/><polygon class="cls-1" points="69.38 60.15 67.65 60.16 67.63 57.9 68.2 57.9 68.21 59.74 69.37 59.74 69.38 60.15"/><path class="cls-1" d="M71.35,59.51l.37-.06a.67.67,0,0,0,.59-.84.66.66,0,0,0-.86-.57l-.36.06Zm.1-1.89a1.12,1.12,0,0,1,1.43.89c.12.64-.2,1.18-1.09,1.34l-.92.17-.41-2.22Z"/><polygon class="cls-1" points="75.27 58.93 73.68 59.44 72.98 57.29 74.55 56.78 74.68 57.18 73.65 57.51 73.8 57.96 74.78 57.64 74.91 58.04 73.92 58.36 74.09 58.88 75.14 58.53 75.27 58.93"/><polygon class="cls-1" points="76.85 58.27 76.63 58.38 74.66 56.76 75.22 56.5 76.31 57.42 76.28 56.01 76.83 55.75 76.85 58.27"/><polygon class="cls-1" points="79.58 56.67 78.17 57.56 76.96 55.65 78.35 54.77 78.58 55.12 77.66 55.7 77.91 56.1 78.79 55.55 79.01 55.9 78.13 56.45 78.42 56.91 79.36 56.32 79.58 56.67"/><polygon class="cls-1" points="81.42 55.23 80.07 56.32 78.65 54.55 79.09 54.2 80.25 55.64 81.16 54.91 81.42 55.23"/><path class="cls-1" d="M81.31,52.76a.67.67,0,0,0,0,1,.68.68,0,0,0,1,0,.69.69,0,1,0-1-1M82.66,54a1.17,1.17,0,1,1,0-1.74,1.2,1.2,0,0,1,0,1.74"/><path class="cls-1" d="M83.15,51.32l.15-.21c.15-.22.13-.35,0-.44s-.28-.06-.46.19l-.11.16Zm-.51-.9a.68.68,0,1,1,1.11.77l-.26.37.74.52-.32.46-1.86-1.3Z"/><polygon class="cls-1" points="84.12 47.83 84.34 47.39 86.36 48.41 86.1 48.92 84.84 48.28 85.2 49.14 85.16 49.22 84.25 49.44 85.51 50.08 85.25 50.59 83.23 49.56 83.46 49.12 84.54 48.85 84.12 47.83"/><polygon class="cls-1" points="87.15 46.16 86.61 47.74 84.47 47 85 45.45 85.4 45.58 85.04 46.6 85.49 46.76 85.83 45.78 86.22 45.92 85.89 46.89 86.4 47.07 86.76 46.02 87.15 46.16"/><polygon class="cls-1" points="87.78 43.29 87.69 43.76 86.02 44.7 87.45 44.98 87.34 45.54 85.12 45.1 85.22 44.59 86.81 43.67 85.45 43.41 85.56 42.85 87.78 43.29"/><polygon class="cls-1" points="86.12 40.43 86.08 41.25 87.92 41.35 87.89 41.91 86.05 41.81 86 42.63 85.58 42.61 85.71 40.41 86.12 40.43"/><path class="cls-1" d="M65.32,42.4l0,0h0l0,0s0,0,0,0,0,0,0,0,0,0,0,0,0,.06,0,.1a.05.05,0,0,0,0,0s-.08.07-.13.11l.16-.05,0,0,0,0h0l0,0h0s0,0,0,0"/><path class="cls-1" d="M66.3,37.09l0,0a0,0,0,0,1,0,0l0,0,0,0,0,0,0,.11v0h0l0,0s0,0,0,0v0a.43.43,0,0,1,0-.05.06.06,0,0,0,0,0v0s0-.08,0-.09,0,0-.06,0,0,0,0,0h-.09a0,0,0,0,0,0,0"/><path class="cls-1" d="M66.5,37.71l0,0v0h0v0l0,0h0a.46.46,0,0,1-.07.07l0,0s-.06.06-.1.06a.1.1,0,0,1,0,0s0-.05,0-.08,0,0,0,0,0,0,0,0,0,0-.06,0l0,0h0s0,0,0,.05L66,38s0,0,0,.05a.12.12,0,0,1,0,0h0l0,0a0,0,0,0,1,0,0h.28l.1,0s0,0,.07,0l0,0h0l0,0h0l0,0s0,0,0,0l0,0,0,0s0,0,0,0,0,0,0,0l0-.11a.14.14,0,0,0,0-.09l-.08.11"/><path class="cls-1" d="M65.85,37.84h0l-.07.06a.46.46,0,0,1-.07.07l0,0-.07.07,0,0h0a0,0,0,0,0,0,0,0,0,0,0,0,0,0h0a.05.05,0,0,0,0,0h.09l.15-.17a.62.62,0,0,0,.12-.19,0,0,0,0,0,0,0"/><path class="cls-1" d="M65.44,37.94h0l0,0,0,0-.07,0,0,0a.15.15,0,0,0,0,.07h.08a0,0,0,0,0,0,0l0,0,0,0,0,0s0,0,0,0h0l0,0h0a73806138536.7,73806138536.7,0,0,0,0-.06h0"/><path class="cls-1" d="M65.13,38h0L65,38l0,0a.05.05,0,0,0,0,0h0l0,0h0s0,0,0,0l0,0,0,0s0,0,0,0h0v0h0"/><path class="cls-1" d="M76.07,38.27h-.15s0,0,0,0l0,0s0,0,0,0l0,0a0,0,0,0,0,0,0l0,0,0,0,0,0,.14-.07h0"/><path class="cls-1" d="M76.42,38.3l0,0,0,0,.08,0h.06l0,0h0v0s-.08,0-.14,0"/><path class="cls-1" d="M68.26,38.87l-.09-.07,0,0h0L68,38.69l0,0h0l0,0-.09,0h-.07l-.11,0-.11,0h-.08l0,0h-.28l.19,0,.16.08s0,0,0,.08,0,0,0,0l0,0s0,0,0,0v0l0,0h0s0,0,0,0l0,0,0,0,.07,0,.08,0,0,0,0,0,0,0h0a.15.15,0,0,1,0,.07h0l0,0s-.06.05-.07.09l.07,0,0,0,.06,0s.1-.07.14-.06a.14.14,0,0,1,0,.06h0l0,0v0h0l0,0a.08.08,0,0,1,0,0l0,0,0,0s0,0,0,0,0,0,0,0l.11-.07h0L68,39s0,0,0,0h.06s0,0,.06,0V39s0,0,0,0a.67.67,0,0,0,.15-.06s0,0,.06-.06-.06-.06-.09-.08"/><path class="cls-1" d="M73.42,38.66s0,0,0,0h0s0,0,0,0l0,0h0l0,0s0,0,0,0l0,0h0l0,0h0v0h0l0,0h0a0,0,0,0,0,0,0l0,0s0-.05,0-.08Z"/><path class="cls-1" d="M68.22,39.26l-.06,0h-.08l-.08.05,0,0s0,0,0,0l0,0h.11l.06,0h0l.05,0a.71.71,0,0,1,.13-.12s0,0,0,0l-.2.08"/><path class="cls-1" d="M63.63,39.72h-.07l0,0v0h0s0,0,0,0h0l-.12.08,0,0h0l0,0,0,0h0l-.09.08,0,.06v0s0,0,0,0,0,0,0,0h.07l0,0h0l0,0h0l0,0h0l0,0h0l.07,0,.07-.05,0,0h0l0,0h0s0,0,0,0,0,0,0,0,0,0,0,0"/><path class="cls-1" d="M64,39.77l-.06,0-.07.05h0l0,0,0,0h0l-.06,0-.06,0a.7.7,0,0,0-.17.13s0,0,0,0,0,0,0,0,0,0,.06,0h.06s0,0,0,0l0,0h0l0,0,0,0,.13-.08a.26.26,0,0,1,.12,0,0,0,0,0,0,0,0s0,0,.05-.06,0,0-.05,0"/><path class="cls-1" d="M64,40h-.12l0,0h0a.58.58,0,0,0-.12.1s0,0-.06.05a0,0,0,0,0,0,0s0,0,0,0A3.3,3.3,0,0,1,64,40.1s0,0,0,0a0,0,0,0,0,0,0"/><path class="cls-1" d="M73.16,40.12h-.07l-.15,0a2.62,2.62,0,0,0-.28,0h-.14a.78.78,0,0,0-.14,0l0,0a.06.06,0,0,0-.07,0s0,0,0,.05l0,0h0s0,0,0,0h0s0,0,0,0h.38l.09,0s0,0,.06,0l0,0h0s.07,0,.08,0,.06,0,0-.08l-.07,0"/><path class="cls-1" d="M65.26,40.13l-.05,0-.13.1-.06,0,0,0h0l-.07,0h0l0,0h0l0,0s0,0-.06,0h0a.23.23,0,0,0-.07.07l0,0s0,0,0,0h0l0,0h.09s0,0,0,0h0l.06,0,0,0,0,0,0,0v0h0l0,0,0,0,.06,0,0,0,0,0h0l0,0h0l0,0,0,0,0,0h0"/><path class="cls-1" d="M70.17,40.27l0,0h0l-.08,0-.07,0,0,0h0l0,0h0s0,0,0,0h0l0,0s0,0,0,0h.11s0,0,0,0l0,0h0l0,0,0-.05,0,0h.06l0,0s0,0,0,0h0l0,0"/><path class="cls-1" d="M64.26,40.3s0,0,0,0l-.07,0s0,0,0,0,0,0,0,0,0,0,0,0a1.26,1.26,0,0,0-.2.2l0,0h0l0,0s0,0,0,0,0,0,0,0,0,0,0,0h0l.06,0h0l0,0h0l.08,0h0s0,0,0,0h0l0,0s0,0,0-.05h0l0,0h0s0,0,0,0,0,0,0,0,0,0,0,0"/><path class="cls-1" d="M65.91,40.39a.34.34,0,0,0-.11,0s0,0,0,0h0v0h0s0,0,0,0h0s0,.06,0,.06l.08-.07h.07l0,0,0,0s.06,0,.06-.06h0"/><path class="cls-1" d="M70.27,40.45s0,0,0,0h-.12a.5.5,0,0,0-.13,0s0,0,0,0h0s0,0,0,0h0s0,0,0,0a.14.14,0,0,0,0,.06H70l0,0,0,0,0,0h0s0,0,0,0a1.49,1.49,0,0,1,.14-.12s0,0,0,0l-.08.05"/><path class="cls-1" d="M70.53,40.5h0l-.07,0h0l0,0h0l0,0,0,0h-.19s0,0,0,0h0v0h0a.06.06,0,0,0,0,0l0,0a.09.09,0,0,0,.07,0,.12.12,0,0,0,.09,0s0,0,0,0h0v0h.06l.07-.06.1-.1s0,0,0,0a.08.08,0,0,0,0,0h0s0,0,0,0l0,0h0a.1.1,0,0,1,0,0"/><path class="cls-1" d="M60,41.75h0s0,0,0,0h.05l.06,0h0l0,0h0l0,0h0l.06,0,.06,0,.11-.08s0,0,0,0h0v0h0l0,0h0s0,0,.05,0a0,0,0,0,1,0,0l0,0,.07-.07.1-.07h0v0h0l0,0A.11.11,0,0,0,61,41l0,0h0s0,0,0,0h0s0,0,0,0l0,0,0,0a1.17,1.17,0,0,0,.16-.15l0,0h0v0h0a0,0,0,0,1,0,0h0l0,0a0,0,0,0,1,0,0h0l0,0h0l0,0h0l-.1.08,0,0h0s0,0,0,0,0,0,0,0l0,0h0l0,0h0a0,0,0,0,0,0,0h0l0,0h0s0,0,0,0h-.07l-.09.07h0s0,0-.07,0a.24.24,0,0,1-.08.06l-.07,0h0v0h0v0h0l-.06,0v0h0s0,0,0,0h0l-.12.14s0,0,0,0l.11,0"/><path class="cls-1" d="M75.44,40.84a.27.27,0,0,0-.08.07l0,0-.07.06h0l0,0-.09.09h0s0,0,0,0l0,0h0l0,0h0l-.08.08,0,0,0,0-.12.11,0,0h0l0,0v0l0,0,0,0,0,0h0l0,0,0,0h0l0,0-.05,0h0l-.13.09s0,0,0,0l.56,0a.13.13,0,0,0,.09,0s0,0,.08-.07l0,0a1,1,0,0,1,.15-.14l0,0s0,0,0,0l.06-.05,0,0,.19-.18h0l0-.05,0,0v0l.06-.06.07-.08h0l.06-.07,0-.06s0,0,0,0l-.06.05-.06,0,0,0-.07,0a0,0,0,0,1,0,0l0,0-.06,0h0l0,0h0l-.11.09,0,0h0l0,0-.05,0h0l0,0h0v0l0,0-.06.06h0l-.07,0h-.13l0,0h0l0,0h-.11s0,0,0-.06h0l.13-.11h0l0,0,.06-.05h0l.06-.05,0,0,0,0s0,0,0,0a0,0,0,0,0,0,0l0-.05,0,0,0,0v0l0,0a.52.52,0,0,0,.1-.11h0v0a0,0,0,0,0,0,0h0v0s0,0,0,0h0l0,0h0l0,0s0,0,0,0h0s0,0,0,0a.27.27,0,0,1-.08.07"/><path class="cls-1" d="M74.58,40.84l-.09.06h0a0,0,0,0,0,0,0,.34.34,0,0,0-.09.08l0,0,0,0h0l-.06,0,0,0h0l0,0-.09.08-.18.15h0l-.13.1,0,0-.06.06,0,0-.06.05h0l-.05,0,0,0a.11.11,0,0,0,.08,0l.09,0H74l.06-.05.11-.1.11-.1.06-.06.07-.06h0s0,0,0,0,0,0,0,0h0s0,0,.06-.06h0s0,0,0,0l.07-.08,0,0,0,0h0s0,0,0,0v0l0,0h0s0,0,0,0,0,0,0-.06a.07.07,0,0,0-.05,0l0,0h0v0l-.07.06-.09.08-.1.09,0,0,0,0h0l0,0,0,0s0,0,0,0l0,0h0l-.05,0,0,0-.1.07-.09,0-.08,0-.17,0s0,0,0,0,0,0,0,0a.12.12,0,0,0,0,0s0,0,.07,0l.09-.09,0,0,.14-.15a0,0,0,0,0,0,0l.07-.07.1-.1h0s.06,0,.07-.06l0,0,.06-.05,0,0s0,0,0,0l0,0a0,0,0,0,0,0,0l0,0"/><path class="cls-1" d="M60.62,40.84a.09.09,0,0,0,0,0h0l0,0,0,0-.05,0h0l0,0h-.07l0,0h0l-.06,0s0,0,0,0h0l0,0-.1.08-.05,0h0l0,0h0l-.07.07a.1.1,0,0,1,0,0l0,0,0,0h0l0,0,0,0,0,0,0,0h0s0,0,0,0l-.06.06a.05.05,0,0,0,0,0s.05,0,.08,0h.1l0,0,0,0h.09v0h0l0,0H60a.34.34,0,0,0,.06-.06l0,0a0,0,0,0,0,0,0l0,0,0,0,0,0,0,0,.06-.07h0a0,0,0,0,0,0,0h0l0-.05h0l0,0,.08-.08.1-.1.05,0,.06-.05h0l-.06,0"/><path class="cls-1" d="M68.65,40.94l-.16.09-.07,0h0s0,0,0,0l0,0,0,0h0s0,0,0,0h0v0h0l0,0h0l0,0a.06.06,0,0,0,0,0h0a.15.15,0,0,0,.07,0s0,0,0,0h0a0,0,0,0,0,0,0l.09-.07s.06,0,.08-.08l.13-.13,0,0s0,0,0,0h0l0,0"/><path class="cls-1" d="M76.27,41h0l0,0h0v0h0l-.07,0-.06.07h0s0,.05,0,.08,0,0,0,0a.43.43,0,0,1,0,.05.1.1,0,0,0,0-.05.12.12,0,0,0,0,0h0l0,0h0l0,0,.06-.09h0l0-.05,0,0h0l0,0"/><path class="cls-1" d="M60,41h0l-.07,0v0l0,0,0,0h0l0,0,0,0h0l-.13.1h0l0,0,0,0-.06,0,0,0v0h0s0,0,0,0h0l0,0h0v0l-.05,0h0l-.07.09s0,.07-.05.11l.08,0,.11,0,.06,0,0,0,0,0s0,0,.08-.07l.07-.07.07-.08.07-.08s0,0,0,0l0,0h0l0,0h0l0,0L60,41s0,0,0,0Z"/><path class="cls-1" d="M76.59,41.06h0l0,0h0s0,0,0,0h0l0,0,0,0-.08.06a.18.18,0,0,1,0,.07l0,0h0l-.06.06h0v0h0v0h0s-.08,0-.11.08l-.21.14-.11.08h0l0,0s0,0,0,0h0s0,0,.05,0l.07,0h0l.07,0h0l0,0h0l0,0h0l0,0h0l0,0,.1-.07,0,0h0s0,0,0,0l0,0,0,0,0,0s0,0,0,0h0l0,0h0a0,0,0,0,0,0,0l.05,0v0s0,0,0,0l0-.06,0,0a0,0,0,0,1,0,0h0v0l0,0s0,0,0,0l0,0s0,0,0,0h0"/><path class="cls-1" d="M76.28,41.83l.12-.08,0,0h.06v0h0l0,0s0,0,0,0h0l0,0,0,0,0,0,0,0h0s0,0,0,0h0a0,0,0,0,1,0,0h0v0l.07-.07s0,0,0,0l0,0,.05-.06v0a.09.09,0,0,0,0-.05h0s0,0,0,0h0l0,0h0l-.07.06,0,0s0,0,0,0l0,0,0,0h0l0,0-.06,0,0,0h0l0,0-.09.07,0,0,0,0-.06,0-.06,0-.13.08h0l0,0-.1.07,0,0-.05,0s0,0,0,0a.76.76,0,0,0,.31-.1"/><path class="cls-1" d="M68.9,41.1a.91.91,0,0,0-.14.07h0l0,0h-.1l0,0h0l0,0-.06,0h0s0,0,0,0l0,0h.1l.07,0h0l0,0,0,0,0,0,0,0h0v0l0,0,0,0h0v0l0,0h0s0,0,0,0Z"/><path class="cls-1" d="M69.08,41.22l-.07.05h0l0,0h0l0,0h0l0,0,0,0-.1.08h0s0,0-.05,0l.13,0v0h.07l0,0,0,0,0,0,.1-.07.09-.08s0,0,0,0l0,0a.7.7,0,0,0,.06-.09h0l-.07,0"/><path class="cls-1" d="M75.9,41.26h0l-.06.05,0,0h0l-.06.06h0v0s0,0,0,0h0l0,0h0l0,0,0,0h0a.15.15,0,0,1-.06.05h0l-.05,0h0a.2.2,0,0,0-.06.07.08.08,0,0,0-.05,0h.12s0,0,0,0l.06,0h0l0,0,0,0,0,0s0,0,0,0h0l0,0h0l0,0,0,0,0-.06,0,0h0v0h0s0-.06,0-.1Z"/><path class="cls-1" d="M76.53,42h0a.7.7,0,0,0,.2-.08l0,0a.14.14,0,0,0,.07-.06h0l0,0h0s0,0,0,0l0,0h0l0,0h0l0,0h0l0-.05,0,0,0,0s0,0,0,0l.06-.09a.24.24,0,0,0,.06-.08s0,0,0,0,0,0-.06,0a.16.16,0,0,1-.07.07l-.07.07,0,0h0l0,0,0,0,0,0s0,0,0,0l0,0h0v0h0l0,0-.07.05h0l-.19.13h0l0,0h0s0,0,0,.06h.11"/><path class="cls-1" d="M69.32,41.34h0l0,0,0,0,0,0h0s0,0-.07,0h0l-.06,0a.52.52,0,0,1-.11.1h0l0,0,0,0s0,0,.07,0l0,0H69l0,0h0s0,0,0,0h0s0,0,.07-.06l0,0,.06-.07h0v0s0,0,0-.05l0,0a0,0,0,0,0,0,0s0,0,0,0"/><path class="cls-1" d="M69.5,41.55l-.09.05-.1,0s0,0,0,0l0,0h0l-.06.06,0,0,0,0,0,0,0,0,0,0,.07,0h0a.1.1,0,0,0,.08,0h0l0,0,0,0,0,0s0,0,0,0h0l0-.05h0l0,0h0l0,0h0l0,0h0"/><path class="cls-1" d="M69.93,41.59s-.05,0-.07,0l0,0,0,0-.06,0s0,0,0,0l-.07,0h0l-.06,0,0,0,0,0,0,0s0,0,0,0l-.05,0,0,0h0a0,0,0,0,0,0,0h0l0,0a.05.05,0,0,0,0,0,.22.22,0,0,0,.16,0l.06,0h0a.07.07,0,0,1,.07,0l0,0h0v0s0,0,0,0l-.05,0h0l0,0,0,0h.08a.7.7,0,0,0,.14,0l.09,0h0s0,0,0,0,0,0,0,0v0s0,0,0,0l0,0-.11.11s0,0,0,0,0,0,0,0,.08,0,.11,0l.05,0,0,0h0l0-.05h0l.1-.08,0,0h0l0,0s.05,0,.06-.06h0v0l0,0,0-.06s0,0,0,0l0,0-.06,0-.06,0H70s0,0,0,0,0,0,0-.07A.34.34,0,0,1,70,42l0,0s0,0,0,0v0l0,0h0v0l0,0v0h0l0,0-.1.09-.07.06h0v0l0,0,0,0h0v0a.08.08,0,0,1-.07,0,.06.06,0,0,1,0-.06s0,0,0,0a0,0,0,0,0,0,0s0,0,0,0a.13.13,0,0,0,0-.06s0,0,0,0h0l0-.06s0,0,0-.07Z"/><path class="cls-1" d="M67.49,39.81s0,0,0,0a.09.09,0,0,1,0,0,0,0,0,0,1,0,0h0v0l0,0s0,0,0,0h0s0,0,0,0v0l.06,0a.25.25,0,0,0,.13,0L67.8,40l0,0,0,0s0,0,0,0l0,0,0,0h0l0,.05,0,0v0h0s0,0,0,0l.09,0h0l.07,0,.06,0s0,0,0,0a.2.2,0,0,1-.06.07l0,0-.06.06,0,0a.07.07,0,0,0,0,.05s0,0,0,0h0v0h0l0,0a.08.08,0,0,1,0,0l0,0v0l-.09,0,0,0s0,0,0,0h0l-.06,0,0,0,0,0s0,0,0,0,0,0,0,0l0,0s0,0,0,0l-.08,0,0,0H67s0,0,0,0,0,0,0,0A.12.12,0,0,0,67,40.9s.06,0,.08-.07a.46.46,0,0,0,.07-.07h0a0,0,0,0,0,0,0h0l0,0,0,0,0,0h0s0,0,0-.05l0,0v0l0,0s0-.08,0-.1l-.13.08,0,0h0l-.08.06-.24.16s0,0,0,0,0-.05,0-.06l0,0,0,0,.1-.1,0,0,.14-.16a.08.08,0,0,0,0,0l0,0a.06.06,0,0,0,0-.09.91.91,0,0,0-.16.11l-.12.08,0,0,0,0V40.3h0v0l0-.06h0s0,0,0,0,0,0,0-.06v0l0,0h0l-.09,0h-.07s0,0-.09,0v0h0l0,0s0,0,0,0h0s0,0,0,0h-.25s0,0,0,0l0,0h.09l.1,0h0l0,0H67l.13-.07.2-.11a.54.54,0,0,0-.11.18h0a0,0,0,0,0,0,0h.08l0,0,.11-.06.06,0"/><path class="cls-1" d="M68.07,40.45h0l0,.06-.05.06h0s0,0,0,0h0s0,0,0,0,0,0,0,0h0l0,.05s0,0-.05,0l0,0,0,0h0a.1.1,0,0,0,0,0h0l0,0h0l-.06,0a0,0,0,0,1,0,0h0l-.07,0c-.05,0-.06,0-.1,0s0,0,0,0L67.4,41l0,0h.06l.08-.09h0v0h0l0,0,0,0h0l0,0h0l0,0h0l0,0h0v0h0l.07,0,.12-.08"/><path class="cls-1" d="M62.76,40.5l0,0h0l-.1.08h0a0,0,0,0,0,0,0l0,0h0l0,0h0v0h0l0,0,0,0,0,0-.06.05v0h0l0,0h-.08l-.05,0,0,0,0,0,0,0,.07-.07h0l0,0,0,0h0s0,0,.06,0h0s0,0,0,0h0l0,0,.19-.09"/><path class="cls-1" d="M61.82,40.59s0,0,0,0h0v0h0l-.09.1-.14.13,0,.05s0,0,0,0h0s0,0-.08.07,0,0,0,0h0l0,0-.11.08-.06.06,0,0h0l0,0-.06,0h0l-.05,0h0l0,0a.09.09,0,0,1,0,0l0,.06,0,0h0s0,0-.06.06a.07.07,0,0,0,0,.06h0a.09.09,0,0,0,.05,0h.06s0,0,0,0h0L61,41.6s0,0,0,0h0l.07-.07,0,0,0,0,.07-.07.08-.06.05,0h0l0,0,.09-.08h0s0,0,.07,0h0a0,0,0,0,1,0,0h0l.06-.05h0l0,0h0a0,0,0,0,1,0,0h0s0,0,0,0l0,0,0,0,0,0,0,0h0a1.05,1.05,0,0,1,.11-.07l-.12.13h0l0,0s0,0,0,0,0,0,0,0h0l0,0h0a.17.17,0,0,0-.06.08s-.06,0-.09.07l-.07,0h0l-.17.17s0,0,0,0l-.07,0a.12.12,0,0,1-.05.05l0,0,0,0,0,0h0l0,0,0,0a.46.46,0,0,1-.07.07l-.09.1,0,0h0s0,0,0,0h-.14l-.56,0h0v0h0a.1.1,0,0,1,.05,0h0l0,0,0,0h0l0,0,0,0h.1l.06,0s0,0,0,0h0v0h0s0-.05.06-.06l.22-.19,0,0,.09-.06a.08.08,0,0,1,0,0h.06l.05,0,0,0h0l0,0h0s0,0,0,0l.05,0,.06,0,0,0,0,0h0l0,0,.05,0,0,0h0l0,0h0l0,0h0l0,0a0,0,0,0,1,0,0l0,0a.09.09,0,0,1,0,0"/><path class="cls-1" d="M73.74,41.11l0,0,.07,0h0l0,0h0l0,0,0,0s0,0,0,0,0,0,0,0l0,0,0,0,.1-.08s0,0,.07,0l-.08.09,0,.07s0,0,0,0h0l0,.06,0,0s0,0-.06,0l-.06,0s0,0,0,0h-.1"/><path class="cls-1" d="M59.29,41.19l0,0h0s0,0,0,0l0,0h0l0,0-.05,0-.12.11,0,0s0,0,0,0l0,0h0v.16h0l.06,0h0l0,0h0s0,0,0,0h0l0,0h0v0h0v0l0,0v0l0,0,0,0a0,0,0,0,0,0,0l0,0v0h0v0h0v0h0l0,0v0h0l0,0s0,0,0,0"/><path class="cls-1" d="M71.34,42.14l0,0,0,.05h0v0l0,0a0,0,0,0,1,0,0h0v0l0,0v0h0l0,0,0,0-.1,0s-.12,0-.12,0,.06,0,.09,0,0,0,0,0H71l0,0s.08-.05.1-.08h0l.07-.07,0,0h0v0m-1.63,1.18h0s0,0,0,0h0s0,0,0,0a.08.08,0,0,0,0,0h0l0,0,0,0h0l0,0-.08.05h0l0,0,0,0s0,0,0,0h-.21l-.08,0h0s0,0,0,0,0,0,0,0a0,0,0,0,1,0,0h-.08v0h0l-.17-.12h0l0,0,0,0h0l0,0a.36.36,0,0,0-.09-.05l-.08-.06h0l0,0h0l0,0a.71.71,0,0,0-.09-.07s0,0,0,0l.06,0s0,0,0,0h.14s0,0,0,0a.13.13,0,0,1-.09,0l0,0,0,0h0l.05,0h.23l.06,0h.06l.08,0h0l.07,0,0,0h0s0,0,0,0a.15.15,0,0,1,.07,0v0h0s0,0,0,0h0s0,0,0,0,0,0,0,0,0,0,0,0h0l0,0h.07s0,0,0,.06l0,0v0a.05.05,0,0,0,0,0l0,0,0,0s0,0,0,0h0l0,0s0,0,0,0,0,0,0,0a.09.09,0,0,0,0,0h0l-.08,0s0,0-.05,0H68.8l0,0s0,0,0,0l0,0,.06,0h0l.08,0s0,0,0,0a.15.15,0,0,0,.07,0l.07,0h0l0,0h0l0,0,0,0h0s0,0,.07,0,0,0,0,0h.05s0,0,0,0h0l0,0h0l0,.05s0,0-.05.06l-.07.06,0,0h0l0,0h-.06l0,0s0,0,0,0,0,0,0,0h0s0,0,0,0h0l0,0h.06s0,0,0,0l0,0,.06,0,0,0s0,0,.06,0h0l.06,0h0l0,0,0,0,.05,0,0,0s.06-.07.08,0a0,0,0,0,0,0,0s0,0,0,0l0,.07h0s0,0,0,0h0l0,0v0l0,0v0l-.07.06-.05.06.09,0,0,0,0,0v0l0,0,0,0h0a.08.08,0,0,0,0,0s0,0,.05,0,0,.05,0,.09m-1,.66s0,0,0,0h0v0l0,0,0,0a0,0,0,0,0,0,0h0l0,0,0,0h0l0,0,0,0h0l0,0h-.07a.32.32,0,0,1-.14,0h0l0,0H68a0,0,0,0,1,0,0h-.06s0,0,0,0h0l-.11-.08h-.09s0,0,0,0h0l0,0,0,0h0s0,0,0,0h0a.31.31,0,0,1,0-.1.08.08,0,0,0,0,0s0,0,0,0a.08.08,0,0,1,0,0,.06.06,0,0,1,0,0s0,0,0,0a0,0,0,0,0,0,0h0s0,0,0-.05a0,0,0,0,0,0,0l0,0v0a.16.16,0,0,0,0-.07l0,0s0,0,0,0,0,0,0,0a1.26,1.26,0,0,1,.28,0l.08.05h0l0,0,0,0h0l0,0h0s0,0,0,.06,0,0,0,0h0l-.08,0-.06,0H67.7a0,0,0,0,0,0,0s0,0,.06,0l0,0h0a.18.18,0,0,0,.07,0h0l0,0H68l.09-.06h.05l0,0a0,0,0,0,1,0,0l0,0,0,0h0l0,0,0,0h0l0,0a.24.24,0,0,1,0,.09l0,0,0,0h0s0,0,0,0l0,0s0,0,0,0a.08.08,0,0,0,0,0s0,0,0,0h-.05l-.08,0-.06,0h-.08l0,0a0,0,0,0,0,.06,0H68l.07,0h0l0,0h0l.06,0,0,0h0l0,0,0,0h0l0,0s0,0,0,0h0s0,0,.07,0,0-.06.08-.05a0,0,0,0,1,0,.05l0,0s0,0,0,0v0a.13.13,0,0,0,0,.06l-.07.06-.05,0h0s0,0,0,0h-.06l0,0h0l0,0h0a0,0,0,0,1,0,0h0l0,0h.26s0,0,0,0l.06,0h.06l0,0a.1.1,0,0,1,0,0s0,0,0,0,.07-.07.08,0h0v0a0,0,0,0,0,0,0h0s0,0,0,0h0l0,0-.06.06,0,0,0,0a.1.1,0,0,0,0,0h0s0,0-.06,0l-.06.06a.32.32,0,0,0,.09,0l0,0,0,0,0,0h0a.11.11,0,0,1,.06,0l0,0s0,0,.07,0a.09.09,0,0,1,0,.1m-1.3-.36a.07.07,0,0,0,0,.05l0,0s0,0,0,0a0,0,0,0,1,0,0,.09.09,0,0,1,0,0s0,0,0,0h0l0,0h0v0h0l0,0-.05,0h0l0,0h-.07l0,0-.05,0,0,0h.16l.07,0h.26v0l0,0h0l-.07,0h-.06l-.18,0h-.25l-.06,0h-.08l0,0,0,0h0s0,0,0,0,0,0,.07,0h.13l0,0h0s0,0,0,0l0,0a.25.25,0,0,0,.13-.05l.08,0,.05,0,0,0h0l0,0s0,0,0,0h0s0,0,0,0l0,0,0,0-.06,0-.07,0h-.23a.32.32,0,0,1-.17,0l0,0s.07,0,.1,0l.06,0h0l0,0h0a0,0,0,0,1,0,0h.09l.1,0s0,0,0,0h0s0,0,0,0h0l0,0,0,0,0,0a.72.72,0,0,0-.21,0h-.08l-.07,0h-.21s0,0-.06,0v0l0,0h0s0,0,.05,0l0,0a.53.53,0,0,1,.19-.06h0l.06,0h0a.49.49,0,0,0,.17-.06l.07-.06.14-.13v0h0v0l0,0,0-.05v0l0,0s0,0,0,0h0l0-.08v0s0,0,0,0h0v0s0,0,0,0a.93.93,0,0,0-.14-.14l-.06,0,0,0,0,0v0a.08.08,0,0,1,0,0s0,0,0-.06h.08s0,0,0,0l0,0,.11.07,0,.05,0,0a0,0,0,0,0,0,0v0l0,0s0,0,0,0h0v0l0,.06,0,0s0,0,0,0h0s0,0,0,0h0s0,0,0,.08a0,0,0,0,1,0,0V43h0v0s0,.05,0,.07l0,.06s0,0,0,0v0h0s0,0,0,0l0,0s0,0,0,0h0l0,0s0,0,0,.05l0,.07v0h0a0,0,0,0,1,0,0l0,0m-.6-1.33,0,.05,0,0h0l0,0h-.06l-.14.05,0,0h-.06s0,0,0,0v0h.08c.06,0,.13,0,.17,0s0,0,0,0,0,0,0,.05,0,0-.05,0,0,0,0,0l0,0,0,0s-.05,0-.1,0l0,0h0a0,0,0,0,0,0,0h0l-.06,0-.08-.07h0l0,0h0l0-.06v-.09l0-.1s0,0,0-.06l0-.07h.06a.1.1,0,0,1,.08-.08.37.37,0,0,1,.15,0h0l0,0,.07,0v0h0s0,0,0,0h0s0,0,0,.05l0,0,0,0h0s0,0,0,0m-.36,1v0l0,0,0,0-.07.09a.57.57,0,0,0-.11.11l0,0h0l-.07.06a.05.05,0,0,0,0,0l-.11,0h-.26l0,0h0l0,0h-.07l0,0h0l0,0,0,0,0-.05a.24.24,0,0,1,0-.1s0,0,0-.06,0,0,0,0l0,0a.07.07,0,0,1,0,0l0,0s0,0,0,0h.07s0,0,.05,0h.14a.86.86,0,0,0,.17,0l0,0a.1.1,0,0,0,.07,0h0l.09-.07,0,0,0,0,0,0-.09,0h0l-.12.05-.11,0a.34.34,0,0,1-.14,0h0l0,0a.08.08,0,0,1,0,0h0a.05.05,0,0,1,0,0l0,0h0l.06,0,.06,0h.07s0,0,0,0,.06,0,.09,0h.08l0,0,.06,0,.07,0,0,0-.19.06-.1,0-.1,0-.19.06a1.42,1.42,0,0,1-.2,0h-.16a0,0,0,0,0,0,0s0,0,0,0l.06,0h0l0,0h.06l0,0h.1l0,0,.06,0,0,0h0l0,0,.14-.07s0,0,.06,0a.07.07,0,0,0-.06,0l-.13,0-.16,0h0s0,0,0,0h-.28l-.06,0H65.5s0,0,0,0h.12l.08,0,0,0h.06l0,0H66a0,0,0,0,1,0,0h.09l.09,0s0,0,0,0h0a.09.09,0,0,1,0,0h0l0,0s0,0,0,0a.07.07,0,0,1,.06,0h.06l0,0h.06l0,0,0,0a0,0,0,0,1,0,0h0s0,0,0,0,0,0,0,0l0,0h0l0,0,0,0,0-.06,0,0,0,0a0,0,0,0,1,0,0h0l0,0h0l0,0a0,0,0,0,1,0,0l0-.05c0-.08-.09-.11-.14-.17h0l0,0v0l0,0,0,0h-.06l-.07,0-.1,0,0,0h-.1s0,0,0,0h0l0,0,0,0,0,0,0,0h0s0,0,0,.05h0a.63.63,0,0,0-.07.12l-.06.12h0l0,.08h0a.09.09,0,0,0,0,0l-.07,0,0,0s0,0-.07,0a.09.09,0,0,1,0-.05l0,0v0l0,0s0,0,0-.06h0v0h0v0a0,0,0,0,0,0,0h0s0,0,0,0h0a0,0,0,0,1,0,0v0l0,0s0,0,0,0h0v0l0,0a0,0,0,0,1,0,0h0v0l.07-.06,0,0s0,0,0-.05l0,0h0s0,0,0,0l0,0h0l0,0h.1l.06,0h.09a.47.47,0,0,1,.21,0h0l0,0h0l0,0,0,0,0,0h0s0,0,.05.06a0,0,0,0,1,0,0l0,0h0a0,0,0,0,1,0,0l0,0v0s0,0,0,0,0,.06,0,.08a0,0,0,0,0,0,0v0a.06.06,0,0,1,0,0,0,0,0,0,1,0,0,.33.33,0,0,1,0,.12v0h0s0,0,0,0v0a.11.11,0,0,0,0,.07l0,.05v0a.1.1,0,0,0,0,0l-.06.08a0,0,0,0,1,0,0v0s0,0,0,0l0,.05h0v0l0,0h0v0l-.06.06v0h0l0,0,0,0h0l0,0,0,.05h0m-1.19-.27h0s0,0,0,0,0,0,0,0h-.06s0,0,0,0l-.07,0,0,0-.07,0a.53.53,0,0,1-.13,0h-.06a.12.12,0,0,1-.1,0h0l-.05,0,0,0,0,0h0l0,0s0,0,0,0,0,0,0,0h0l0,0,0-.05a.3.3,0,0,0,0-.1.07.07,0,0,1,0-.05,0,0,0,0,1,0,0h0v-.07h0s0,0,0,0,0,0,0,0,0,0,0,0h0l0,0h0l0,0h.06l0,0s0,0,0,0l0,0h0v0h0l0,0h0l-.06.06h.09l.1,0,.07,0s.08,0,.11,0h0a0,0,0,0,1,0,0l0,0a.08.08,0,0,1,0,.07,0,0,0,0,1,0,0h0l0,0h0l0,0s0,0,0,0a.1.1,0,0,1,0,0v0s0,0,0,0,0,0,0,0h.16l0,0h0l0,0,.05,0,0,0h0l0,0s0,0,.07,0l.13,0a0,0,0,0,1,0,0s.05,0,.06,0a0,0,0,0,1,0,0l0,0,0,0,0,0,0,0s0,0,0,.06h0L65,43h.07a.28.28,0,0,1,.11,0h0l.14-.07h0a0,0,0,0,0,0,0h0l0,0,0,0h0s0,0,0,0,0,.06,0,.08a0,0,0,0,0,0,0s0,0,0,0l0,0v0a.07.07,0,0,1-.05,0s0,0,0,0m-1-.79s0,0,0,0l-.1.06-.06,0h0s0,0,0,0l0,0a.11.11,0,0,0,.06.07s0,0,0,0l-.06,0h-.09l-.06,0h-.12l0,0,0,0h-.07v0s0,0,0,0l0,0h0l0,0h0v0l.08,0h0l0,0h.05s0,0,0,0l.07,0s0,0,0,0h-.06l-.06,0-.09,0h-.05l-.07,0h-.17l0,0a0,0,0,0,1,0,0h0a.05.05,0,0,1,0,0v0s0,0,0,0l0,0h0l0,0h0v0h0l0,0,.07,0-.09,0h-.09l0,0-.05,0s0,0-.08,0,0,0,0-.06h0a.22.22,0,0,1,.13-.08l0,0,0,0h0a.06.06,0,0,1,.06,0l0,0h.1s0,0,0,0H64a.12.12,0,0,1,.08,0h.07l.08,0,0,0h0s0,0,0,0h0l0,0s0,.05,0,.06a.19.19,0,0,0,0,.07v0a.09.09,0,0,1,0,0s0,0,0,.06l0,0h0m-.4.45a.19.19,0,0,1-.09,0l-.1,0-.06,0h0l0,0h0s0,0,0,0h0l0,0h0l0-.05s0,0,0-.06,0,0,0,0,0,0,.05,0l.06,0h.06l0,0h0l0,0s0,0,.05,0h.14v0l0,0a.09.09,0,0,1,0,.05m.87-.49s0,0,0,0,0,0,0-.07l.09,0H65l.06,0h.07l.06,0,0,0,.06,0a.08.08,0,0,0,0,0s0,0,0,0,0,0,0,0h0v0h0l0,0s0,0,0,.06a.06.06,0,0,1,0,0s0,0,0,.06l0,0,0,0h-.05l0,0-.06,0,0,0h-.32l0,0h0l-.06,0a0,0,0,0,0,0,0l0,0,0-.06a.08.08,0,0,1,0-.07.36.36,0,0,1,0-.11.1.1,0,0,1,0-.08m1,.53a0,0,0,0,1,0,0,.1.1,0,0,1,0,0l.05,0s0,0,.06,0l0,0h0a0,0,0,0,0,0,0l0,0s0,0,0,0,0,0,0,0,0,0,0,0h-.17a.12.12,0,0,1-.1,0s0,0,0,0m-1-.76.09-.06h0l0,0h0l0,0h0l0,0h.15l.12,0h.18l0,0,0,0h0l0,0,0,0s0,0,0,0a0,0,0,0,0,0,0l0,0,0,0,0,0a.73.73,0,0,1,.05.09s0,0,0,.07v0h0v0a.11.11,0,0,0,0,0,.08.08,0,0,0,0,0l0,.07,0,0h0l0,0s0,0-.05,0h0s0-.06,0-.07v0l0-.05v0s0,0,0,0l0-.06h0a1.66,1.66,0,0,1-.13-.14l0,0,0,0h0l-.06,0A.43.43,0,0,0,65,42h0l0,0h-.06s-.07,0-.11,0l0,0m1.14-.11h0v0l0,0h0l0,0h0s0,0,0,0h0s0,.05,0,.07a0,0,0,0,1,0,0s0,0-.07,0l0,0h0m0-.22,0,0h0a.12.12,0,0,1,0-.05,1.31,1.31,0,0,1,.12-.11l.12-.1,0,0,0,0h0l0,0h0l0,0h0l0,0,0,0,0,0h0s.06,0,.1,0a0,0,0,0,1,0,.06h0l0,0-.09.07,0,0h0v0h0l0,0,0,0a0,0,0,0,0,0,0h0l-.09.07a.24.24,0,0,0-.09.06h0l0,0,0,0-.07,0h0s0,0-.07,0,0,0,0,0m.76-.35h0l0,0,0,0h.15s0,0,0,0v0a.1.1,0,0,1,0,.07l0,0h0s-.05,0-.06.05h0l-.13.08h-.13s-.06,0-.07,0,0,0,0,0l0,0s0,0,0,0l0,0,.16-.13,0,0m.19,2,.06,0h0s0,0,0,0,0,0,0,0h0s0,0,0,0l0,0,0,0s0,0-.08,0h0l0,0s0,0,0,0h0m.37-.66a.09.09,0,0,1,.06,0l.06,0h0l0,0h0v0h0s0,0,0,0,0,0,0,.06,0,0,0,0H67.3l-.08,0-.11,0s0,0,0,0h.09s0,0,0,0,0,0,0,0l0,0a0,0,0,0,1,0,0h0a.17.17,0,0,1-.08.06H67.1l0,0H67l-.06,0h0l0,0,0,0a.08.08,0,0,1,0-.06v0l0,0s0,0,0,0h0s0,0,0,0H67a.15.15,0,0,1,.07,0l0,0,0,0a0,0,0,0,0,0,0s-.07,0-.1,0v0s0-.05,0-.06h0l0,0h.08m-2.09-5.09,0,0h0l.07,0,0,0,0,0,.07,0,0,0h0l0,0,0,0h0l.06,0h.06s0,0,0,0v0s0,0,0,0l0,0,0,0,0,0,0,0h0l-.06,0,0,0h0l0,0h0l-.06,0-.11,0h-.08l0,0s0,0,0,0a.07.07,0,0,1,.06,0m12.69,4.65-.21,0h-.32a.08.08,0,0,0-.07,0s0,0,0,0h-.08l-.11,0h-.46l-.27,0H76l-.22,0h-.14l-.18,0-.19,0h-.41c-.2,0-.41,0-.62,0h-.27l-.16,0h-.24s-.09,0-.1,0h-.06a.14.14,0,0,0-.09,0s-.06,0-.1,0l-.18,0h0v0l0-.05,0,0h0l0,0h0l0,0h0s0,0,0,0,0,0,0,0l0,0h0s0,0,0,0h0s0,0,0,0a0,0,0,0,0,0,0l0,0,0-.05,0,0h0a.46.46,0,0,1,.07-.07l0,0h0l0,0v0s0,0,0,0,0,0,.06-.06,0,0,0,0a.72.72,0,0,0-.22.08s0,0-.05,0v0l-.12.09,0,0,0,0,0,0,0,0,0,0,0,0,0,0-.08,0,0,0h0l0,0-.12.07s-.12.08-.14,0h0s0,0,0,0,0,0,0,0l0,0s0,0,0,0,0,0,0,0l.07-.06,0,0a.52.52,0,0,1,.11-.1l0,0s0,0,0,0l0,0,.09-.07.12-.11h0l.12-.11h0l0,0h0l0,0s0,0,0,0,0,0,0,0l0,0,0,0v0a0,0,0,0,0,0,0s0,0,0,0h0s0,0,.06-.08l-.06,0-.1.07,0,.05h0l-.08.06a0,0,0,0,1,0,0l0,0h0l0,0h0l-.06.05,0,0h0l0,0h0l0,0,0,0h0l0,0a0,0,0,0,0,0,0h0a0,0,0,0,0,0,0l-.09.06,0,0h0l0,0-.08.06,0,0,0,0,0,0h0l0,0h0s0,0,0,0h0l-.06,0h-.09s0,0,0,0v0l0,0,.05,0v0h0v0l0,0,0,0h0l0,0,0,0,0,0h0l.05,0,.11-.1h0l0,0s0,0,0,0l.09-.1,0,0,0,0,0,0h0a0,0,0,0,1,0,0h0l0-.05s0,0,0,0h0l0,0a.05.05,0,0,0,0,0h0l-.06,0-.06,0A.23.23,0,0,0,73,41h-.09l0,0,0,0h0l0,0,0,0h0l0,0h0l0,0-.21.13-.1.06h-.06a.06.06,0,0,1,0,0h0s0,0,0,0h0v0l0,0h0l0,0h0l.06-.05h0a.12.12,0,0,1,0,0h0v0h0v0l0,0s0,0,0,0l.07-.08h0a.1.1,0,0,0,0,0l0,0h0v0a0,0,0,0,1,0,0h0s0,0,0,0h0v0h-.08l-.05,0h0v0h0l0,0,0,0s0,0,0,0l0,0h0l-.16.11h0l0,0-.1.06-.07,0s0,0,0-.06h0l0,0s0,0,.06,0,0,0,0,0,0,0,0,0l0,0,0,0a1.31,1.31,0,0,0,.12-.11l0,0h0l0,0,0,0a.05.05,0,0,1,0,0h0s0,0-.06,0h0l0,0h0l0,0h-.06l0,0,0,0h0s0,0,0,0l0,0h0l0,0,0,0s-.08,0-.08,0a0,0,0,0,1,0,0,.06.06,0,0,1,0,0h0v0h0a0,0,0,0,1,0,0l0,0,0,0,0,0h0l0-.06,0,0,0,0,.05,0s0,0,0-.05,0,0,0,0l-.07,0h0a0,0,0,0,0,0,0l0,0,0,0h0a0,0,0,0,0,0,0H72s0,0-.06-.07.05,0,.05-.09l0,0h0v0h0a0,0,0,0,1,0,0l.06-.07h0l0,0v0l-.05,0H72l0,0s0,0,0,0h-.1l0,0,0,.06s0,0,0,0h0v.08h0a0,0,0,0,1,0,0l0,0s0,0,0,0,0,0,0,0v0s0,0,0,0,0,0,0,.06a.19.19,0,0,0,0,.07l0,.06s0,.05,0,.07h0v0h0s0,0,0,0v.07h0s0,0,0,.06v.1a.17.17,0,0,1,0,.08h0s0,0,0,.06l0,.06a0,0,0,0,0,0,0h0v0s0,0,0,0h0l0,0-.06,0h0l0,0h-.08s0,0,0,0v0h0s0,0,0,0,0,0,0,0l0,0,0-.05h0l0,0,0,0s0,0,0,0l0-.08a0,0,0,0,0,0,0h0l0,0s0,0,0,0a0,0,0,0,1-.08,0,.14.14,0,0,1,0-.06s0,0,0,0a0,0,0,0,0,0,0h0a0,0,0,0,0,0,0l0,0v0l0,0s0,0,0,0l-.06,0s0,0-.06,0,0,0,0,0a0,0,0,0,1,0,0v0l0-.06h0l.06-.06s0,0,0,0h-.17l0,0h0s0-.09,0-.13l0,0v0a.19.19,0,0,0,0-.09c0-.05,0-.07,0-.13l0,0s0,0,0,0,0,0,0,0a0,0,0,0,1,0,0,.14.14,0,0,1,0-.06,0,0,0,0,1,0,0v0s0,0,0,0l.07-.09s0,0,0,0h0l-.07,0a.71.71,0,0,0,0-.14l0,0,0,0s0,0,0,0l0,0,.06-.07s0,0,0,0h0s0,0,0,0,0,0,0-.06l0,0v0h0a.09.09,0,0,0,0-.05h0l0,0a.68.68,0,0,1-.12.12l-.09.07-.11.06c0-.06-.07-.1-.05-.17s0,0,.06-.05h0l0,0,0,0h0l.12-.09h0s0,0,0,0,0,0,0,0h0l.1-.07,0,0s0,0,0,0h0l0,0h0a.13.13,0,0,1,0,.06h0a.41.41,0,0,1,0,.1v0h0a.08.08,0,0,0,0,0h0a.66.66,0,0,0,0,.15v.07s0,.06,0,.08v.05a0,0,0,0,1,0,0s0,0,0,0,0-.08,0-.11,0,0,0,0l0,0v-.06s0,0,0-.06h0a.93.93,0,0,1,0-.1l0,0v0a0,0,0,0,1,0,0h0a.08.08,0,0,0,0,0,.14.14,0,0,0,0-.06s0-.05,0-.08v-.11a.43.43,0,0,1,0-.05s0,0,0,0v-.06s0,0,0,0a.22.22,0,0,1,0-.08h0a.24.24,0,0,1,0-.08s0,0,0,0h0a.31.31,0,0,1,0-.08L71.76,39s0,0,0,0h0l0-.07,0,0s0,0,0,0l0,0v0h0l-.1-.1h0l-.09-.09h0l.09.13.09.14,0,0v0h0v0l0,.09a.06.06,0,0,0,0,0,.59.59,0,0,0,0,.08s0,0,0,0v0h0a.64.64,0,0,0,0,.07s0,0,0,.05l0,0,.15,0a.13.13,0,0,1,0,.06l0,0s0,0,0,0h0s0,0,0,.06l0,0s0,0,0,0h0v0a.1.1,0,0,1,0,.07l-.06.07-.06.07,0,0,0,0h0l0,0-.09.07,0,0s0,0-.07,0a.47.47,0,0,0-.06-.09l0,0,0,0h0l0,0v0h0a.61.61,0,0,0,.07-.1s0,0,0,0l0,0h0v0s0,0,0,0h0s0,0,0,0,0,0,0,0h0l0,0h0l0,0h0a1.29,1.29,0,0,1-.16.09s0,0,0,0l-.07-.06,0,0a.27.27,0,0,1,.08-.07l0,0,0,0h0l0,0a.17.17,0,0,0,.06-.08h0s0,0,0,0,0,0,0,0a.06.06,0,0,1,.05-.06s0,0,0,0,0,0,0,0l0,0h0s0,0,0,0h0a0,0,0,0,0,0,0s0,0,0,0a1.31,1.31,0,0,1-.11.12.12.12,0,0,0-.06.06l-.13.1-.06.05h0l-.05,0h0l0,0h0l0,0h0l0,0,0,0,0,0,0,0s0,0,0,0,0,0,0,0l0,0h0l0,0,0,0h0s0,0,0,0l0,0s0,0,0,0l0,0a.08.08,0,0,1,0,0l0,0h0l0,0s0,0,0,0l0,0h0a1.07,1.07,0,0,1-.16.14.26.26,0,0,1-.09,0,.57.57,0,0,1-.18.12h0s0,0,0,0l-.05,0a.25.25,0,0,1,.09-.11h0l0,0a0,0,0,0,0,0,0h0s0,0,0,0h0l.08-.08h0l-.12.06-.12.06-.16.09-.07,0H70.2l0,0s0-.07,0-.1h0l0,0v0h0l0,0s0,0,0,0h0l0,0h0l0,0h0l0,0-.11.06-.1,0,0,0h0l-.15.08h0l0,0h-.08l0,0s0,0,0,0H70l0,0,0,0h0l0,0h0l0,0h0l0,0h0s0,0,0,0-.09,0-.14.06l0,0h0l0,0-.07,0h-.09l-.06,0s0,0,0-.05l0,0a0,0,0,0,1,0,0h0v0h0l0,0v0s0,0,0,0,0,0,0,0h-.08l-.07,0-.15,0s0,0,0,0,0,0,0-.06l0,0,0,0,0,0v0s0,0,0,0h0l-.2.08-.07,0h-.1l0,0,0,0,0,0h0L69,38.63l0,0h0l0,0h0l-.06-.06,0,0,0,0h0v0s0,0,0,0h0s0-.06,0-.07h0l0,0,.06,0,0,0a.1.1,0,0,0,0-.05l0,0h0l0,0,0,0h-.12l-.09,0h0s0,0,0-.07l0,0,0,0h0l0,0h0l0,0,0,0h0l0,0s0,0,0,0,0,0,0,0l-.09.05h0l-.08,0-.07,0,0,0h0l0,0h0s0,0,0,0v0h0l0,0s0,0,0,0A.23.23,0,0,0,68.3,38l0,0s0,0,0,0h0l0-.05h0s0,0-.06,0l-.07,0h0l-.11.06h0l0,0s0,0,0,0h0l0,0-.06,0h0s0,0,0,0h-.09s0,0,0,0a0,0,0,0,1,0,0l0,0,.12-.15h0s0,0,0,0l-.12.08-.13.07-.16.07s-.07,0-.09,0a0,0,0,0,1,0-.06h0l0,0a.25.25,0,0,0,0-.07l0,0s0,0,0-.05a.19.19,0,0,0-.08,0s0,0-.06,0l0,0h0l0,0h0l-.06,0h0l-.07,0a.09.09,0,0,1-.07,0,0,0,0,0,1,0,0s0,0,0,0h0v0l.06-.07h0v0l0,0v0s0,0,0,0,0,0,0,0l0,0-.06,0h0l-.14.07h0l-.08,0s0,0,0-.07a.34.34,0,0,1,.06-.06h0l0,0,0,0,0,0s0,0,0,0,0,0,0,0,0,0,0,0l0,0,0,0s0,0,0,0a1.68,1.68,0,0,1-.24.07s0,0,0-.06l0-.1a.24.24,0,0,1,0-.08s0,0,0,0,0,.1,0,.14a0,0,0,0,1,0,0l0,.1a.56.56,0,0,1,0,.08s0,0,0,0l-.06.07v0l0,0s0,0,0,0l0,0s0,0-.05.06,0,0,0,0-.09,0-.12.08l-.12.07H66.2l-.07,0h0l-.28,0h-.42l0,0h-.07a.42.42,0,0,1-.12,0h-.06l-.1,0h-.06l0,0-.05,0h0l0,0v0h0v0l0-.06a.21.21,0,0,1,0-.12h0s0,0,0,0a.13.13,0,0,1,0-.06.43.43,0,0,0,0,0s0,0,.08,0l.11,0h.06l0,0,.15.08,0,0a.51.51,0,0,0,.13,0h.09l0,0h.12l0,0h0s0,0,0,0h.06l.08-.06.06-.05h0s0-.13,0-.18a.19.19,0,0,0,0-.07l0,0a0,0,0,0,1,0,0l.05,0,0,0,0,0h0l0,0,.06,0h.1l.07,0h.09a0,0,0,0,1,0,0h.09l.07,0h0s0,0,.07,0h0l.07,0,.17,0H67l.1,0,.21,0h.73l.27,0h.56l.13,0,0,0h.08l0,0h.06l0,0h0l0,0h.06l0,0,.09,0h0l.17.06h0l.08,0h0l0,0s0,0,0,.06,0,0,0,0,0,0,0,0l0,0h.06l.09,0,.09,0h.16l0,0a.09.09,0,0,1,0,.07l0,0,0,0,0,0v0a.32.32,0,0,0,.09,0l.07,0,.06,0,.07,0h.08s0,0,0,.06v0l0,0h0l0,0,0,0s0,0,0,0h0l0,0,.11,0h.06c.06,0,.1,0,.11,0s0,0,0,.07h0s0,0,0,.05,0,0,0,0h.08l.07,0H71s0,0,0,0,0,0,0,.07h.28l.07,0s.05,0,.06,0l0,0h0l0,0,0,0v0h0l0,0v0h0l0,0h0l0,0h0l0,.06a.36.36,0,0,1,0,.09h0v0h0v0l0,0h0v0l0,0,0,0v0h0a.1.1,0,0,0,0,0v0a.29.29,0,0,1,0-.09s0-.06,0-.09,0-.08,0-.11l-.06-.11s0,0,0,0a.08.08,0,0,0,0,0s0,0,0,0l0,0s0,0,0,0l0,0,0,0h0s0,0,0,0l0,0v0s0,0,.07,0l0,0h0s0,0,0,0,0,0,.06,0a.19.19,0,0,1,0,.08l0,0,0,0h0s0,0,0,0l0,0,0,0,.08,0,.06,0,.06,0h0l0,0,.09,0a0,0,0,0,0,0,0,0,0,0,0,0,0,0s0,0,0,0l0,0h0v0h0a0,0,0,0,0,0,0l0,0,0,0s-.06.06-.09.09h0l.06,0,0,0,.07,0,0,0h0l.06,0h0a0,0,0,0,1,0,0l0,0,.07-.05h0s0,0,.07,0l.06,0s0,0,0,0,0,0,0,0,0,0,0,0,0,0,0,0v0a.09.09,0,0,0,0,0h0l0,0h0l0,0,0,0,0,0h0s0,0,0,0,0,0,0,0v0l-.08.07,0,0-.11.11,0,0s0,0,0,0,0,0,0,0h.06a0,0,0,0,0,0,0h0l.12-.08h0s0-.05.08-.06l.11-.09.1-.07h0l0,0,0,0,.05,0,.1-.07.12-.08a.56.56,0,0,0,.12,0,.25.25,0,0,1,.12,0l0,0,0,0,0,.06-.06.07-.08.06,0,0,0,0h0a0,0,0,0,0,0,0h0l0,0h0a0,0,0,0,0,0,0h0s0,0,0,0l0,0a0,0,0,0,0,0,0l.2-.11,0,0,.1-.06,0,0h0l.09-.06a.31.31,0,0,1,.1,0l.09-.07,0,0,.05,0,0,0,0,0,.1,0h0l0,0s.05,0,.07,0,0,0,0,.06v0l0,0,0,0,0,0h0l-.07.07-.06.05s0,0,0,0a.59.59,0,0,0,.14-.06h0l.07,0,0,0h0l.1-.06.08,0,.07,0,0,0,0,0h.2a.33.33,0,0,1-.06.1l0,0,0,0h0s0,0,0,0,.06,0,.07,0l.09-.05,0,0a0,0,0,0,1,0,0h0l.06,0,.1-.06.06,0s0,0,.07,0,0,0,0,0l0,0s0,0,0,0,0,0,0,.05,0,0,0,0h0s.05,0,.06,0l0,0,.09-.06,0,0,0,0,.09,0c0-.06.17,0,.26,0h.06a.08.08,0,0,1,0,0h0l0,0,0,0,0,0h0v0l0,.06a0,0,0,0,0,0,0s0,0,0,0l0,0,.08-.05,0,0,0,0h.06l.11,0,0,0h0l0,0h.08l0,0h.22l.17,0h1s0,0,0,.06l0,0h0l-.09.1s0,0,0,0l.06,0,.06,0,0,0a0,0,0,0,0,0,0l.16-.1a.31.31,0,0,1,.12-.05s0,0,0,0v0s0,0,0,0a.06.06,0,0,0,0,0s0,0,0,0,0,0,0,0h0a0,0,0,0,0,0,0h.05l.08,0h0l0,0h0v-.3h-.2a1.2,1.2,0,0,1-.19,0h0c-.15,0-.3,0-.45,0l-.3,0H75.38l-.08,0H75s0,0-.05,0h-.21l-.43,0h-.06a0,0,0,0,0,0,0h-.7l-.19,0h-.8l0,0h-.44l-.31,0h-.43l-.1,0h0l-.07,0,0,0h-.17l0,0h0l0,0h-.12l-.09,0h0l-.06,0h-.09l0,0-.15,0h0l0,0-.08,0H70a.17.17,0,0,0-.1,0l-.06,0-.1,0h0l-.06,0-.08,0h0l0,0h-.12s0,0,0,0h-.17l-.06,0h0l0,0H69l-.21-.05h0s0,0,0,0H67.63l-.15,0h-.1a.3.3,0,0,1-.13,0h-.12A.85.85,0,0,1,67,37h0l-.08,0h-.34l-.14,0h-.32l0,0H66l0,0-.21.12,0,0,0,0h-.06l0,0h0l0,0,0,0h0a.42.42,0,0,1-.14.06h0l0,0h0l-.25.08-.22,0-.23,0s0,0,0,0a0,0,0,0,0,0,0s0,0,0,0l0,.06a.25.25,0,0,0,0,.09s0,0,0,.05,0,0,0,0a.06.06,0,0,0,0,0s0,0,0,.06a0,0,0,0,1,0,0h0l0,0h0l0,0h0s0,0,0,0h-.17l-.08,0h0l-.27,0H62.25l-.32,0H60.67a0,0,0,0,0,0,0,0,0,0,0,1,0,0h0s0,0,0,0H58.78v.31l.1,0,0,0,.06,0h.06s0,0,.06,0,0,.06,0,.09l0,0h0l0,0-.09.1s0,0,0,.06h.08l0,0h0l.07,0h0s0,0,0,0l.06,0,0,0h.12l0,0,.09-.05s0,0,.07,0a.08.08,0,0,1,0,.05l0,0,0,0,0,0s0,0,0,0h0l0,0h0l0,0,0,0,0,0,0,0h0l0,0s0,0,0,0h0s0,0,0,0h0l0,0,.09,0,.11-.06h0v0l0,0h0l.06,0h0l.09,0h0s0,0,.08,0a.11.11,0,0,1,.08,0,.08.08,0,0,1,0,0s0,0,0,0h0a.1.1,0,0,0-.06,0s0,0,0,0h0l0,0a.74.74,0,0,0-.12.13h0l0,0h0l0,0h0l.06,0,.07,0,0,0,.16-.06.07,0,.08,0h.09l-.08.07,0,0h0l0,0h0a.63.63,0,0,0-.12.11l.08,0h0l0,0h0l.06,0h0l.11-.06.11,0h.06l0,0h.07s0,0,0,0,0,.06-.07.08h0l0,0h0l0,0,0,0,0,0h0a.08.08,0,0,0,0,0s0,0,0,0l.16-.07.08,0h.06l0,0h0l.07,0,0,0,.09,0h0l.06,0h.09a.05.05,0,0,1,0,0h0l0,0-.06.06h0l0,0h0l-.06,0h0s0,0,0,0a.34.34,0,0,0,.12,0l0,0,.13-.06h0l0,0,.07,0,.06,0h0l0,0h1c.12,0,.25,0,.37,0s0,0,0,.06h0s0,0,0,0h0l0,0s0,0,0,0l.06,0,.08,0h.18a.08.08,0,0,1,0,0l0,.05.1,0,.09,0s0,0,0,0,0,0,0,0h.17s0,0,.06,0l0,.09.06,0,0,0,.07,0h.19s0,0,0,0,0,0,0,0l0,0v0h0v0a0,0,0,0,0,0,0l.13-.08.08,0h0l0,0h0l0,0,0,0a0,0,0,0,0,0,0h.12a.14.14,0,0,1,0,.06.1.1,0,0,1,0,0v0l0,0h0l0,0,0,0s0,0,0,0l.08,0h0l.08,0a.66.66,0,0,1,.15-.05.06.06,0,0,1,.06,0h0a.07.07,0,0,1,0,.05l0,0a.47.47,0,0,1-.1.1s0,0,0,.05l.16-.09.08,0a.34.34,0,0,1,.17,0l0,0s0,0,0,0l0,0s0,0,0,0h0l-.06.05h0l-.06.06h0s0,0,0,0l0,0h0l.14,0,.17-.07h.09l.07,0,.07,0s0,0,0,0,0,0,0,0,0,.06,0,.07,0,0,0,0l-.06,0,0,0h-.07l0,.05,0,0,0,0,.06,0,.06,0,.06,0,.06,0s.09-.06.13-.07h0l0,0h0l0,0h0a.21.21,0,0,1,.11,0,.53.53,0,0,1,.1-.06l0,0h0s0,0,0,.05h0a0,0,0,0,1,0,0l0,0-.05.06h0s0,0,0,0,.05,0,.08,0l0,0h0l.07,0,.07,0h.08l0,0h0l.07,0,0,0h0s0,0,0,0l.09,0s0,0,0,0a.07.07,0,0,1,0,.05h0s0,0,0,0l.1,0,0,0h.11l0,0h0l.08,0s0,0,0,0h.28a0,0,0,0,1,0,0h.45l.15,0,.1,0,.11,0,.16,0,.07,0h0l.12.05h0l0,0h0s0,0,0,0h0l0,0h0l0,0s0,0,.05,0l0,0,0,0h0l0,0h0l0,0h0l0,0h0L69,39l.06,0,.07,0,0,0h0l.06,0,.15.06a.35.35,0,0,0,.14.06s0,0,0,0a.24.24,0,0,0,.1,0l.11.06h0l0,0,.06,0h0l.07,0a0,0,0,0,1,0,0h0l.11.06.06,0,0,0,.06,0h0l0,0h0s0,0,0,0h0v0l0,0h0l0,0h0l0,0s0,0,0,0l.1.09s0,0,0,0,0,0,0,0h0l0,0,0,0,.06.05,0,0,0,0a.07.07,0,0,1,0,0v0l0,0v0s0,0,0,0l0,0s0,0,0,0h0l0,.1h0a.14.14,0,0,1,0,.06h0s0,.05,0,.06a.14.14,0,0,0,0,.07h0a.06.06,0,0,1,0,0h0l0,.09h0v0h0a.11.11,0,0,1,0,.05l0,0a.25.25,0,0,0,0,.07.09.09,0,0,0,0,0v.08l0,.14,0,.1s0,0,0,0a0,0,0,0,0,0,0,.38.38,0,0,1,0,.1v.07a.48.48,0,0,0,0,.12l-.06.1h0l0,0s0,0,0,0l0,0h0l0,0h0l0,0h0l0,0h0l-.07,0-.08,0H71l-.08,0s-.11,0-.11,0l0,0,.09,0,0,0s0,0,0,0,0,0,0,0h0a.45.45,0,0,0,.14-.06h0l0,0h0l.06-.05,0,0h0l0,0s0,0,0,0a.2.2,0,0,0,0-.08l0,0h0l-.07,0h0l-.06,0h0l-.09,0h-.15l-.11,0h-.09s0,0,0-.06,0,0,0,0h0l0,0h0l0,0h0l.11-.06.06,0,.06,0s0,0,0,0l0,0s0,0,0,0l-.12,0H70.9l-.05,0-.06,0-.06,0h-.11s0,0,0-.07l0,0h0l.12-.07h0l0,0,.07,0s0,0,0,0h0s0,0,0,0h0s0,0,0,0,0,0,0-.05l-.09,0-.21.06a.15.15,0,0,1-.07,0h-.08l0,0s0,0,0,0,0,0,0,0h0l0,0h0l0,0,0,0h0l.07,0,.14-.13a.12.12,0,0,0,0,0l-.07,0s0,0,0,0h0l-.07,0-.06,0h0l0,0-.05,0,0,0h0l-.19,0v0s0,0,0,0v0h0l.06,0h.09s0,0,0,0h0l0,0h.08v0l0,0,0,0,0,0h0l0,0h0a0,0,0,0,0,0,0,.49.49,0,0,0,0-.16h0v0h0s0,0,0,0l0,0h0l-.08,0,0,0s0,0,0,0,0,0,0,0a0,0,0,0,0,0,0h0a.06.06,0,0,0,0,0h0s0,0,0,0h0s0,0,0,0h0l0,0,0,0s0,0,0,0,0-.08.06-.11a.13.13,0,0,0,0-.06v0s0,0,0,0a0,0,0,0,0,0,0l0,.06v0a0,0,0,0,1,0,0h0s0,0,0,0h0l0,0a0,0,0,0,0,0,0h0s0,0,0,0h0l0,0h0l0,0-.08.06-.08.06-.07,0-.1.05h0s0,0,0,0,.08,0,.13,0h0l.06,0h.06s0,0,0,.06a.12.12,0,0,1-.05,0h0l-.09,0a.07.07,0,0,1-.06,0s0,0-.05,0L70,41s0-.05-.06-.05h-.06l0,0-.07,0-.1,0h0l-.06,0-.1,0s0,0,0,0l0,0,.09-.07h0l0,0,0,0,0,0h0l0,0,0,0h0s0,0,0,0a0,0,0,0,0,0,0h0l0,0s0,0,0,0l-.23.1,0,0h0l-.09,0h-.06l0,0s-.06,0-.06,0a0,0,0,0,1,0,0s0,0,0,0l0,0,0,0h.08l0,0,0,0a.31.31,0,0,0,.09-.07l0,0-.12,0-.08,0h0l-.06,0,0,0a.35.35,0,0,0-.11,0h0s0,0-.06,0,0,0,0-.06,0,0,0,0l0,0,.09,0v0s.05,0,.06-.05H69.3l0,0-.07,0h-.16s0,0-.07,0,0,0,0,0v0h0l0,0h0l0,0,0,0h0l0,0,.08-.06,0,0-.18,0-.07,0h0l-.06,0s-.11,0-.12,0,0,0,0,0l0,0h0l.06,0s0,0,.06-.06l-.09,0H68.8l0,0h-.15v0s0,0,0-.06.08-.06.12-.09h0l.06,0,0,0h0l0,0h0l0,0h0s0,0,0,0h0a0,0,0,0,0,0,0s0,0,0,0h0s0,0-.06,0a0,0,0,0,1,0,0h0s0,0,0,0l-.13,0-.06,0-.06,0h-.07l0,0,0,0h0l0,0,.08-.07h0v0l.08,0,.08-.07h0l-.09,0-.09,0-.09,0,0,0h-.1l0,0h0l0,0,0,0s0,0,0,0h0l0,0h0s0,0,0,0l0,.06a.84.84,0,0,1,.06.14s0,0,0,.06v0h0s0,0,0,0h0s0,0,0,0a.1.1,0,0,0,0,0l.06.06,0,0s0,0,0,0h0l0,0h0a.12.12,0,0,0,0,0l.07.06,0,0h0l0,0,0,0,0,.05s0,0,0,0h0l0,0h0l0,0,0,0h0l0,0h0l0,0s0,0,0,0l0,0h0l0,0h.06l0,0s0,0,0,0h0s0,0,0,0,0,0,0,0h0l0,0h0a0,0,0,0,0,0,0h.07l0,0h.06l0,0,0,0,0,0,0,0,.07.06h0l0,0,0,0,0,0s0,0,0,0l0,.06,0,.05a1.51,1.51,0,0,1,.09.18s0,0,0,.07,0,0,0,0a.08.08,0,0,1,0,0s0,.05,0,.07,0,.05,0,.08,0,.05,0,.07a.3.3,0,0,0,0,.08l0,.09,0,0a.34.34,0,0,0-.09.08l0,0h0l-.09.06-.08.06,0,0h0l0,0s0,0,0,0l.16,0,0,0h0l.05,0,0,0s.06,0,.08-.07h0a0,0,0,0,1,0,0s0,0,0,0h0a0,0,0,0,1,0,0h0s0,0,0,0l0,0s0,0,0,0h0s0,.06,0,.08l0,.06,0,.07,0,0h0s0,0,0,0h0v0h-.07a0,0,0,0,0,0,0l0,0h0l0,0,0,0s0,0,0,0l-.06,0h0a0,0,0,0,1,0,0s0,0,0,0h.19l0,0h0l0,0,0,0h0s0,0,.05,0,0,0,0,0l0,0h0l0,0a0,0,0,0,1,0,0h0l0,0a0,0,0,0,1,0,0s0,.05,0,.1v.05s0,0-.05.06l0,0,0,0h0s0,0,0,0h0l0,0-.1.06,0,0-.05,0s0,0,0,0h0l0,0h0l0,0h0l.09,0s0,0,.08,0l0,0,0,0s0,0,0,0a.21.21,0,0,1,.11-.07s0,.07,0,.09,0,0,0,0h0l-.06.07,0,0-.11.05-.11,0h0a0,0,0,0,0,0,0h.1s.08,0,.09,0,0,0,0,0l0,0-.06,0h0l0,0,0,0h0l-.07,0s-.06,0-.09,0l0,0h0l0,0s0,0,0,0h0l0,0a0,0,0,0,0,0,0l0,0s0,0,0-.06,0,0,0,0h0s0,0,0,0a0,0,0,0,0,0,0h0s0,0,0,0v0l0,0s0,0,0,0,0,0,0,0,0,0,0,0a0,0,0,0,0,0,0l0,0a.17.17,0,0,0-.06-.08v0s0,0-.06-.07a.05.05,0,0,1,0,0s0,0,0,0l0,0h0v0l0,0v0h0s0,0,0,0l0,0v0l0,0h0l0,0s0,0,0,0h0s0,0,0,0h0s0,0,0,0h0v0h0a0,0,0,0,0,0,0h0A.46.46,0,0,1,69,42h0l0,0h0l0,0h0s0,0,0,0l-.06,0s0,0,0,0l0,0h0l-.06-.05,0,0,0,0h0l0,0,0,0h0l0,0,0,0h0l0,0h0l0,0h0s0,0,0,0l-.05,0,0,0h0l0,0h0l0,0h0s0,0,0,0,0,0-.07,0h0s0,0,0,0,0,0,.06,0,0,0,0,0v0h0v0h0l0,0,0-.05a.1.1,0,0,0,0,0h0s.07-.06.1-.1h0a1.62,1.62,0,0,0-.18.1l-.06,0-.06,0a.23.23,0,0,1-.1.07h0s0,0,0,0h0s-.06,0-.07,0h0s0,0,0,0l0-.05c.06-.06.13-.1.19-.15l0,0h0l0,0,0,0,.06-.06h0v0s0,0,0,0l0,0,0,0,0,0h0l0,0,0,0-.07,0,0,0H67.9l0,0-.05,0h0l0,0,0,0,0,.05,0,0v0s0,0,0,0l.07,0,.06,0a0,0,0,0,1,0,0h0v0h0s0,0,.06,0l.07,0,0,0h0s0,0,0,.06h-.17l0,0,0,0h.06s.12,0,.15.08l0,0,0,0h0l0,0,.11.06h0s0,0,0,0h0l0,0h0l.07,0h0l0,0,0,0s0,0,0,0l0,0h0s0,0,.07,0h0s0,0,0,0h0l0,0h.11l0,0h0s0,0,0,0,0,0,0,.06,0,0,0,0a.07.07,0,0,1,0,0s0,.05,0,.07h0s0,0,.07,0h0a0,0,0,0,1,0,0s0,0,0,0,0,0,0,0a0,0,0,0,0,0,0h0s0,.06,0,.07a.11.11,0,0,1,0,.06l0,0,0,0h0l0,0s0,0,0,0v0h0s0,0,0,0v0l-.06,0a0,0,0,0,1,0-.06v0h0v0l0,0h0a0,0,0,0,1,0,0v0s0,0,0,0,0,0,0-.06,0,0,0,.07h0l0,0h0l0,.05,0,0h0l0,0,0,0h-.08s0,0,0,0h0a.25.25,0,0,1-.12,0,0,0,0,0,1,0,0h0s0,0,0,0l0,0,0,0,.05,0,0,0h0s0,0,0,0,0,0,0,0,0,0,0,0,0,0,0,0l0,0,0,0h0l0,0h0a.75.75,0,0,1-.12.07h0l0,0h0l-.1,0h0l-.12,0h-.08s0,0,0,0a.09.09,0,0,0,.07,0h0l.06,0h0l.05,0,0,0h0a0,0,0,0,1,0,0l0,0a0,0,0,0,0,0,0l0,0h0a.05.05,0,0,1,0,0l0,0s0,0,0,0,0,0-.05,0l-.07,0-.06,0-.07,0h-.07l-.12,0H67.9s0,0,0,0v0h0a.05.05,0,0,0,0,0h0l.07,0,.08,0s.07-.05.11-.06,0,0,0,0,0,0,0,0h0s0,0,0,0h0l-.12,0-.05,0h0l0,0-.09,0-.07,0-.1,0h-.06s0,0,0,0a0,0,0,0,1,0,0s0,0,0,0,0,0,0,0h0l0,0h0l0,0h0l.05,0,.08-.06,0,0h0s0,0,0,0a.84.84,0,0,1-.19.07.59.59,0,0,1-.14.06h-.1s-.06,0-.08,0,0,0,0,0,0,0,0,0l.09-.07,0,0,0,0h0l0,0,0,0,0,0h0a.07.07,0,0,0,0,0l-.1,0-.06,0h0l-.19.06-.07,0-.08,0,0,0v0l0,0,0,0h0l0,0h0l0,0h0s0,0,0,0l0,0h0a.16.16,0,0,0,.08-.06l-.13,0h0l-.06,0h0s0,0,0,0l-.06,0h0s-.08,0-.12,0a0,0,0,0,1,0-.08l.11-.09h0l0,0h0l0,0a.73.73,0,0,0,.09-.08h-.06l-.13,0-.08,0,0,0h0l0,0H67a.06.06,0,0,1,0,0h0a.17.17,0,0,1,.06-.06.05.05,0,0,1,0,0,.05.05,0,0,1,0,0l0,0,0,0h0a0,0,0,0,1,0,0h0l.11-.09,0,0a1.57,1.57,0,0,0-.26.12l-.12.07,0,0h0l-.07,0h-.06a0,0,0,0,1,0,0l0,0,.07-.06,0,0,.08,0h0l0,0,0,0,0,0h0l0,0h0l0,0h0s0,0,0,0h-.17l-.06,0h0l0,0h0s0,0-.06,0-.07,0-.08-.07,0,0,0,0h0l0,0s0,0,0,0h-.21l0,0,0,0h0s0,0,0,0h0l-.06.05h0l0,0h0l0,0-.06.05h0l0,0h0l0,0h0v0h0l-.09.06-.06,0h0l0,0,0,0h0s0,0-.07,0,0,0,0,0,.05-.06.08-.08l0,0h.07l0,0,.06,0a.12.12,0,0,1,0,0h0a0,0,0,0,1,0,0l0,0h0a.12.12,0,0,1,0-.05s0,0,0,0h.06v0a0,0,0,0,0,0,0s0,0,0,0l0,0,0,0,0,0h0l0,0h0s0,0,0,0,0,0,0,0,0,0,0,0h0l-.11.06-.09.06h0l0,0,0,0h-.11s0,0,0,0h0s0,0,0,0l-.06,0,0,0h0l0,0,0,0-.06.05h0l0,0h0s0,0,0,0h0l-.06,0-.06,0h0s0,0,0,0h0s-.06,0-.1,0,0,0,0-.07v0s0,0,0,0h0a.15.15,0,0,1,.08-.08l0,0,0,0,0,0,.18-.15.11-.1,0-.05s.05,0,.06,0,0,0,0,0l0,0,.08-.08,0,0,0,0h0l0,0h0s0-.05.06-.08l-.14.1h0l0,0h0a0,0,0,0,0,0,0h0l-.06,0,0,0h0l0,0h-.07l0,0h0l-.06,0-.09.06h0l0,0h0l0,0,0,0h0l-.06,0,0,0h0l-.07.06a1.73,1.73,0,0,1-.21.17l0,0h0a0,0,0,0,0,0,0h0s0,0,0,0l0,.05h0l0,0,0,0h0a.1.1,0,0,1,0,0v0h0a.09.09,0,0,1-.1,0s0,0,0,0a.1.1,0,0,1,0-.07l0,0h0s0,0,0,0a.46.46,0,0,1,.07-.07l.21-.2,0,0h.05v0L65,41.2l.06-.06,0,0,.07-.07.06-.06,0,0a.17.17,0,0,1,.06-.06l.06-.06s0,0,0,0h0s.06,0,.05-.08,0,0-.06,0h0l0,0-.17.1,0,0h0l0,0h0v0h0l0,0a.05.05,0,0,1,0,0l0,0s-.06.05-.09.07,0,0,0,0l-.06.06h0l0,0,0,0-.07.06-.1.07s0,0,0,0h0l0,0h0s0,0,0,0l0,0h-.14s-.05,0-.05,0,0,0,0,0l.08-.09h0a0,0,0,0,1,0,0l.06-.06.06,0,.06-.07h0a0,0,0,0,1,0,0l0-.06.09-.09h0l.06-.06,0,0a.08.08,0,0,1,0,0s0,0,0,0l0,0,.11-.1.07-.05h0l0,0h0l0,0h0l0,0,0,0,0,0h0l.09-.07,0,0h0v0h0s0,0,0,0,0,0,0,0,0,0-.06,0H65.3l-.06,0-.08.06,0,0,0,0-.21.17,0,0h0l-.1.09h0l0,0-.12.09h0l0,0h0l0,0h0l0,0h0s0,0,0,0l0,0,0,0,0,0-.06.06h0l0,0h0s0,0,0,0l0,0-.08,0,0,0a.08.08,0,0,1,0,0s0,0,0,0v0l0,0,0,0a0,0,0,0,0,0,0h0a0,0,0,0,1,0,0v0h0s0,0,0,0h0l0,0,0,0h0l.05,0h0l0,0s0,0,0,0v0l0,0h0s0,0,0,0v0l0-.05h0l0,0a1.09,1.09,0,0,0,.11-.1l.06,0s0,0,0,0,0,0,0,0a.26.26,0,0,1-.09.05h0l0,0,0,0,0,0h0l0,0,0,0,0,0,0,0h0l0,0h0l0,0,0,0,0,0,0,0,0,0-.07.07-.07.06h-.08l-.09.1h0l0,0h0v0h0s0,0-.06,0a.07.07,0,0,1,0-.06s0,0,0-.07l0,0h0s0,0,0,0v0a0,0,0,0,0,0,0s0,0,0,0l.11-.11h0s0,0,0,0,0,0,0,0l0,0h0L64,41h0s0,0,0,0l0,0,0,0h0l0,0h0v0h0s0,0,0,0h0l0,0a0,0,0,0,1,0,0l0,0h0l-.11.08s0,0,0,0h0l0,0h0l-.05,0-.07,0h0l0,0h0v0h0l-.1.07,0,0a.1.1,0,0,0-.06.05h0a1.85,1.85,0,0,0-.14.14l0,0h0l0,0s0,0,0,0h0s0,0,0-.06,0,0,0,0l0,0h0l.06-.06,0,0s0,0,0,0,0,0,0,0a.21.21,0,0,0,0-.06h0l0,0h0l0,0h0s0,0,0,0l0,0h0l0,0h0l0,0,0,0h0v0h0v0h0a.05.05,0,0,0,0,0l0,0h0l0,0-.08.05-.07,0-.08.06,0,0-.1.09L63,41.3l0,0,0,0,0,0,0,0,0,0,0,0s0,0,0,0l0,0h0l-.06.07,0,0a0,0,0,0,0,0,0h0l0,0,0,0,0,0s0,0,0,0l-.05,0h0l0,0,0,0s0,0,0-.08l0,0s0,0,0,0h0l.06-.07,0,0s0,0,0,0h0l0-.06,0,0s0,0,0,0h0a0,0,0,0,1,0,0h0s0,0,.05,0l0,0v0l0,0h0l0,0,0,0h0v0l.05,0h0l0,0h0l0,0h0l0,0h0s0,0,0,0h0l.05-.06s0,0,0,0h0l0,0h0l.08-.06,0,0h0a0,0,0,0,1,0,0l0,0s0,0,0,0h0l-.16.12h0l0,0h0l0,0-.07,0a0,0,0,0,1,0,0l0,0h0s0,0,0,0l0,0,0,0v0l0,0h0v0l0,0,0,0,0,0h0l0,0,0,0h0l0,0h0s0,0,0,0l0,0,0,0,0,0,0,0,0,0,0,0-.05,0-.09.08h0l-.17.18s0,0,0,0l0,0s0,0-.07.06h0v0h0l0,0H62l0,0,0,0h-.05s0,0,0,0l0,0v0s0,0,0,0l.06,0L62,41.6l0,0,0,0h0l.06-.06,0,0v0l0,0,.15-.15h0l0,0,0,0h0l0,0h0l0,0h0v0A.34.34,0,0,0,62.6,41h0l0,0s0,0,0,0l.05,0s0,0,0,0h0l0,0,.1-.09h0s0,0,0,0l0,0,.1-.09h0s0,0,0,0l-.06,0h0l0,0h0l0,0h-.06l-.09.06v0l-.07,0,0,0h0l-.08.05,0,0h0l-.06,0-.08.07,0,0,0,0h0l-.17.15-.06.07s0,0,0,0l-.05,0,0,.06h0l0,0-.08.07-.08.09-.05,0,0,0-.1.09,0,0,0,0h-.06a.13.13,0,0,1,0-.06s0,0,0,0a0,0,0,0,1,0,0v0s0,0,0,0h0l.06-.06h0v0h0l.07-.06a0,0,0,0,1,0,0h0l0,0a.1.1,0,0,1,0,0l0,0h0s0,0,0,0h.06l0,0h0a0,0,0,0,1,0,0l.06,0,0,0v0l0,0s0,0,0,0,0,0,0,0,0,0,0,0l-.19.09a0,0,0,0,1,0,0h0l0,0h0l0,0h-.05l0,0,0,0s0,0,0,0l0,0a.08.08,0,0,0,0,0,2379377657232.58,2379377657232.58,0,0,0-.16.14l-.15.15v0l-.06.06,0,0h0l0,0,0,0s0,0,0,0l0,0-.07,0h-.3l-.12,0h0a.56.56,0,0,1-.13,0H60l-.32,0h-.42l0,0h-.43v.26h0s0,0,0,0H59l.28,0h.32l.27,0H60c.17,0,.33,0,.5,0h.33l.55,0h.68a1.61,1.61,0,0,0,.31,0h.67s0,0,0,0,0,0,0,0h0s0,.09,0,.11h0a.41.41,0,0,1,.05.09l0,0v0h0s0,0,0,0l0,.06s0,0,0,.07a.56.56,0,0,0,0,.08.3.3,0,0,0,.08.08l0,0,0,0,0,0,.13,0H64l0,0h.07s0,0,0,0,0,0,0,0,0,0,0,0h0s0,0,0,0h0v0l0,0a.19.19,0,0,1,0,.07l0,0,0,0,0,0h0s0,0,0,0h0l0,0a0,0,0,0,1,0,0h.06l0,0h0l.09.06s.14,0,.22.06l.21,0h.16a.13.13,0,0,1,0,.06l0,0,0,0s0,0,0,0l0,0,0,0h0l.07.08h0l0,0,0,0,0,0,0,0h0s0,0,0,0h.08l.09,0,.06,0H66a1.52,1.52,0,0,0,.2-.06s0,0,0,.05,0,0,0,0h0s0,0,0,0a.61.61,0,0,1,.07.1s0,0,0,0l0,0,0,0,.06,0h.07a.67.67,0,0,0,.12.06l0,0h0l.09,0H67s.1,0,.1,0h.08l0,0h0l.06,0h0a0,0,0,0,0,0,0h0l0,0h0l0,0a.28.28,0,0,0,.11,0h0v0h0l.17.09.08,0,0,0,0,0,0,0h0s0,0,0,0h.12l.06,0s.06,0,.09,0l.06,0h0s0,0,0,0,0,0,0,0h.13s0,0,0,0h0l0,0h0l0,0h0l0,0h0l0,0,0,0h0s0,0,0,0a0,0,0,0,0,0,0s0,0,0,0V44s0,0,0,0a.41.41,0,0,0,0-.11h0v0l0-.07h0s0,0,0,0h0l0,0,0,0h.06l.07,0h0l.15,0,.08,0,0,0h0v0h0l0,0,.07,0,.08-.07h0l0,0h0l0,0a0,0,0,0,1,0,0v0s0,0,0,0l0,0h0l0,0h.27l.06,0,0,0s0,0,0,0a.55.55,0,0,0,.14-.12l0,0h0a.35.35,0,0,0,0-.08s0-.09,0-.12v0a0,0,0,0,0,0-.05h0s.06,0,.08,0H71l0,0s0,0,0,0l.09-.06h0a.34.34,0,0,0,.09-.08l0,0h0l0,0s0,0,0,0h0l0,0a.06.06,0,0,0,0,0h0l0-.06h0l.13,0,.09,0h0l0,0,0,0h0s0,0,0,0h0l0,0h0l0,0h0l.11,0h.94l.56,0h.63l1,.07h.31l.09,0h.33l.37,0,1.47.1Z"/><path class="cls-1" d="M77.78,41.67l0,0,0,0,0,0,0,0h0a.24.24,0,0,0-.08.06h0l0,0h0l0,0,0,0a.08.08,0,0,0,0,.05h.16s0,0,.06,0h0s0,0,0,0v0s0,0,0,0l0,0,.1-.07Z"/><path class="cls-1" d="M77.78,41.27l-.09.06-.2.16-.23.16h0l0,0,0,0-.08,0h0s0,0,0,0l-.05,0,0,0,0,0a.07.07,0,0,0,0,0H77a.67.67,0,0,0,.17-.06.32.32,0,0,1,.09-.08s0,0,0,0h0l0,0s0,0,0,0l0,0,0,0,0,0,0,0,.15-.14.06-.07h0l0,0,0,0h0Z"/><path class="cls-1" d="M143.72,31.81l-2.92,7.72h6.12Zm11.63,15.13H150L148.38,43h-8.89L138,46.94h-5.24l8-19.88h5.75Z"/><rect class="cls-1" x="157.53" y="27.06" width="4.95" height="19.88"/><path class="cls-1" d="M171.7,43.29h3.24c5,0,6.47-3.38,6.47-6.29,0-3.41-1.84-6.3-6.53-6.3H171.7Zm3.82-16.23c7.26,0,11,4.52,11,10,0,5.71-3.62,9.91-11.55,9.91h-8.22V27.06Z"/><path class="cls-1" d="M58.82,49.69A3.32,3.32,0,0,0,60.4,52V49.69Z"/><path class="cls-1" d="M61.23,49.69h2.18v3.52a10,10,0,0,1-2.18-.75Z"/><path class="cls-1" d="M64.24,49.69v3.69s.77.14.89.15a5.65,5.65,0,0,1,1.28.28V49.69Z"/><path class="cls-1" d="M77.81,49.69A3.32,3.32,0,0,1,76.22,52V49.69Z"/><path class="cls-1" d="M75.39,49.69H73.22v3.52a9.82,9.82,0,0,0,2.17-.75Z"/><path class="cls-1" d="M72.42,49.69v3.69s-.77.14-.89.15a5.65,5.65,0,0,0-1.28.28V49.69Z"/><path class="cls-1" d="M68.33,55.19a2.79,2.79,0,0,0-1-1V49.69h2.11v4.49a2.86,2.86,0,0,0-1.06,1"/><polygon class="cls-1" points="60.74 47.52 61.48 47.52 61.48 47.53 60.88 47.97 61.11 48.67 61.11 48.68 60.52 48.24 59.93 48.68 59.92 48.67 60.16 47.97 59.55 47.53 59.55 47.52 60.29 47.52 60.51 46.83 60.52 46.83 60.74 47.52"/><polygon class="cls-1" points="63.35 47.52 64.09 47.52 64.09 47.53 63.5 47.97 63.73 48.67 63.72 48.68 63.13 48.24 62.54 48.68 62.54 48.67 62.77 47.97 62.17 47.53 62.17 47.52 62.91 47.52 63.13 46.83 63.14 46.83 63.35 47.52"/><polygon class="cls-1" points="65.97 47.52 66.71 47.52 66.71 47.53 66.11 47.97 66.35 48.67 66.34 48.68 65.75 48.24 65.16 48.68 65.16 48.67 65.39 47.97 64.79 47.53 64.79 47.52 65.53 47.52 65.75 46.83 65.75 46.83 65.97 47.52"/><polygon class="cls-1" points="68.59 47.52 69.33 47.52 69.33 47.53 68.73 47.97 68.96 48.67 68.96 48.68 68.37 48.24 67.78 48.68 67.77 48.67 68.01 47.97 67.4 47.53 67.4 47.52 68.14 47.52 68.36 46.83 68.37 46.83 68.59 47.52"/><polygon class="cls-1" points="71.2 47.52 71.94 47.52 71.94 47.53 71.35 47.97 71.58 48.67 71.58 48.68 70.98 48.24 70.39 48.68 70.39 48.67 70.62 47.97 70.02 47.53 70.02 47.52 70.76 47.52 70.98 46.83 70.99 46.83 71.2 47.52"/><polygon class="cls-1" points="73.82 47.52 74.56 47.52 74.56 47.53 73.97 47.97 74.2 48.67 74.19 48.68 73.6 48.24 73.01 48.68 73.01 48.67 73.24 47.97 72.64 47.53 72.64 47.52 73.38 47.52 73.6 46.83 73.6 46.83 73.82 47.52"/><polygon class="cls-1" points="76.44 47.52 77.18 47.52 77.18 47.53 76.58 47.97 76.81 48.67 76.81 48.68 76.22 48.24 75.63 48.68 75.62 48.67 75.86 47.97 75.25 47.53 75.25 47.52 75.99 47.52 76.22 46.83 76.22 46.83 76.44 47.52"/><path class="cls-1" d="M64,30.23V32c0,1-.7,1.39-1.56,1.39S60.88,33,60.88,32V30.23h.78V32a.7.7,0,0,0,.77.72.73.73,0,0,0,.8-.78V30.23Z"/><path class="cls-1" d="M66.78,31a2.5,2.5,0,0,0-1-.28c-.28,0-.46.11-.46.26,0,.47,1.59.34,1.59,1.43,0,.6-.51.95-1.2.95a2.12,2.12,0,0,1-1.13-.3v-.68a1.83,1.83,0,0,0,1.07.41c.3,0,.46-.11.46-.29,0-.52-1.59-.33-1.59-1.45,0-.54.46-.9,1.19-.9a2.73,2.73,0,0,1,1.06.24Z"/><path class="cls-1" d="M68.83,31l-.45,1.21h1Zm1.83,2.38h-.84l-.25-.62h-1.4l-.23.62h-.83l1.26-3.13h.9Z"/><rect class="cls-1" x="71.05" y="30.23" width="0.78" height="3.12"/></svg>