<svg width="16" height="11" viewBox="0 0 16 11" fill="none" xmlns="http://www.w3.org/2000/svg">
<path d="M12.8625 1.32953C11.8899 0.939129 10.8636 0.660494 9.80912 0.50057C9.79957 0.499162 9.78975 0.500378 9.78102 0.504048C9.77229 0.507719 9.76508 0.513665 9.76037 0.521068C9.62818 0.726053 9.48194 0.994173 9.37975 1.20408C8.24314 1.05322 7.08702 1.05322 5.95041 1.20408C5.83642 0.970248 5.70747 0.742217 5.56416 0.521068C5.55935 0.513746 5.55212 0.507869 5.54342 0.50421C5.53472 0.500551 5.52496 0.499282 5.51541 0.50057C4.46074 0.659638 3.43419 0.938418 2.46201 1.32953C2.45369 1.33231 2.44673 1.33752 2.44232 1.34429C0.497967 3.88528 -0.0354646 6.36396 0.226095 8.81148C0.227033 8.82296 0.23547 8.83444 0.245782 8.84182C1.37801 9.57535 2.64444 10.1354 3.99106 10.4981C4.00056 10.5007 4.01078 10.5006 4.02022 10.4978C4.02966 10.495 4.03784 10.4897 4.04356 10.4825C4.3323 10.1381 4.58917 9.77491 4.81042 9.39282C4.81503 9.38495 4.81661 9.37599 4.81492 9.36727C4.81323 9.35855 4.80837 9.35054 4.80105 9.34444C4.7962 9.34044 4.79045 9.33737 4.78417 9.33542C4.38026 9.19966 3.98908 9.03654 3.61418 8.84756C3.60371 8.84237 3.59593 8.83386 3.59244 8.82378C3.58894 8.81371 3.59002 8.80285 3.59543 8.79344C3.59862 8.78734 3.60345 8.782 3.6095 8.77787C3.68825 8.72621 3.767 8.67209 3.84199 8.61798C3.84862 8.61332 3.85657 8.61032 3.86499 8.60931C3.87341 8.6083 3.88199 8.60931 3.88981 8.61224C6.34509 9.59289 9.00288 9.59289 11.4282 8.61224C11.4363 8.60917 11.4452 8.60808 11.4539 8.6091C11.4627 8.61011 11.4709 8.61318 11.4779 8.61798C11.5529 8.67209 11.6316 8.72621 11.7104 8.77787C11.7167 8.78194 11.7219 8.78734 11.7253 8.79358C11.7287 8.79981 11.7303 8.80669 11.7299 8.81359C11.7295 8.8205 11.7272 8.82722 11.7231 8.83314C11.7191 8.83907 11.7134 8.84402 11.7066 8.84756C11.3326 9.03827 10.9409 9.20119 10.5357 9.33461C10.5292 9.33665 10.5233 9.33992 10.5185 9.34417C10.5136 9.34842 10.5099 9.35355 10.5075 9.3592C10.5054 9.36468 10.5045 9.37049 10.505 9.37627C10.5055 9.38205 10.5073 9.38768 10.5104 9.39282C10.7354 9.77409 10.9932 10.1381 11.2763 10.4825C11.282 10.4897 11.2902 10.495 11.2996 10.4978C11.3091 10.5006 11.3193 10.5007 11.3288 10.4981C12.6777 10.1365 13.9461 9.57641 15.0797 8.84182C15.0854 8.83838 15.0901 8.83387 15.0935 8.82862C15.0969 8.82337 15.0989 8.81751 15.0994 8.81148C15.4125 5.98187 14.5753 3.52369 12.8813 1.34511C12.8796 1.34151 12.877 1.33826 12.8738 1.33558C12.8706 1.3329 12.8667 1.33084 12.8625 1.32953ZM5.17698 7.32083C4.4373 7.32083 3.82887 6.7272 3.82887 5.99909C3.82887 5.27016 4.42605 4.67652 5.17698 4.67652C5.93354 4.67652 6.53634 5.27508 6.52509 5.99909C6.52509 6.7272 5.92791 7.32083 5.17698 7.32083ZM10.1607 7.32083C9.42194 7.32083 8.81257 6.7272 8.81257 5.99909C8.81257 5.27016 9.40975 4.67652 10.1607 4.67652C10.9172 4.67652 11.521 5.27508 11.5088 5.99909C11.5088 6.7272 10.9172 7.32083 10.1607 7.32083Z" fill="white"/>
</svg>
