<svg width="16" height="16" viewBox="0 0 16 16" fill="none" xmlns="http://www.w3.org/2000/svg">
<path fill-rule="evenodd" clip-rule="evenodd" d="M4.57202 0.545C5.37179 0.508182 5.62679 0.5 7.66406 0.5C9.70133 0.5 9.95634 0.508864 10.7554 0.545C11.5545 0.581136 12.1 0.708636 12.5772 0.893409C13.077 1.08227 13.5304 1.3775 13.9054 1.75932C14.2872 2.13364 14.5818 2.58636 14.77 3.08682C14.9554 3.56409 15.0822 4.10955 15.1191 4.90727C15.1559 5.70841 15.1641 5.96341 15.1641 8C15.1641 10.0373 15.1552 10.2923 15.1191 11.092C15.0829 11.8898 14.9554 12.4352 14.77 12.9125C14.5818 13.413 14.2868 13.8665 13.9054 14.2414C13.5304 14.6232 13.077 14.9177 12.5772 15.1059C12.1 15.2914 11.5545 15.4182 10.7568 15.455C9.95634 15.4918 9.70133 15.5 7.66406 15.5C5.62679 15.5 5.37179 15.4911 4.57202 15.455C3.77429 15.4189 3.22884 15.2914 2.75156 15.1059C2.25105 14.9177 1.79758 14.6227 1.4227 14.2414C1.04114 13.8668 0.745868 13.4136 0.557472 12.9132C0.372699 12.4359 0.245881 11.8905 0.209062 11.0927C0.172244 10.2916 0.164062 10.0366 0.164062 8C0.164062 5.96273 0.172926 5.70773 0.209062 4.90864C0.245199 4.10955 0.372699 3.56409 0.557472 3.08682C0.746146 2.58642 1.04164 2.13317 1.42338 1.75864C1.79773 1.37716 2.25075 1.08189 2.75088 0.893409C3.22815 0.708636 3.77361 0.581818 4.57134 0.545H4.57202ZM10.6947 1.895C9.90384 1.85886 9.66656 1.85136 7.66406 1.85136C5.66156 1.85136 5.42429 1.85886 4.63338 1.895C3.90179 1.92841 3.50497 2.05045 3.24043 2.15341C2.89065 2.28977 2.64043 2.45136 2.37793 2.71386C2.12909 2.95594 1.93759 3.25065 1.81747 3.57636C1.71452 3.84091 1.59247 4.23773 1.55906 4.96932C1.52293 5.76023 1.51543 5.9975 1.51543 8C1.51543 10.0025 1.52293 10.2398 1.55906 11.0307C1.59247 11.7623 1.71452 12.1591 1.81747 12.4236C1.93747 12.7489 2.12906 13.0441 2.37793 13.2861C2.61997 13.535 2.9152 13.7266 3.24043 13.8466C3.50497 13.9495 3.90179 14.0716 4.63338 14.105C5.42429 14.1411 5.66088 14.1486 7.66406 14.1486C9.66724 14.1486 9.90384 14.1411 10.6947 14.105C11.4263 14.0716 11.8232 13.9495 12.0877 13.8466C12.4375 13.7102 12.6877 13.5486 12.9502 13.2861C13.1991 13.0441 13.3907 12.7489 13.5107 12.4236C13.6136 12.1591 13.7357 11.7623 13.7691 11.0307C13.8052 10.2398 13.8127 10.0025 13.8127 8C13.8127 5.9975 13.8052 5.76023 13.7691 4.96932C13.7357 4.23773 13.6136 3.84091 13.5107 3.57636C13.3743 3.22659 13.2127 2.97636 12.9502 2.71386C12.7081 2.46505 12.4134 2.27355 12.0877 2.15341C11.8232 2.05045 11.4263 1.92841 10.6947 1.895ZM6.70611 10.312C7.2411 10.5347 7.83682 10.5648 8.39151 10.3971C8.94621 10.2294 9.42547 9.87426 9.74743 9.39244C10.0694 8.91062 10.2141 8.33196 10.1568 7.7553C10.0995 7.17864 9.84384 6.63975 9.43338 6.23068C9.17172 5.96919 8.85534 5.76896 8.50702 5.64442C8.15869 5.51987 7.78708 5.47411 7.41895 5.51042C7.05081 5.54673 6.6953 5.66421 6.37802 5.85441C6.06074 6.0446 5.78957 6.30278 5.58404 6.61035C5.37851 6.91793 5.24374 7.26724 5.18941 7.63316C5.13509 7.99907 5.16257 8.37247 5.26989 8.72649C5.3772 9.0805 5.56166 9.40633 5.81001 9.68049C6.05835 9.95466 6.3644 10.1704 6.70611 10.312ZM4.93815 5.27409C5.29612 4.91612 5.7211 4.63216 6.18881 4.43843C6.65652 4.2447 7.15781 4.14498 7.66406 4.14498C8.17031 4.14498 8.6716 4.2447 9.13931 4.43843C9.60703 4.63216 10.032 4.91612 10.39 5.27409C10.7479 5.63206 11.0319 6.05704 11.2256 6.52475C11.4194 6.99246 11.5191 7.49375 11.5191 8C11.5191 8.50625 11.4194 9.00754 11.2256 9.47525C11.0319 9.94296 10.7479 10.3679 10.39 10.7259C9.66702 11.4489 8.68648 11.855 7.66406 11.855C6.64165 11.855 5.66111 11.4489 4.93815 10.7259C4.2152 10.003 3.80905 9.02241 3.80905 8C3.80905 6.97759 4.2152 5.99705 4.93815 5.27409ZM12.3741 4.71909C12.4628 4.63541 12.5338 4.53478 12.5829 4.42316C12.632 4.31155 12.6583 4.19121 12.66 4.06927C12.6618 3.94734 12.6391 3.82628 12.5933 3.71328C12.5474 3.60028 12.4794 3.49762 12.3931 3.41139C12.3069 3.32516 12.2042 3.25711 12.0912 3.21126C11.9782 3.16542 11.8572 3.14271 11.7352 3.14449C11.6133 3.14627 11.493 3.17249 11.3814 3.22161C11.2697 3.27073 11.1691 3.34175 11.0854 3.43045C10.9227 3.60297 10.8336 3.83213 10.837 4.06927C10.8405 4.30641 10.9362 4.53287 11.1039 4.70057C11.2716 4.86828 11.4981 4.96402 11.7352 4.96748C11.9724 4.97093 12.2015 4.88183 12.3741 4.71909Z" fill="#011C2A"/>
</svg>
