<svg width="51" height="74" viewBox="0 0 51 74" fill="none" xmlns="http://www.w3.org/2000/svg">
<path d="M17.2678 1.41147C15.8072 2.7911 14.9312 4.3924 14.1596 6.07897C12.7653 9.12649 10.841 12.0052 9.70132 15.1334C7.04121 22.4345 7.27545 30.0338 17.0982 34.9568C23.3484 38.0893 30.6441 38.9139 35.5789 34.7151C37.9059 32.7352 41.0799 28.4902 36.7231 26.3601C28.6621 22.419 22.8527 30.9679 22.1184 35.5881C21.3124 40.6599 21.4 45.4604 23.6712 50.5927C27.0643 58.2603 33.1186 65.1169 37.5545 72.4763" stroke="#4F4F4F" stroke-linecap="round"/>
<path d="M40.2899 65.897C40.1168 66.9861 40.3051 73.3614 38.1095 72.9777C33.547 72.1804 29.8381 69.1875 25.2726 68.4619" stroke="#4F4F4F" stroke-linecap="round"/>
</svg>
