<svg width="25" height="24" viewBox="0 0 25 24" fill="none" xmlns="http://www.w3.org/2000/svg">
<path d="M12.1641 1.5C9.97683 1.50258 7.87991 2.3726 6.33329 3.91922C4.78667 5.46584 3.91665 7.56276 3.91407 9.75C3.91145 11.5374 4.49531 13.2763 5.57607 14.7C5.57607 14.7 5.80107 14.9963 5.83782 15.039L12.1641 22.5L18.4933 15.0353C18.5263 14.9955 18.7521 14.7 18.7521 14.7L18.7528 14.6978C19.833 13.2747 20.4166 11.5366 20.4141 9.75C20.4115 7.56276 19.5415 5.46584 17.9949 3.91922C16.4482 2.3726 14.3513 1.50258 12.1641 1.5ZM12.1641 12.75C11.5707 12.75 10.9907 12.5741 10.4974 12.2444C10.004 11.9148 9.6195 11.4462 9.39243 10.8981C9.16537 10.3499 9.10596 9.74667 9.22172 9.16473C9.33747 8.58279 9.62319 8.04824 10.0428 7.62868C10.4623 7.20912 10.9969 6.9234 11.5788 6.80764C12.1607 6.69189 12.7639 6.7513 13.3121 6.97836C13.8603 7.20542 14.3288 7.58994 14.6585 8.08329C14.9881 8.57664 15.1641 9.15666 15.1641 9.75C15.1631 10.5453 14.8467 11.3078 14.2843 11.8702C13.7219 12.4326 12.9594 12.749 12.1641 12.75Z" fill="white"/>
</svg>
