<svg width="25" height="24" viewBox="0 0 25 24" fill="none" xmlns="http://www.w3.org/2000/svg">
<path d="M20.1663 10.999H22.1663C22.1663 5.869 18.2933 2 13.1562 2V4C17.2182 4 20.1663 6.943 20.1663 10.999Z" fill="white"/>
<path d="M13.1643 8.00024C15.2673 8.00024 16.1643 8.89724 16.1643 11.0002H18.1643C18.1643 7.77524 16.3893 6.00024 13.1643 6.00024V8.00024ZM16.5863 13.4432C16.3942 13.2686 16.1417 13.1754 15.8821 13.1835C15.6226 13.1915 15.3763 13.3001 15.1953 13.4862L12.8023 15.9472C12.2263 15.8372 11.0683 15.4762 9.87634 14.2872C8.68434 13.0942 8.32334 11.9332 8.21634 11.3612L10.6753 8.96724C10.8618 8.78637 10.9705 8.54006 10.9785 8.28045C10.9865 8.02083 10.8932 7.76828 10.7183 7.57624L7.02334 3.51324C6.84839 3.3206 6.60522 3.20374 6.3455 3.1875C6.08577 3.17125 5.82994 3.2569 5.63234 3.42624L3.46234 5.28724C3.28946 5.46075 3.18626 5.69169 3.17234 5.93624C3.15734 6.18624 2.87134 12.1082 7.46334 16.7022C11.4693 20.7072 16.4873 21.0002 17.8693 21.0002C18.0713 21.0002 18.1953 20.9942 18.2283 20.9922C18.4729 20.9786 18.7037 20.8749 18.8763 20.7012L20.7363 18.5302C20.9058 18.3328 20.9916 18.077 20.9756 17.8173C20.9595 17.5576 20.8428 17.3143 20.6503 17.1392L16.5863 13.4432Z" fill="white"/>
</svg>
