<svg width="41" height="78" viewBox="0 0 41 78" fill="none" xmlns="http://www.w3.org/2000/svg">
<path d="M33.9589 1C35.1783 2.80803 35.7888 4.76051 36.2835 6.79003C37.1774 10.4572 38.6182 14.0296 39.2494 17.7419C40.7226 26.4064 39.3062 34.8893 28.8889 38.6607C22.2603 41.0604 14.965 40.6848 10.773 35.095C8.7963 32.4591 6.34109 27.1313 10.9534 25.5185C19.4869 22.5345 23.8589 33.1602 23.8589 38.4739C23.8589 44.307 23.0235 49.6766 19.9913 55.029C15.4613 63.0254 8.4438 69.6377 2.9375 77.1024" stroke="#4F4F4F" stroke-linecap="round"/>
<path d="M1.49527 70.073C1.49527 71.1758 0.308653 77.4425 2.53734 77.4082C7.1684 77.3368 11.3011 74.9631 15.9238 74.9631" stroke="#4F4F4F" stroke-linecap="round"/>
</svg>
