<svg width="16" height="13" viewBox="0 0 16 13" fill="none" xmlns="http://www.w3.org/2000/svg">
<path d="M15.1641 1.92545C14.6124 2.15977 14.0122 2.32841 13.3938 2.39409C14.0358 2.01853 14.5165 1.42521 14.7458 0.725451C14.1435 1.07833 13.4835 1.32578 12.7954 1.45681C12.5077 1.15402 12.1599 0.9128 11.7734 0.748186C11.387 0.583572 10.9703 0.499092 10.5492 0.500007C8.84571 0.500007 7.47568 1.85977 7.47568 3.52841C7.47568 3.76273 7.50453 3.99705 7.5514 4.22249C5.00062 4.09113 2.72565 2.89113 1.21322 1.05385C0.937633 1.51737 0.793218 2.04514 0.794996 2.58225C0.794996 3.63314 1.3376 4.55977 2.16502 5.10474C1.67741 5.08583 1.20121 4.95385 0.775167 4.71953V4.75681C0.775167 6.22841 1.83153 7.44793 3.23941 7.72841C2.97507 7.79602 2.70313 7.83061 2.43002 7.83136C2.22992 7.83136 2.04064 7.81184 1.84956 7.78521C2.23893 8.98521 3.37281 9.85681 4.72301 9.88521C3.66665 10.7 2.34349 11.1793 0.906762 11.1793C0.64898 11.1793 0.411028 11.1704 0.164062 11.142C1.52688 12.003 3.14387 12.5 4.88525 12.5C10.5384 12.5 13.6318 7.88817 13.6318 3.88521C13.6318 3.75385 13.6318 3.62249 13.6228 3.49113C14.2213 3.05977 14.7458 2.52545 15.1641 1.92545Z" fill="white"/>
</svg>
